<svg width="1779" height="1936" viewBox="0 0 1779 1936" fill="none" xmlns="http://www.w3.org/2000/svg">
<path fill-rule="evenodd" clip-rule="evenodd" d="M1428.05 352.889L1418.93 341.027L1410.63 330.436L1403.99 318.998L1398.19 307.136L1393.62 295.698L1389.06 282.566L1385.74 271.127L1383.25 257.995L1379.93 233.424L1378.69 209.276L1381.18 185.553L1383.25 163.524L1386.57 141.495L1392.38 122.855L1396.94 105.062L1402.75 89.811L1410.63 67.782L1414.36 59.733L1223.13 0L1218.56 11.862L1214 22.029L1207.36 33.891L1200.31 44.482L1192.43 55.073L1184.13 65.24L1175.01 75.831L1165.05 85.151L1143.07 103.791L1119 120.313L1092.87 136.835L1065.49 150.815L1036.87 163.524L1005.76 174.115L975.06 183.435L943.12 191.484L911.18 196.144L878.82 199.533L846.88 202.075L816.18 200.804L1024.01 228.764L1067.57 227.916L1105.32 225.375L1138.5 221.986L1167.13 217.326L1191.19 210.124L1202.8 205.464L1211.93 200.804L1221.05 196.144L1228.94 190.213L1236.82 184.706L1243.87 178.775L1242.62 180.893L1241.38 190.213L1240.55 204.616V212.666L1241.38 223.256L1242.62 233.424L1245.94 246.556L1250.51 259.266L1256.31 274.516L1263.37 289.767L1272.49 305.866L1283.69 322.387L1297.38 341.027L1314.8 362.209L1335.13 391.44L1360.44 426.178L1387.82 467.271L1416.44 513.87L1445.06 564.28L1474.93 620.2L1489.86 649.43L1503.55 679.94L1517.24 710.01L1530.93 741.79L1543.38 774.41L1554.99 808.3L1564.95 840.92L1575.32 876.08L1584.44 909.97L1592.74 945.98L1598.13 981.14L1603.94 1017.15L1607.26 1052.31L1608.5 1088.75L1609.75 1124.75L1607.26 1161.19L1603.94 1197.2L1598.13 1233.63L1591.5 1269.64L1583.61 1304.8L1573.24 1338.69L1561.63 1371.31L1550.43 1402.66L1536.74 1434.43L1521.81 1463.66L1505.63 1492.89L1489.86 1519.58L1472.44 1546.27L1452.94 1572.11L1433.45 1595.41L1414.36 1618.71L1392.38 1641.17L1370.81 1661.93L1347.99 1681.84L1325.18 1699.63L1301.12 1717L1275.81 1733.52L1250.51 1748.35L1225.62 1761.48L1199.07 1774.19L1172.93 1786.05L1145.55 1795.37L1119 1803.42L1090.38 1811.47L1063 1817.4L1035.62 1822.06L1007 1825.45L978.38 1827.99L949.75 1829.26L921.13 1827.99L821.99 1823.33L748.56 1818.67L695.88 1812.74L660.62 1808.08L638.631 1804.69L624.942 1802.15L617.06 1801.3L609.179 1802.15H602.126L593 1801.3L650.247 1818.67L746.49 1849.17L758.93 1851.29L777.18 1854.68L800 1857.22L828.62 1859.34L893.75 1863.15L967.18 1864L1005.76 1863.15L1044.75 1861.88L1082.5 1860.61L1118.18 1857.22L1152.19 1853.83L1184.13 1849.17L1211.93 1843.24L1235.57 1836.04L1290.74 1817.4L1326.01 1804.69L1365 1786.9L1406.07 1767.41L1428.05 1755.55L1449.62 1742.84L1471.2 1728.86L1494.43 1713.61L1516 1697.09L1538.81 1679.72L1560.38 1661.08L1582.37 1639.9L1602.7 1618.71L1623.44 1595.41L1642.94 1570L1662.43 1544.15L1679.44 1514.92L1696.86 1485.69L1712.63 1454.34L1726.32 1420.45L1739.18 1384.02L1750.38 1346.74L1760.75 1306.92L1767.38 1266.25L1773.19 1221.77L1777.76 1176.01L1779 1130.69V1086.2L1776.51 1042.99L1773.19 1001.05L1767.38 959.96L1760.75 921.41L1752.87 882.86L1742.5 846.85L1732.12 811.69L1720.51 777.8L1706.82 745.18L1694.37 713.83L1679.44 684.6L1664.51 655.37L1649.57 627.41L1633.81 601.56L1617.63 576.99L1601.87 552.42L1585.69 530.39L1569.51 509.211L1538.81 470.66L1508.95 438.04L1482.81 408.809L1458.75 385.509L1440.5 366.869L1428.05 352.889Z" fill="#D4B5EE"/>
<path fill-rule="evenodd" clip-rule="evenodd" d="M627.506 1824.76L668.85 1827.41L765.19 1832.28L844.9 1837.14L951.9 1842H975.34H1002.63L1029.48 1839.35L1056.76 1835.81L1083.62 1832.28L1110.47 1826.09L1136.48 1818.57L1162.48 1810.18L1188.05 1800.45L1214.06 1789.4L1238.78 1777.47L1263.5 1763.76L1288.23 1749.18L1311.67 1734.59L1335.12 1717.8L1357.28 1699.23L1379.88 1679.78L1400.76 1660.33L1420.8 1638.23L1440.83 1616.58L1459.59 1593.15L1477.49 1570.16L1494.97 1544.53L1511.17 1518.89L1525.66 1493.25L1540.58 1464.08L1554.65 1436.24L1566.58 1405.74L1578.52 1375.24L1587.9 1344.74L1597.28 1312.91L1604.1 1281.09L1611.34 1248.38L1616.03 1214.35L1619.44 1178.99L1622 1142.3V1105.61L1619.44 1069.37L1617.31 1031.35L1611.34 992.46L1604.1 954.89L1597.28 920.41L1588.75 887.7L1579.37 853.67L1569.14 819.63L1557.21 785.16L1544.42 751.12L1530.35 715.76L1515.01 680.4L1498.38 646.36L1483.04 613.66L1466.84 581.83L1450.21 551.33L1417.39 495.197L1386.7 445.25L1358.56 403.701L1335.12 369.666L1305.71 330.769L1289.08 308.669L1276.29 287.894L1265.64 268.446L1257.54 250.324L1251.57 232.201L1246.88 216.289L1244.75 201.702L1242.19 188L1225.99 197.724L1205.96 206.565L1184.64 213.637L1161.2 218.499L1136.48 223.361L1109.62 226.013L1080.21 228.223H1048.24L1003.9 227.339L954.46 224.687L901.6 219.825L842.77 211.427L822.74 210.101L801.42 207.449L757.09 206.565L715.74 207.449L674.82 210.101L632.195 216.289L591.272 223.361L549.071 232.201L507.723 244.135L467.653 256.512L428.01 272.424L405.418 282.148L383.251 291.872L361.085 302.481L339.771 314.857L318.458 327.233L298.423 339.167L278.815 352.87L258.78 366.13L240.876 380.716L223.399 395.303L205.922 411.215L189.297 425.801L172.673 443.04L157.753 459.836L143.686 477.074L130.472 493.871L109.584 524.37L89.549 556.19L72.925 588.02L57.579 622.05L43.512 657.41L32.855 692.78L23.477 730.35L16.657 768.36L10.689 813.44L7.27899 858.53L6 905.82L8.13101 954.89L12.82 1004.83L20.067 1055.67L29.445 1106.94L41.381 1160.86L48.201 1187.38L56.3 1214.35L66.104 1239.98L76.335 1265.62L88.271 1291.26L99.78 1315.57L112.994 1339.88L125.783 1362.86L153.917 1409.27L184.608 1452.15L214.021 1493.25L244.713 1529.94L274.978 1565.3L304.391 1595.8L330.394 1622.76L355.117 1647.07L376.005 1665.2L393.908 1679.78L405.418 1689.51L412.664 1695.69L422.042 1700.56L428.863 1706.75L436.109 1713.82L443.356 1722.66L453.586 1738.13L462.964 1753.16L467.653 1762.88L473.621 1769.95L479.589 1774.81L493.656 1782.33L511.133 1792.05L535.004 1803.1L560.581 1813.71L581.894 1821.23L597.24 1824.76L607.471 1826.09L617.275 1824.76H627.506Z" fill="#6B1BC6" stroke="#D4B5EE" stroke-width="10.3125" stroke-miterlimit="10" stroke-linejoin="round"/>
<path fill-rule="evenodd" clip-rule="evenodd" d="M672.03 1931.22L668.62 1932.52L656.69 1934.7L643.906 1936L631.973 1934.7L621.745 1933.39L611.091 1929.92L600.436 1925.13L591.061 1918.18L582.963 1910.79L574.44 1901.23L568.899 1891.67L562.933 1880.8L558.245 1869.07L554.41 1855.59L552.279 1842.55L551 1828.21V1813.87L552.279 1809.95L554.41 1807.78L556.967 1805.17L560.376 1804.3L564.212 1803L566.342 1804.3L568.899 1806.48V1809.08V1822.12L569.752 1835.16L572.309 1848.64L575.718 1859.5L579.128 1871.24L583.816 1880.8L589.782 1890.36L597.027 1899.06L605.124 1904.71L612.369 1910.79L621.745 1915.57L629.842 1918.18L639.218 1920.35H649.873H659.25L669.9 1918.18H673.31H675.44L678 1920.35V1922.96L676.72 1927.74L672.03 1931.22Z" fill="#D4B5EE"/>
<path fill-rule="evenodd" clip-rule="evenodd" d="M549 1904.21V1900.3V1898.12L547.724 1896.82L544.323 1895.51L538.37 1893.34L532.417 1890.73L527.74 1888.55L524.339 1884.63L520.937 1879.85L517.11 1875.06L515.835 1869.4L513.709 1863.31V1857.22V1849.82L515.835 1835.47L521.787 1820.24L530.291 1803.27L531.142 1800.66V1798.48L530.291 1795.87L526.465 1795H523.063L519.661 1795.87L517.11 1798.48L514.984 1800.66L509.032 1810.23L504.354 1818.93L500.953 1828.5L498.402 1836.77L496.276 1846.34V1855.05L495 1862.01L496.276 1870.27L498.402 1877.67L500.953 1884.63L504.354 1890.73L509.032 1896.82L514.984 1900.3L520.937 1904.21L527.74 1907.69L535.819 1909H539.646H543.047L546.449 1906.39L549 1904.21Z" fill="#D4B5EE"/>
<path fill-rule="evenodd" clip-rule="evenodd" d="M446.301 1833.8L456.902 1829.05L467.078 1824.31L476.831 1819.56L483.615 1813.52L490.823 1807.48L495.488 1801.44L498.88 1794.53L501 1787.2V1785.04L498.88 1782.45L496.336 1780.29L492.944 1779H489.551L486.159 1780.29L483.615 1782.45L482.343 1785.04L480.223 1789.79L477.679 1795.4L473.015 1800.14L468.35 1806.18L462.414 1809.64L454.358 1814.81L446.301 1818.27L436.973 1821.72L426.373 1824.31L414.5 1826.47L391.179 1829.05H365.738L338.601 1826.47H333.936L331.816 1827.76L329.272 1829.92L328 1832.51V1834.66L329.272 1837.25L332.664 1838.55L336.48 1839.41L347.929 1840.71L375.066 1842H400.507L423.828 1838.55L446.301 1833.8Z" fill="#D4B5EE"/>
<path fill-rule="evenodd" clip-rule="evenodd" d="M481.869 1781.44L482.721 1779.25L484 1776.62V1774.44L481.869 1771.81L479.311 1769.62L475.901 1768.31L472.064 1767L468.653 1768.31L457.996 1771.81L446.486 1775.75L434.55 1777.94L423.04 1780.56H409.825H397.036L385.1 1779.25L372.311 1776.62L360.801 1773.12L347.586 1769.62L336.076 1764.81L325.418 1758.69L314.761 1752.56L304.104 1745.56L294.725 1738.12L286.625 1728.5L283.215 1725.88L279.378 1725H275.968H273.837L271.279 1727.19L270 1729.81L271.279 1732L272.558 1734.62L284.068 1745.56L296.004 1755.19L308.793 1764.81L322.008 1771.81L341.618 1780.56L361.653 1787.56L381.689 1792.37L403.004 1795H423.04L443.928 1792.37L462.685 1788.87L481.869 1781.44Z" fill="#D4B5EE"/>
<path fill-rule="evenodd" clip-rule="evenodd" d="M1190.77 464.458L1206.12 483.626L1222.32 509.764L1242.36 542.44L1263.68 580.77L1284.57 625.21L1305.89 673.13L1327.21 724.97L1345.97 781.6L1364.73 839.1L1372.83 869.16L1380.08 899.22L1386.9 930.15L1392.87 961.52L1398.84 992.88L1403.53 1024.25L1405.66 1055.18L1408.22 1086.54L1409.5 1118.78V1150.15L1408.22 1180.21L1405.66 1211.57L1400.97 1241.63L1395.43 1271.69L1389.46 1297.83L1382.21 1324.4L1374.11 1349.67L1364.73 1374.93L1355.35 1398.89L1344.69 1422.85L1332.75 1445.51L1319.96 1468.6L1307.17 1491.25L1294.38 1513.03L1279.88 1533.51L1264.96 1553.54L1249.61 1573.15L1232.98 1591.01L1215.5 1608.87L1198.87 1627.17L1181.39 1642.41L1162.63 1658.1L1143.87 1672.47L1125.11 1687.28L1105.07 1700.35L1085.03 1712.12L1064.99 1723.01L1043.67 1733.9L1022.78 1742.17L1001.46 1750.89L980.14 1757.86L959.25 1763.96L936.65 1768.75L914.48 1773.54L893.16 1776.15L870.99 1778.33L667.61 1787.92L646.293 1789.22L631.37 1791.4L619.431 1792.71L608.772 1796.19L604.082 1797.5H597.26L581.91 1796.19L564.429 1791.4L544.39 1786.61L526.482 1780.95L509.001 1773.54L496.209 1767.44L487.682 1762.65L482.992 1759.16L478.302 1753.07L466.79 1741.3L454.851 1727.8L448.029 1721.7L439.502 1716.04L433.959 1711.24L425.432 1700.35L412.64 1683.36L398.57 1662.02L380.662 1635.44L363.181 1604.08L343.142 1569.23L323.102 1530.89L302.21 1489.94L282.17 1445.51L263.41 1398.89L245.502 1349.67L229.3 1299.13L215.23 1247.29L209.26 1221.16L204.57 1195.89L199.88 1169.31L196.469 1143.18L191.779 1088.72L190.5 1037.32L191.779 988.09L195.19 941.04L201.159 896.61L209.26 854.79L221.199 813.84L233.99 775.5L248.06 740.65L264.689 707.11L283.449 674.43L303.062 644.38L324.381 616.93L347.832 591.66L371.282 566.4L396.012 544.61L422.021 524.58L448.882 504.972L476.17 488.418L503.031 472.735L531.172 459.666L559.313 446.161L587.88 435.706L616.02 425.687L644.161 418.716L672.3 411.311L699.59 406.519L726.45 403.034L752.46 399.548L778.04 398.242H801.49H825.37L891.03 400.855H947.31L973.32 399.548L995.49 398.242L1016.81 396.063L1036.85 392.143L1054.33 389.965L1069.68 385.173L1085.03 381.252L1097.82 376.46L1109.76 370.797L1120.42 364.698L1129.8 358.599L1137.9 352.5H1139.18L1140.03 353.807V359.906L1141.31 369.49L1143.87 382.559L1149.41 399.548L1153.25 409.132L1157.94 418.716L1163.91 429.607L1170.73 440.498L1180.11 452.26L1190.77 464.458Z" fill="#8948D0" stroke="#D4B5EE" stroke-width="6.875" stroke-miterlimit="10" stroke-linejoin="round"/>
<path fill-rule="evenodd" clip-rule="evenodd" d="M1063.84 607.3L1069.81 614.27L1077.06 623.85L1082.6 634.74L1089.85 646.93L1103.92 676.98L1117.99 711.83L1130.79 751.46L1144 795.88L1154.24 843.79L1164.9 894.31L1174.28 945.71L1180.25 999.71L1184.94 1053.72L1187.5 1108.16V1134.29V1160.86L1184.94 1187.43L1182.81 1212.26L1180.25 1237.52L1175.56 1261.47L1170.87 1285.86L1164.9 1308.51L1153.39 1345.53L1139.31 1381.68L1123.96 1416.52L1106.05 1451.36L1086.44 1484.9L1065.12 1516.26L1042.94 1547.62L1019.06 1576.36L993.48 1602.93L967.46 1627.76L939.32 1650.84L911.18 1671.31L881.75 1689.17L852.33 1703.54L836.98 1710.94L821.63 1716.6L806.28 1721.4L791.35 1725.32L712.46 1744.48L663 1757.55L630.163 1768.43L605.43 1778.02L596.049 1780.63L584.109 1781.5H571.316L557.244 1780.63L532.511 1776.71L513.749 1773.22L509.058 1771.05L504.367 1768.43L494.986 1762.34L484.325 1755.37L472.385 1747.96L470.253 1743.17L464.283 1732.28L457.461 1714.43L448.932 1690.47L439.551 1661.73L430.169 1626.88L419.509 1588.12L409.275 1546.31L398.614 1500.58L389.233 1452.67L380.704 1402.15L373.881 1350.76L367.911 1296.31L364.5 1242.31V1188.3V1162.17L365.779 1135.6L369.191 1102.07L372.602 1068.53L378.572 1037.17L384.542 1007.12L392.644 978.37L400.746 950.5L410.127 924.37L420.788 899.11L432.728 875.15L444.241 851.2L458.313 829.42L471.533 808.95L485.605 788.48L500.956 770.62L515.881 752.33L532.511 735.78L549.142 720.1L565.346 705.73L583.256 692.66L599.46 679.16L617.37 667.4L634.853 656.51L652.337 646.93L670.25 638.66L687.73 629.94L705.21 622.98L723.12 616.88L739.33 612.09L755.96 607.3L772.16 603.81L804.14 597.72L845.08 592.92L880.47 586.83L911.18 580.73L936.76 573.76L960.64 567.66L980.26 560.26L1014.37 548.5H1018.21L1021.62 550.68L1025.03 555.47L1029.72 562.87L1034.41 572.45L1041.66 583.34L1051.04 595.1L1063.84 607.3Z" fill="#A46DDB" stroke="#D4B5EE" stroke-width="6.875" stroke-miterlimit="10" stroke-linejoin="round"/>
<path fill-rule="evenodd" clip-rule="evenodd" d="M500.79 1796.89L496.949 1780.35L487.559 1731.17L482.865 1697.22L478.17 1657.61L473.475 1614.53L470.061 1566.65L468.781 1514.86L467.5 1460.89L470.061 1405.62L472.195 1376.89L474.756 1349.47L478.17 1320.75L482.011 1292.89L487.559 1264.17L493.534 1236.75L500.79 1208.89L508.899 1181.47L518.288 1154.92L528.958 1128.37L539.627 1103.57L551.151 1078.32L563.101 1055.25L575.904 1032.62L588.708 1009.56L602.792 989.54L630.107 948.62L659.55 911.19L689 877.68L718.45 847.65L747.9 821.54L776.07 799.77L804.24 780.62L830.27 764.96L843.07 758.86L855.88 754.07L866.55 750.59L878.5 747.11L888.74 744.5H898.13H907.95L916.05 745.81L924.16 747.98L930.14 750.59L936.11 756.69L941.66 762.34L947.64 772.35L952.33 781.93L957.03 793.68L960.87 808.04L967.7 839.38L973.67 875.5L977.09 915.98L979.65 959.5L980.5 1004.77L979.65 1051.77L977.09 1098.34L973.67 1146.65L967.7 1192.35L960.87 1235.44L951.48 1276.35L940.81 1313.35L934.83 1330.32L928.86 1345.55L910.08 1385.16L888.74 1427.38L865.27 1468.29L839.66 1510.07L811.06 1550.98L782.9 1590.59L752.59 1627.58L723.15 1662.4L692.42 1695.04L661.69 1725.08L646.325 1738.13L631.387 1750.32L616.023 1760.76L601.939 1770.77L587.854 1779.04L573.771 1786.01L560.54 1792.1L547.736 1795.58L534.933 1798.19L522.983 1799.5H511.033L500.79 1796.89Z" fill="#BD91E4" stroke="#D4B5EE" stroke-width="6.875" stroke-miterlimit="10" stroke-linejoin="round"/>
</svg>
