<svg width="376" height="390" viewBox="0 0 376 390" fill="none" xmlns="http://www.w3.org/2000/svg">
<g filter="url(#filter0_d_386_2393)">
<path fill-rule="evenodd" clip-rule="evenodd" d="M148.205 370.109L147.545 370.353L145.241 370.756L142.775 371L140.471 370.756L138.495 370.515L136.437 369.865L134.381 368.974L132.571 367.68L131.007 366.301L129.363 364.519L128.292 362.737L127.142 360.71L126.237 358.522L125.497 356.011L125.083 353.582L124.838 350.909V348.236L125.083 347.507L125.497 347.101L125.988 346.616L126.648 346.454L127.387 346.21L127.798 346.454L128.292 346.856V347.345V349.774L128.458 352.206L128.952 354.718L129.608 356.74L130.268 358.928L131.173 360.71L132.326 362.492L133.722 364.113L135.286 365.165L136.685 366.301L138.495 367.192L140.056 367.68L141.87 368.083H143.925H145.735L147.79 367.68H148.45H148.861L149.355 368.083V368.571L149.11 369.462L148.205 370.109Z" fill="#D4B5EE"/>
<path fill-rule="evenodd" clip-rule="evenodd" d="M124.477 365.079V364.353V363.947L124.239 363.703L123.601 363.462L122.49 363.056L121.376 362.571L120.504 362.169L119.866 361.44L119.231 360.549L118.513 359.661L118.276 358.608L117.879 357.473V356.341V354.965L118.276 352.296L119.39 349.465L120.98 346.31L121.138 345.825V345.419L120.98 344.934L120.262 344.772H119.628L118.993 344.934L118.513 345.419L118.117 345.825L117.006 347.604L116.13 349.224L115.496 351.002L115.016 352.54L114.62 354.319V355.939L114.382 357.232L114.62 358.77L115.016 360.146L115.496 361.44L116.13 362.571L117.006 363.703L118.117 364.353L119.231 365.079L120.504 365.726L122.014 365.97H122.728H123.363L124.001 365.485L124.477 365.079Z" fill="#D4B5EE"/>
<path fill-rule="evenodd" clip-rule="evenodd" d="M104.976 352.213L107.01 351.319L108.96 350.424L110.832 349.533L112.13 348.394L113.514 347.259L114.408 346.12L115.057 344.823L115.465 343.44V343.034L115.057 342.549L114.571 342.143L113.921 341.898H113.269L112.62 342.143L112.13 342.549L111.888 343.034L111.481 343.928L110.994 344.984L110.1 345.879L109.205 347.014L108.066 347.665L106.523 348.638L104.976 349.289L103.188 349.939L101.156 350.424L98.8793 350.83L94.4078 351.319H89.5295L84.3264 350.83H83.4322L83.0255 351.074L82.5377 351.48L82.2939 351.969V352.375L82.5377 352.86L83.1881 353.104L83.92 353.266L86.1151 353.51L91.3182 353.754H96.1965L100.668 353.104L104.976 352.213Z" fill="#D4B5EE"/>
<path fill-rule="evenodd" clip-rule="evenodd" d="M111.812 342.265L111.974 341.862L112.219 341.377V340.971L111.812 340.486L111.325 340.084L110.676 339.84L109.948 339.599L109.299 339.84L107.269 340.486L105.077 341.216L102.805 341.618L100.614 342.103H98.0976H95.6628L93.3903 341.862L90.9555 341.377L88.764 340.731L86.2481 340.084L84.0567 339.193L82.0279 338.061L79.9987 336.933L77.9699 335.64L76.1844 334.264L74.6423 332.485L73.993 332L73.2625 331.838H72.6131H72.2075L71.7204 332.244L71.4771 332.729L71.7204 333.132L71.9642 333.617L74.1552 335.64L76.4278 337.418L78.8626 339.193L81.3785 340.486L85.112 342.103L88.9263 343.396L92.7409 344.287L96.7989 344.773H100.614L104.59 344.287L108.163 343.641L111.812 342.265Z" fill="#D4B5EE"/>
<path fill-rule="evenodd" clip-rule="evenodd" d="M294.107 76.6371L292.366 74.4312L290.786 72.4623L289.521 70.3353L288.414 68.1293L287.541 65.9988L286.672 63.5593L286.042 61.4287L285.566 58.9874L284.935 54.417L284.697 49.9256L285.169 45.5129L285.566 41.4157L286.2 37.3181L287.307 33.851L288.176 30.5417L289.283 27.7048L290.786 23.6075L291.497 22.1104L255.045 11L254.176 13.2063L253.304 15.0972L252.038 17.3036L250.697 19.2735L249.193 21.2435L247.61 23.1347L245.873 25.1047L243.976 26.8382L239.783 30.3053L235.197 33.3782L230.217 36.4515L224.997 39.0516L219.541 41.4157L213.611 43.3856L207.759 45.1192L201.671 46.6163L195.583 47.4829L189.415 48.1134L183.326 48.5862L177.475 48.3498L217.09 53.5504L225.393 53.3927L232.586 52.9199L238.914 52.2897L244.369 51.4228L248.955 50.0833L251.169 49.2164L252.91 48.3498L254.648 47.4829L256.152 46.3799L257.655 45.3556L258.997 44.2522L258.762 44.6463L258.524 46.3799L258.366 49.0591V50.5562L258.524 52.5261L258.762 54.417L259.393 56.8598L260.262 59.2227L261.369 62.0611L262.714 64.8958L264.455 67.8922L266.59 70.9641L269.197 74.4312L272.521 78.3725L276.393 83.8084L281.217 90.2683L286.435 97.9138L291.893 106.58L297.348 115.957L303.042 126.358L305.886 131.794L308.497 137.471L311.107 143.065L313.714 148.975L316.086 155.04L318.3 161.345L320.2 167.413L322.176 173.952L323.917 180.257L325.497 186.954L326.524 193.493L327.631 200.19L328.266 206.733L328.5 213.509L328.738 220.206L328.266 226.982L327.631 233.679L326.524 240.455L325.259 247.156L323.759 253.695L321.779 260L319.566 266.065L317.431 271.896L314.821 277.806L311.976 283.242L308.893 288.681L305.886 293.643L302.566 298.608L298.848 303.416L295.135 307.748L291.497 312.081L287.307 316.26L283.193 320.122L278.845 323.823L274.497 327.132L269.91 330.365L265.086 333.437L260.262 336.196L255.517 338.64L250.459 341L245.476 343.21L240.259 344.941L235.197 346.44L229.741 347.934L224.522 349.041L219.304 349.907L213.848 350.535L208.392 351.01L202.936 351.247L197.48 351.01L178.582 350.144L164.586 349.274L154.544 348.171L147.823 347.305L143.633 346.677L141.023 346.202L139.521 346.044L138.018 346.202H136.674L134.935 346.044L145.847 349.274L164.191 354.947L166.563 355.343L170.043 355.975L174.391 356.446L179.847 356.841L192.261 357.549L206.257 357.707L213.611 357.549L221.044 357.311L228.238 357.078L235.038 356.446L241.524 355.817L247.61 354.947L252.91 353.844L257.417 352.508L267.935 349.041L274.655 346.677L282.086 343.364L289.914 339.743L294.107 337.533L298.217 335.172L302.328 332.571L306.759 329.733L310.869 326.661L315.217 323.431L319.331 319.964L323.521 316.023L327.393 312.081L331.348 307.748L335.066 303.02L338.779 298.213L342.024 292.777L345.345 287.341L348.348 281.51L350.959 275.205L353.41 268.429L355.545 261.495L357.521 254.09L358.786 246.523L359.893 238.249L360.762 229.741L361 221.309V213.035L360.524 204.998L359.893 197.198L358.786 189.552L357.521 182.384L356.017 175.213L354.041 168.516L352.066 161.974L349.852 155.672L347.241 149.604L344.869 143.772L342.024 138.337L339.176 132.901L336.331 127.698L333.324 122.891L330.241 118.321L327.238 113.751L324.152 109.655L321.069 105.714L315.217 98.5425L309.524 92.4743L304.541 87.0383L299.955 82.7054L296.48 79.2383L294.107 76.6371Z" fill="#D4B5EE"/>
<path fill-rule="evenodd" clip-rule="evenodd" d="M139.56 345.922L147.447 346.411L165.825 347.302L181.031 348.193L201.441 349.084H205.914H211.118L216.241 348.599L221.446 347.948L226.568 347.302L231.692 346.166L236.653 344.79L241.61 343.249L246.492 341.467L251.45 339.441L256.166 337.252L260.885 334.741L265.601 332.068L270.072 329.391L274.547 326.312L278.772 322.91L283.085 319.342L287.069 315.778L290.891 311.726L294.712 307.755L298.289 303.462L301.703 299.248L305.039 294.548L308.128 289.845L310.894 285.146L313.739 279.8L316.425 274.694L318.7 269.1L320.979 263.51L322.767 257.92L324.555 252.085L325.857 246.25L327.238 240.254L328.132 234.013L328.784 227.532L329.271 220.806V214.08L328.784 207.433L328.377 200.467L327.238 193.335L325.857 186.448L324.555 180.124L322.929 174.128L321.141 167.887L319.187 161.65L316.912 155.33L314.471 149.09L311.788 142.605L308.86 136.123L305.691 129.882L302.763 123.886L299.674 118.051L296.501 112.461L290.238 102.171L284.386 93.013L279.018 85.3962L274.547 79.1555L268.933 72.0237L265.764 67.971L263.323 64.1627L261.289 60.5986L259.746 57.276L258.607 53.9537L257.713 51.0363L257.305 48.3622L256.818 45.8501L253.729 47.6328L249.907 49.2536L245.84 50.5502L241.369 51.4416L236.653 52.333L231.529 52.8191L225.919 53.2244H219.819L211.362 53.0623L201.929 52.5758L191.846 51.6845L180.625 50.1449L176.802 49.9017L172.737 49.4156L164.28 49.2536L156.392 49.4156L148.586 49.9017L140.454 51.0363L132.648 52.333L124.597 53.9537L116.71 56.1413L109.066 58.4106L101.503 61.3279L97.1935 63.11L92.9653 64.892L88.7367 66.8393L84.6708 69.1064L80.6049 71.3771L76.783 73.5651L73.0427 76.0764L69.2208 78.5088L65.8053 81.1818L62.4713 83.8549L59.1373 86.7723L55.9662 89.4453L52.7948 92.607L49.9486 95.686L47.2651 98.8477L44.7444 101.927L40.76 107.517L36.9382 113.352L33.7668 119.187L30.8391 125.427L28.1559 131.909L26.1227 138.394L24.334 145.281L23.0328 152.248L21.8945 160.515L21.2437 168.782L21 177.451L21.4067 186.448L22.3009 195.602L23.6832 204.922L25.4723 214.321L27.7492 224.208L29.0504 229.069L30.5953 234.013L32.4655 238.712L34.4172 243.415L36.6941 248.115L38.8895 252.57L41.4104 257.029L43.8499 261.243L49.2167 269.751L55.0717 277.612L60.6826 285.146L66.5372 291.872L72.3108 298.357L77.9217 303.947L82.8817 308.891L87.5981 313.346L91.5829 316.669L94.9981 319.342L97.1935 321.128L98.5758 322.26L100.365 323.151L101.666 324.286L103.048 325.583L104.431 327.203L106.382 330.042L108.172 332.797L109.066 334.579L110.204 335.876L111.343 336.767L114.026 338.144L117.36 339.926L121.914 341.952L126.793 343.896L130.859 345.275L133.786 345.922L135.738 346.166L137.608 345.922H139.56Z" fill="#6B1BC6" stroke="#D4B5EE" stroke-width="10.3125" stroke-miterlimit="10" stroke-linejoin="round"/>
<path d="M35.6825 166.917C35.8868 166.935 36.0595 166.96 36.2008 166.993C36.3358 167.019 36.4423 167.055 36.5205 167.103C36.5992 167.144 36.6569 167.191 36.6936 167.242C36.7303 167.293 36.7459 167.349 36.7405 167.411L36.3612 171.731L39.9161 172.041L40.2721 167.986C40.2775 167.925 40.2993 167.872 40.3375 167.827C40.3758 167.783 40.4372 167.747 40.5219 167.72C40.6072 167.686 40.7186 167.668 40.856 167.667C40.994 167.658 41.1651 167.663 41.3694 167.68C41.5737 167.698 41.7431 167.723 41.8775 167.756C42.0125 167.781 42.1225 167.818 42.2074 167.867C42.293 167.908 42.3541 167.955 42.3908 168.006C42.4206 168.057 42.4329 168.113 42.4275 168.174L42.0715 172.229L46.9952 172.659C47.0701 172.665 47.133 172.691 47.1839 172.737C47.2348 172.782 47.2759 172.861 47.3072 172.974C47.3322 173.079 47.3475 173.218 47.353 173.39C47.3585 173.562 47.3496 173.78 47.3262 174.046C47.3035 174.305 47.2742 174.522 47.2382 174.697C47.2028 174.866 47.1636 174.999 47.1206 175.099C47.0708 175.197 47.0165 175.268 46.9579 175.311C46.8998 175.347 46.8333 175.362 46.7584 175.355L34.776 174.311C34.4764 174.284 34.2684 174.191 34.1522 174.03C34.0297 173.861 33.9784 173.665 33.9981 173.44L34.5443 167.219C34.5497 167.158 34.5749 167.105 34.6199 167.061C34.6581 167.016 34.723 166.981 34.8145 166.955C34.8999 166.921 35.0146 166.903 35.1588 166.902C35.3036 166.894 35.4782 166.899 35.6825 166.917Z" fill="#EADAF7"/>
<path d="M50.087 152.147C50.3443 152.113 50.5454 152.1 50.6902 152.107C50.8351 152.114 50.9373 152.162 50.9967 152.25C51.0494 152.337 51.0641 152.475 51.0409 152.666C51.0244 152.858 50.9841 153.118 50.92 153.447C50.8532 153.789 50.7941 154.056 50.7428 154.248C50.6994 154.434 50.6545 154.575 50.608 154.671C50.5548 154.765 50.4975 154.827 50.4359 154.857C50.3744 154.887 50.2974 154.907 50.2049 154.917L47.4167 155.285L46.4626 160.176L48.8485 161.495C48.9372 161.54 49.0106 161.593 49.0685 161.653C49.1211 161.704 49.1577 161.785 49.1783 161.893C49.1935 161.994 49.1902 162.136 49.1683 162.319C49.1477 162.496 49.1092 162.729 49.0529 163.018C48.9927 163.326 48.9356 163.566 48.8814 163.737C48.8272 163.907 48.7567 164.019 48.6698 164.072C48.5762 164.123 48.4608 164.125 48.3238 164.078C48.1868 164.03 48.0087 163.943 47.7895 163.817L37.0162 157.563C36.9099 157.501 36.8285 157.437 36.7719 157.37C36.7085 157.302 36.6712 157.208 36.6599 157.087C36.6432 156.958 36.6517 156.79 36.6856 156.58C36.7128 156.37 36.7597 156.093 36.8264 155.751C36.9037 155.355 36.9719 155.041 37.0311 154.809C37.0836 154.575 37.1425 154.399 37.2076 154.279C37.2673 154.151 37.3393 154.068 37.4236 154.029C37.5092 153.982 37.6197 153.952 37.7551 153.936L50.087 152.147ZM39.3675 156.275L39.3655 156.285L44.543 159.199L45.2635 155.505L39.3675 156.275Z" fill="#EADAF7"/>
<path d="M44.2493 136.325C44.4379 136.386 44.5974 136.448 44.7276 136.512C44.8534 136.567 44.9533 136.625 45.0272 136.685C45.0947 136.742 45.1395 136.804 45.1615 136.868C45.1857 136.926 45.1883 136.985 45.1692 137.043L44.1393 140.202L54.3141 143.496C54.3791 143.517 54.4302 143.559 54.4674 143.621C54.5067 143.677 54.5267 143.759 54.5275 143.867C54.5282 143.975 54.5108 144.117 54.4752 144.292C54.4417 144.461 54.3847 144.669 54.3042 144.916C54.2237 145.163 54.1461 145.367 54.0715 145.53C53.999 145.686 53.9306 145.808 53.8663 145.895C53.802 145.982 53.7364 146.039 53.6695 146.068C53.6048 146.09 53.5399 146.091 53.4749 146.07L43.3001 142.775L42.2702 145.934C42.249 145.999 42.2115 146.048 42.1576 146.081C42.1037 146.114 42.0325 146.134 41.9439 146.141C41.8487 146.146 41.7329 146.137 41.5965 146.115C41.4557 146.083 41.291 146.037 41.1024 145.976C40.9073 145.913 40.7435 145.853 40.6112 145.796C40.481 145.732 40.3822 145.671 40.3147 145.613C40.2408 145.554 40.195 145.496 40.1773 145.44C40.1531 145.381 40.1516 145.32 40.1728 145.255L43.0718 136.364C43.0909 136.306 43.1273 136.26 43.1812 136.227C43.2307 136.186 43.303 136.162 43.3981 136.157C43.4867 136.15 43.6015 136.162 43.7423 136.193C43.8852 136.218 44.0542 136.262 44.2493 136.325Z" fill="#EADAF7"/>
<path d="M57.3231 122.798C58.3212 123.262 59.1559 123.801 59.8274 124.414C60.4988 125.028 60.9959 125.707 61.3188 126.453C61.6354 127.195 61.7699 127.997 61.7223 128.856C61.6714 129.707 61.4243 130.606 60.981 131.553C60.5435 132.488 60.0401 133.249 59.471 133.837C58.8985 134.415 58.2525 134.82 57.5331 135.051C56.8136 135.282 56.0114 135.335 55.1264 135.21C54.2442 135.079 53.2731 134.767 52.213 134.275C51.2397 133.822 50.4236 133.292 49.7646 132.685C49.0993 132.074 48.6084 131.397 48.2917 130.655C47.9751 129.912 47.8391 129.114 47.8838 128.26C47.9315 127.401 48.1784 126.494 48.6246 125.54C49.0505 124.63 49.5466 123.885 50.1129 123.304C50.682 122.716 51.3264 122.307 52.0458 122.076C52.7682 121.839 53.5687 121.781 54.4476 121.903C55.3231 122.016 56.2816 122.314 57.3231 122.798ZM56.2538 125.422C55.6214 125.128 55.0248 124.911 54.4639 124.771C53.8968 124.628 53.3739 124.593 52.8951 124.664C52.413 124.727 51.9801 124.91 51.5963 125.214C51.2063 125.515 50.8722 125.963 50.5941 126.557C50.313 127.158 50.193 127.713 50.2341 128.222C50.2689 128.728 50.4175 129.193 50.6797 129.616C50.942 130.039 51.3027 130.422 51.7618 130.763C52.2176 131.096 52.7275 131.393 53.2917 131.655C53.9488 131.961 54.564 132.186 55.1373 132.332C55.7044 132.475 56.229 132.515 56.7111 132.453C57.1931 132.39 57.6261 132.207 58.0099 131.903C58.3875 131.596 58.7168 131.142 58.9979 130.541C59.2789 129.941 59.402 129.388 59.3672 128.881C59.3323 128.375 59.1806 127.909 58.9122 127.483C58.6437 127.056 58.2785 126.676 57.8165 126.34C57.3512 125.996 56.8303 125.69 56.2538 125.422Z" fill="#EADAF7"/>
<path d="M66.5436 115.025C67.129 115.404 67.5717 115.845 67.8718 116.349C68.1719 116.852 68.3499 117.387 68.4057 117.952C68.4558 118.514 68.3931 119.092 68.2176 119.687C68.0421 120.282 67.7696 120.863 67.4001 121.43C67.15 121.813 66.8852 122.151 66.6056 122.442C66.3297 122.728 66.0666 122.969 65.8163 123.165C65.5602 123.357 65.3274 123.508 65.1179 123.617C64.9121 123.72 64.7476 123.784 64.6245 123.81C64.5014 123.837 64.3598 123.822 64.1996 123.768C64.0375 123.703 63.8244 123.586 63.5604 123.415C63.3825 123.3 63.237 123.198 63.124 123.108C63.0109 123.019 62.9245 122.938 62.8649 122.867C62.8089 122.79 62.7797 122.722 62.7771 122.664C62.7725 122.596 62.7889 122.533 62.8262 122.476C62.8785 122.396 63 122.315 63.1909 122.235C63.3798 122.146 63.6062 122.024 63.8703 121.869C64.1344 121.714 64.4179 121.511 64.7207 121.259C65.0215 120.998 65.3082 120.658 65.5806 120.24C65.7598 119.965 65.8887 119.698 65.9674 119.44C66.0404 119.178 66.0651 118.933 66.0416 118.706C66.0219 118.474 65.9492 118.26 65.8235 118.064C65.6979 117.869 65.526 117.701 65.3079 117.56C65.0554 117.396 64.7954 117.326 64.5279 117.348C64.2547 117.367 63.9764 117.443 63.6931 117.577C63.4078 117.702 63.1135 117.866 62.8101 118.068C62.5009 118.267 62.1804 118.471 61.8486 118.68C61.5168 118.889 61.1733 119.077 60.8183 119.247C60.4575 119.412 60.0838 119.529 59.6972 119.596C59.3086 119.654 58.903 119.644 58.4806 119.566C58.0582 119.488 57.6145 119.299 57.1496 118.998C56.6159 118.652 56.2116 118.252 55.9368 117.798C55.6599 117.334 55.4978 116.85 55.4502 116.347C55.4007 115.834 55.4574 115.309 55.6202 114.771C55.7868 114.228 56.0362 113.701 56.3684 113.192C56.5401 112.928 56.7318 112.678 56.9437 112.44C57.1556 112.203 57.3706 111.992 57.5887 111.807C57.8069 111.623 58.0169 111.47 58.2187 111.348C58.4205 111.226 58.5687 111.155 58.6634 111.135C58.7581 111.115 58.8312 111.109 58.8826 111.118C58.9377 111.121 59.0034 111.139 59.0797 111.172C59.154 111.196 59.2447 111.238 59.3518 111.299C59.4531 111.357 59.5783 111.434 59.7275 111.53C59.894 111.638 60.0308 111.735 60.1382 111.82C60.2492 111.9 60.3346 111.976 60.3942 112.047C60.4577 112.113 60.4935 112.177 60.5018 112.239C60.5139 112.296 60.4994 112.355 60.4583 112.418C60.4172 112.481 60.3118 112.556 60.1418 112.641C59.9719 112.727 59.7757 112.84 59.5533 112.981C59.3251 113.118 59.0878 113.294 58.8415 113.51C58.5895 113.721 58.3608 113.984 58.1555 114.299C57.9951 114.545 57.8867 114.781 57.8304 115.005C57.7683 115.225 57.7508 115.434 57.7777 115.63C57.8026 115.817 57.8691 115.991 57.9773 116.15C58.0892 116.304 58.2284 116.435 58.3948 116.543C58.6416 116.702 58.8997 116.776 59.1692 116.763C59.4367 116.74 59.715 116.664 60.004 116.533C60.291 116.394 60.591 116.221 60.9039 116.017C61.211 115.808 61.5305 115.6 61.8623 115.391C62.1941 115.182 62.5423 114.992 62.9068 114.821C63.2656 114.646 63.6412 114.527 64.0335 114.463C64.4201 114.396 64.8247 114.401 65.2471 114.479C65.6638 114.553 66.096 114.735 66.5436 115.025Z" fill="#EADAF7"/>
<path d="M81.5212 103.143C81.6687 103.276 81.7865 103.395 81.8745 103.501C81.962 103.598 82.0249 103.687 82.063 103.767C82.1012 103.847 82.1172 103.921 82.111 103.989C82.1044 104.048 82.0804 104.1 82.0392 104.145L77.5707 109.09C77.4195 109.258 77.2428 109.356 77.0407 109.386C76.8381 109.407 76.6249 109.316 76.401 109.115L67.792 101.391C67.5681 101.19 67.4582 100.991 67.4624 100.792C67.466 100.584 67.5435 100.397 67.6947 100.229L72.1357 95.3145C72.1769 95.2689 72.2263 95.2397 72.2838 95.227C72.3414 95.2143 72.4146 95.225 72.5037 95.259C72.5877 95.2884 72.6851 95.3437 72.7961 95.4249C72.9065 95.4964 73.038 95.6006 73.1907 95.7376C73.3331 95.8654 73.4484 95.9826 73.5364 96.0891C73.6239 96.186 73.6867 96.2745 73.7249 96.3546C73.763 96.4348 73.7813 96.5063 73.7797 96.5692C73.7731 96.6275 73.7492 96.6795 73.7079 96.7252L70.5319 100.24L72.9436 102.404L75.6316 99.4292C75.6728 99.3836 75.7247 99.3567 75.7874 99.3486C75.8495 99.3309 75.9225 99.3367 76.0065 99.3661C76.0854 99.391 76.1803 99.444 76.2912 99.5251C76.4016 99.5967 76.5281 99.6963 76.6705 99.8242C76.8181 99.9566 76.9333 100.074 77.0162 100.176C77.1038 100.273 77.1666 100.361 77.2047 100.441C77.2378 100.517 77.2487 100.586 77.2375 100.65C77.2308 100.708 77.2069 100.76 77.1656 100.806L74.4777 103.78L77.2634 106.28L80.467 102.735C80.5082 102.689 80.5601 102.662 80.6228 102.654C80.6849 102.636 80.7579 102.642 80.8419 102.671C80.9258 102.701 81.0233 102.756 81.1342 102.837C81.2446 102.909 81.3736 103.011 81.5212 103.143Z" fill="#EADAF7"/>
<path d="M96.7256 83.8654C97.4763 84.823 97.9928 85.7421 98.2749 86.6226C98.5583 87.4936 98.634 88.327 98.5022 89.1227C98.3703 89.9184 98.0474 90.681 97.5334 91.4103C97.0206 92.1301 96.3004 92.8511 95.3726 93.5734L92.8725 95.5198C92.6945 95.6584 92.5034 95.7249 92.2992 95.7193C92.0962 95.7041 91.9018 95.5781 91.7163 95.3414L84.5797 86.2392C84.3941 86.0025 84.3206 85.7868 84.3591 85.5922C84.3988 85.388 84.5077 85.2166 84.6857 85.0781L87.3719 82.9868C88.305 82.2603 89.1817 81.7553 90.0019 81.472C90.8233 81.179 91.6239 81.0756 92.4036 81.1616C93.1845 81.238 93.9377 81.5007 94.6631 81.9495C95.3885 82.3983 96.076 83.037 96.7256 83.8654ZM94.5818 85.6514C94.1937 85.1565 93.7738 84.7427 93.3219 84.4101C92.8754 84.0733 92.4004 83.8497 91.8968 83.7393C91.3987 83.6246 90.8799 83.6387 90.3403 83.7815C89.802 83.9147 89.2065 84.2354 88.5538 84.7435L87.4777 85.5813L93.0453 92.6824L94.1537 91.8194C94.7363 91.3659 95.1681 90.9084 95.4491 90.447C95.7302 89.9856 95.8848 89.5014 95.9129 88.9944C95.9422 88.4778 95.8444 87.9432 95.6195 87.3905C95.4001 86.8336 95.0542 86.2539 94.5818 85.6514Z" fill="#EADAF7"/>
<path d="M113.518 81.8522C113.713 82.0242 113.855 82.1672 113.945 82.2812C114.034 82.3952 114.065 82.5035 114.038 82.606C114.007 82.7027 113.912 82.8047 113.753 82.9119C113.597 83.0251 113.374 83.1652 113.084 83.3323C112.782 83.5061 112.541 83.6366 112.363 83.7236C112.193 83.8131 112.057 83.8717 111.955 83.8991C111.849 83.9207 111.764 83.918 111.701 83.8912C111.638 83.8643 111.573 83.8192 111.505 83.756L109.395 81.8941L105.075 84.3792L105.647 87.0432C105.671 87.1396 105.68 87.2293 105.673 87.3123C105.668 87.386 105.631 87.4662 105.563 87.5528C105.497 87.6301 105.388 87.7207 105.235 87.8246C105.087 87.925 104.886 88.0485 104.632 88.1951C104.359 88.3519 104.141 88.4658 103.976 88.5367C103.812 88.6076 103.681 88.6275 103.584 88.5965C103.484 88.5597 103.407 88.474 103.352 88.3395C103.298 88.2051 103.247 88.0139 103.198 87.766L100.843 75.5404C100.82 75.4194 100.815 75.3156 100.829 75.2292C100.838 75.1369 100.885 75.047 100.968 74.9594C101.055 74.8626 101.188 74.7584 101.368 74.6468C101.545 74.5293 101.784 74.3836 102.087 74.2097C102.436 74.0086 102.718 73.8543 102.932 73.7468C103.143 73.6334 103.315 73.5621 103.448 73.5328C103.584 73.4942 103.694 73.4938 103.779 73.5316C103.87 73.566 103.966 73.6291 104.067 73.7211L113.518 81.8522ZM103.36 76.4698L103.352 76.4749L104.552 82.2904L107.814 80.4138L103.36 76.4698Z" fill="#EADAF7"/>
<path d="M127.344 70.2305C127.801 71.3582 128.044 72.3842 128.072 73.3088C128.104 74.2244 127.947 75.0467 127.6 75.7756C127.254 76.5045 126.734 77.1489 126.039 77.7088C125.347 78.2598 124.456 78.7548 123.366 79.1939L120.426 80.3773C120.217 80.4615 120.015 80.4728 119.82 80.4112C119.63 80.3406 119.478 80.166 119.365 79.8873L115.019 69.1684C114.906 68.8897 114.894 68.662 114.985 68.4855C115.08 68.3001 115.232 68.1652 115.441 68.081L118.599 66.8096C119.696 66.3679 120.677 66.1237 121.544 66.0771C122.414 66.0216 123.211 66.1426 123.937 66.44C124.666 66.7286 125.317 67.1886 125.891 67.82C126.464 68.4514 126.948 69.2549 127.344 70.2305ZM124.791 71.3577C124.555 70.7749 124.266 70.2613 123.923 69.817C123.587 69.3701 123.192 69.0243 122.739 68.7794C122.292 68.5319 121.79 68.4026 121.232 68.3914C120.678 68.3712 120.017 68.5156 119.25 68.8245L117.985 69.3339L121.375 77.6961L122.678 77.1715C123.363 76.8957 123.904 76.5747 124.302 76.2084C124.699 75.8421 124.981 75.419 125.148 74.9392C125.319 74.4504 125.372 73.9093 125.309 73.3159C125.251 72.7199 125.079 72.0672 124.791 71.3577Z" fill="#EADAF7"/>
<path d="M145.171 67.2132C145.42 68.2853 145.509 69.275 145.438 70.182C145.368 71.0891 145.138 71.8995 144.749 72.6133C144.358 73.3204 143.81 73.9201 143.103 74.4124C142.401 74.8966 141.54 75.2559 140.521 75.4904C139.515 75.7218 138.606 75.7942 137.793 75.7077C136.985 75.613 136.269 75.3534 135.644 74.9289C135.019 74.5044 134.484 73.9051 134.038 73.1309C133.599 72.3551 133.247 71.3979 132.983 70.2591C132.741 69.2135 132.657 68.2439 132.73 67.3501C132.802 66.4497 133.034 65.646 133.424 64.9389C133.815 64.2317 134.36 63.6328 135.06 63.142C135.767 62.6497 136.634 62.2855 137.66 62.0495C138.639 61.8242 139.532 61.7556 140.338 61.8437C141.151 61.9302 141.87 62.1857 142.495 62.6102C143.126 63.0331 143.664 63.6284 144.108 64.3959C144.558 65.1553 144.912 66.0944 145.171 67.2132ZM142.446 67.9875C142.288 67.3082 142.092 66.7045 141.858 66.1763C141.622 65.6414 141.328 65.2074 140.977 64.8742C140.631 64.5329 140.221 64.3047 139.745 64.1897C139.268 64.068 138.709 64.0808 138.07 64.2279C137.424 64.3766 136.912 64.6239 136.537 64.9699C136.159 65.3093 135.884 65.7127 135.712 66.1803C135.539 66.6478 135.46 67.1676 135.473 67.7398C135.491 68.3037 135.571 68.8887 135.711 69.4947C135.875 70.2006 136.075 70.8244 136.313 71.3659C136.549 71.9008 136.84 72.3389 137.186 72.6802C137.532 73.0216 137.943 73.2497 138.418 73.3647C138.892 73.4731 139.453 73.453 140.099 73.3043C140.745 73.1556 141.257 72.9116 141.634 72.5722C142.012 72.2329 142.286 71.8261 142.457 71.3519C142.628 70.8777 142.703 70.3553 142.683 69.7847C142.668 69.2059 142.589 68.6068 142.446 67.9875Z" fill="#EADAF7"/>
<path d="M157.004 69.3519C157.077 70.0453 157.012 70.6673 156.809 71.2178C156.605 71.7683 156.302 72.2435 155.897 72.6433C155.492 73.0363 155.003 73.3521 154.43 73.5908C153.857 73.8295 153.234 73.9841 152.561 74.0546C152.105 74.1023 151.676 74.1094 151.274 74.0759C150.879 74.0417 150.526 73.9893 150.216 73.9187C149.906 73.8412 149.642 73.7554 149.426 73.6612C149.217 73.5663 149.063 73.4793 148.965 73.4002C148.868 73.321 148.79 73.202 148.732 73.0431C148.68 72.8767 148.638 72.6372 148.605 72.3245C148.582 72.1137 148.57 71.9363 148.569 71.7921C148.568 71.6479 148.576 71.5302 148.594 71.439C148.618 71.347 148.653 71.2816 148.697 71.2426C148.747 71.1961 148.806 71.1693 148.874 71.1622C148.969 71.1522 149.108 71.1961 149.29 71.2939C149.478 71.3841 149.715 71.483 150.002 71.5905C150.288 71.698 150.624 71.7899 151.01 71.8663C151.402 71.9352 151.847 71.9437 152.343 71.8917C152.669 71.8575 152.958 71.7895 153.208 71.6877C153.458 71.579 153.664 71.4441 153.825 71.2828C153.994 71.1208 154.115 70.9295 154.188 70.7087C154.26 70.488 154.283 70.2485 154.256 69.9902C154.225 69.6911 154.116 69.4447 153.931 69.251C153.745 69.0506 153.51 68.8826 153.228 68.7472C152.952 68.6043 152.639 68.479 152.291 68.3711C151.942 68.2564 151.582 68.136 151.212 68.0099C150.841 67.8838 150.478 67.7362 150.124 67.5671C149.768 67.3913 149.443 67.1745 149.148 66.9167C148.859 66.6514 148.612 66.3302 148.407 65.953C148.202 65.5758 148.071 65.1118 148.013 64.5612C147.946 63.929 148.003 63.3628 148.184 62.8627C148.371 62.3551 148.645 61.9243 149.007 61.5703C149.374 61.2088 149.818 60.9217 150.339 60.7091C150.866 60.4958 151.432 60.3574 152.037 60.294C152.35 60.2613 152.665 60.2523 152.983 60.2672C153.301 60.282 153.6 60.3159 153.881 60.369C154.161 60.4221 154.412 60.4886 154.634 60.5685C154.855 60.6484 155.004 60.7188 155.079 60.7797C155.154 60.8405 155.204 60.8937 155.23 60.9391C155.262 60.9839 155.289 61.0463 155.311 61.1265C155.339 61.1991 155.363 61.2963 155.383 61.4179C155.402 61.5328 155.421 61.6786 155.44 61.8554C155.46 62.0525 155.471 62.2198 155.472 62.3572C155.479 62.4938 155.474 62.6078 155.456 62.699C155.445 62.7895 155.418 62.8577 155.375 62.9034C155.338 62.9485 155.283 62.975 155.208 62.9828C155.133 62.9906 155.009 62.9555 154.836 62.8774C154.663 62.7993 154.451 62.7184 154.202 62.6345C153.952 62.5439 153.666 62.4707 153.344 62.4151C153.021 62.3527 152.673 62.3411 152.299 62.3802C152.006 62.4108 151.755 62.4749 151.546 62.5725C151.335 62.6633 151.162 62.7811 151.026 62.9259C150.896 63.0632 150.803 63.2242 150.747 63.4088C150.698 63.5926 150.683 63.7831 150.704 63.9803C150.735 64.2726 150.84 64.5194 151.019 64.7205C151.205 64.9142 151.439 65.0821 151.722 65.2243C152.011 65.359 152.334 65.4833 152.689 65.5972C153.044 65.7044 153.407 65.821 153.778 65.9472C154.149 66.0733 154.515 66.2239 154.877 66.3991C155.239 66.5674 155.568 66.7839 155.864 67.0484C156.159 67.3062 156.409 67.6237 156.614 68.0009C156.818 68.3713 156.948 68.8216 157.004 69.3519Z" fill="#EADAF7"/>
<path fill-rule="evenodd" clip-rule="evenodd" d="M248.846 97.3889L251.77 100.957L254.857 105.818L258.675 111.893L262.735 119.021L266.715 127.288L270.775 136.199L274.838 145.842L278.411 156.372L281.984 167.068L283.528 172.658L284.908 178.249L286.206 184.001L287.346 189.836L288.482 195.667L289.376 201.502L289.78 207.254L290.266 213.088L290.511 219.081V224.916L290.266 230.506L289.78 236.341L288.885 241.931L287.833 247.522L286.693 252.383L285.312 257.323L283.769 262.023L281.984 266.722L280.196 271.177L278.166 275.636L275.891 279.846L273.457 284.14L271.02 288.354L268.583 292.407L265.821 296.212L262.98 299.941L260.056 303.584L256.89 306.908L253.559 310.231L250.389 313.633L247.061 316.468L243.488 319.385L239.915 322.058L236.342 324.814L232.524 327.243L228.706 329.431L224.891 331.457L220.828 333.484L216.849 335.021L212.788 336.642L208.728 337.939L204.748 339.074L200.444 339.965L196.22 340.856L192.16 341.341L187.936 341.747L149.197 343.529L145.136 343.773L142.293 344.176L140.019 344.42L137.989 345.067L137.095 345.311H135.796L132.872 345.067L129.543 344.176L125.725 343.285L122.314 342.232L118.985 340.856L116.548 339.721L114.924 338.83L114.03 338.183L113.137 337.048L110.944 334.86L108.67 332.348L107.37 331.213L105.746 330.16L104.691 329.269L103.066 327.243L100.63 324.085L97.9497 320.115L94.5385 315.171L91.2088 309.34L87.3916 302.858L83.5745 295.727L79.5951 288.11L75.7779 279.846L72.2045 271.177L68.7933 262.023L65.707 252.624L63.027 242.984L61.8898 238.123L60.9968 233.424L60.1033 228.48L59.4536 223.619L58.5601 213.491L58.3164 203.93L58.5601 194.776L59.2099 186.027L60.347 177.764L61.8898 169.985L64.1638 162.369L66.6004 155.24L69.2804 148.755L72.4478 142.518L76.0213 136.443L79.7573 130.852L83.8182 125.747L88.2851 121.048L92.7519 116.348L97.4622 112.299L102.417 108.57L107.533 104.927L112.731 101.848L117.847 98.9303L123.208 96.4979L128.568 93.9866L134.009 92.0428L139.369 90.1782L144.73 88.8848L150.09 87.5051L155.288 86.6141L160.404 85.9674L165.358 85.3171L170.232 85.0764H174.698H179.246L191.754 85.5614H202.474L207.428 85.3171L211.651 85.0764L215.712 84.6704L219.529 83.9411L222.859 83.5351L225.782 82.6441L228.706 81.9147L231.143 81.0237L233.418 79.971L235.448 78.8357L237.233 77.7039L238.776 76.5686H239.021L239.183 76.8129V77.9446L239.429 79.7267L239.915 82.159L240.972 85.3171L241.7 87.1027L242.594 88.8848L243.73 90.9075L245.032 92.9339L246.816 95.1219L248.846 97.3889Z" fill="#8948D0" stroke="#D4B5EE" stroke-width="6.875" stroke-miterlimit="10" stroke-linejoin="round"/>
<path d="M86.8417 177.035C86.9068 177.056 86.9579 177.097 86.9951 177.16C87.0344 177.216 87.0544 177.297 87.0551 177.406C87.0559 177.514 87.0395 177.652 87.006 177.821C86.9726 177.99 86.9145 178.201 86.8319 178.454C86.7513 178.701 86.6738 178.906 86.5991 179.069C86.5267 179.225 86.4583 179.346 86.394 179.433C86.3296 179.52 86.2641 179.578 86.1972 179.607C86.1325 179.629 86.0676 179.629 86.0025 179.608L74.0815 175.749C74.0165 175.728 73.9643 175.689 73.925 175.633C73.8878 175.571 73.8689 175.486 73.8681 175.378C73.8695 175.263 73.8869 175.122 73.9204 174.953C73.9539 174.784 74.0109 174.576 74.0914 174.329C74.1741 174.076 74.2516 173.871 74.3241 173.715C74.3966 173.558 74.465 173.437 74.5293 173.35C74.5936 173.263 74.6581 173.208 74.7229 173.186C74.7897 173.158 74.8557 173.154 74.9207 173.175L86.8417 177.035Z" fill="#EADAF7"/>
<path d="M92.4197 163.481C92.5634 163.545 92.6804 163.626 92.7705 163.726C92.8607 163.826 92.9237 163.936 92.9597 164.057C92.9984 164.171 93.01 164.296 92.9945 164.431C92.9756 164.557 92.9396 164.68 92.8866 164.798L92.4181 165.847C92.3205 166.065 92.2136 166.246 92.0974 166.389C91.9839 166.526 91.8403 166.638 91.6665 166.725C91.4892 166.803 91.2758 166.862 91.0263 166.901C90.7706 166.937 90.4517 166.964 90.0695 166.981L83.052 167.48C82.6365 167.505 82.1946 167.522 81.7263 167.531C81.2518 167.538 80.7982 167.531 80.3653 167.511L80.357 167.529C80.818 167.704 81.2763 167.885 81.7318 168.072C82.181 168.256 82.6431 168.454 83.1179 168.665L89.4634 171.48C89.5259 171.508 89.5737 171.551 89.607 171.611C89.643 171.664 89.6603 171.743 89.6587 171.847C89.6537 171.942 89.6285 172.065 89.5831 172.217C89.5377 172.369 89.4648 172.557 89.3645 172.782C89.2668 173.001 89.1766 173.177 89.0937 173.313C89.0108 173.448 88.9356 173.549 88.8682 173.616C88.7944 173.681 88.7256 173.718 88.6616 173.727C88.5977 173.736 88.5345 173.726 88.472 173.699L77.5714 168.862C77.2777 168.732 77.0966 168.551 77.0282 168.319C76.9563 168.077 76.9762 167.832 77.0877 167.582L77.6775 166.262C77.7835 166.025 77.8946 165.835 78.0108 165.692C78.1208 165.546 78.2506 165.432 78.4001 165.349C78.5524 165.259 78.738 165.196 78.9569 165.158C79.1695 165.118 79.4242 165.093 79.7209 165.082L85.2083 164.69C85.5384 164.672 85.8639 164.655 86.1849 164.641C86.5024 164.617 86.8203 164.601 87.1385 164.593C87.4505 164.582 87.7579 164.572 88.0609 164.564C88.3638 164.557 88.6653 164.552 88.9654 164.551L88.9696 164.541C88.5239 164.366 88.0607 164.179 87.5803 163.981C87.1026 163.777 86.6482 163.579 86.217 163.387L80.5277 160.863C80.4652 160.836 80.4174 160.792 80.3841 160.732C80.3508 160.673 80.335 160.591 80.3365 160.487C80.3381 160.383 80.3647 160.256 80.4163 160.107C80.4617 159.955 80.5346 159.767 80.635 159.542C80.7298 159.33 80.8187 159.156 80.9015 159.021C80.9782 158.883 81.052 158.785 81.1229 158.727C81.1967 158.662 81.2655 158.626 81.3294 158.617C81.3934 158.607 81.4566 158.617 81.5191 158.645L92.4197 163.481Z" fill="#EADAF7"/>
<path d="M90.1202 146.281C90.2903 146.383 90.4316 146.479 90.5442 146.57C90.6544 146.652 90.7388 146.731 90.7974 146.806C90.8501 146.877 90.88 146.947 90.8869 147.015C90.8974 147.077 90.8868 147.134 90.855 147.187L89.1395 150.032L98.3153 155.526C98.3739 155.561 98.4144 155.613 98.4366 155.682C98.4623 155.745 98.4634 155.83 98.4398 155.935C98.4161 156.04 98.3672 156.174 98.293 156.337C98.2224 156.494 98.12 156.684 97.9859 156.906C97.8517 157.129 97.73 157.311 97.6206 157.452C97.5148 157.588 97.4207 157.691 97.3384 157.762C97.2561 157.832 97.1792 157.873 97.1076 157.886C97.0395 157.893 96.9761 157.879 96.9174 157.844L87.7416 152.35L86.0261 155.195C85.9908 155.254 85.9432 155.293 85.8833 155.313C85.8234 155.333 85.7494 155.336 85.6614 155.323C85.5675 155.307 85.4566 155.273 85.3287 155.22C85.1985 155.158 85.0484 155.076 84.8783 154.974C84.7023 154.869 84.5563 154.773 84.4402 154.688C84.3276 154.597 84.245 154.515 84.1922 154.444C84.1336 154.369 84.102 154.302 84.0974 154.244C84.0869 154.182 84.0993 154.121 84.1346 154.063L88.9635 146.054C88.9953 146.002 89.0411 145.965 89.101 145.945C89.1586 145.916 89.2343 145.91 89.3282 145.926C89.4163 145.939 89.5254 145.976 89.6556 146.038C89.7894 146.095 89.9442 146.175 90.1202 146.281Z" fill="#EADAF7"/>
<path d="M105.862 144.85C106.021 144.969 106.148 145.077 106.245 145.176C106.341 145.265 106.411 145.347 106.456 145.424C106.501 145.5 106.524 145.573 106.523 145.641C106.522 145.7 106.503 145.754 106.465 145.803L102.445 151.119C102.309 151.299 102.142 151.412 101.943 151.46C101.743 151.498 101.523 151.426 101.282 151.246L92.0332 144.301C91.7926 144.12 91.6658 143.931 91.6527 143.733C91.6382 143.525 91.699 143.332 91.835 143.152L95.8304 137.868C95.8675 137.819 95.9142 137.786 95.9704 137.768C96.0266 137.75 96.1005 137.755 96.1922 137.781C96.2784 137.803 96.3803 137.849 96.4979 137.921C96.6141 137.982 96.7542 138.075 96.9182 138.198C97.0713 138.313 97.1963 138.419 97.2932 138.518C97.3888 138.607 97.4591 138.689 97.5041 138.766C97.5491 138.842 97.5736 138.912 97.5775 138.975C97.576 139.034 97.5566 139.087 97.5195 139.137L94.6621 142.915L97.2532 144.861L99.6715 141.663C99.7086 141.614 99.758 141.582 99.8196 141.569C99.88 141.546 99.9532 141.545 100.039 141.567C100.12 141.585 100.219 141.63 100.337 141.701C100.453 141.763 100.588 141.851 100.741 141.966C100.899 142.085 101.024 142.191 101.116 142.286C101.211 142.375 101.282 142.457 101.327 142.534C101.366 142.606 101.383 142.675 101.378 142.739C101.376 142.797 101.357 142.851 101.32 142.9L98.9013 146.098L101.894 148.346L104.776 144.534C104.813 144.485 104.863 144.454 104.924 144.44C104.985 144.417 105.058 144.417 105.144 144.439C105.23 144.461 105.332 144.507 105.45 144.579C105.566 144.64 105.704 144.731 105.862 144.85Z" fill="#EADAF7"/>
<path d="M116.315 135.308C116.37 135.359 116.408 135.413 116.43 135.47C116.446 135.523 116.432 135.598 116.387 135.696C116.342 135.794 116.257 135.92 116.131 136.075C116.006 136.229 115.826 136.43 115.593 136.68C115.397 136.89 115.235 137.052 115.108 137.168C114.981 137.283 114.871 137.367 114.775 137.418C114.68 137.46 114.598 137.478 114.53 137.47C114.457 137.458 114.381 137.434 114.302 137.399L111.319 136.25C110.975 136.127 110.662 136.027 110.378 135.95C110.094 135.873 109.831 135.838 109.59 135.847C109.347 135.845 109.119 135.895 108.904 135.994C108.69 136.093 108.484 136.247 108.288 136.457L107.714 137.071L111.417 140.512C111.467 140.559 111.496 140.618 111.503 140.69C111.515 140.757 111.498 140.84 111.453 140.938C111.408 141.036 111.335 141.155 111.233 141.293C111.132 141.432 110.99 141.599 110.807 141.793C110.63 141.983 110.473 142.136 110.336 142.252C110.205 142.363 110.091 142.444 109.996 142.495C109.901 142.547 109.819 142.569 109.751 142.562C109.683 142.555 109.624 142.528 109.574 142.481L100.748 134.28C100.528 134.075 100.421 133.873 100.429 133.675C100.436 133.467 100.517 133.281 100.671 133.116L103.018 130.608C103.256 130.354 103.458 130.149 103.622 129.993C103.786 129.838 103.939 129.7 104.08 129.579C104.499 129.241 104.921 128.98 105.346 128.796C105.775 128.607 106.201 128.508 106.622 128.498C107.043 128.479 107.457 128.551 107.865 128.715C108.268 128.875 108.662 129.134 109.048 129.492C109.373 129.795 109.632 130.114 109.823 130.45C110.013 130.777 110.139 131.118 110.2 131.473C110.261 131.828 110.259 132.195 110.195 132.574C110.13 132.953 110.006 133.336 109.821 133.724C110.026 133.644 110.237 133.589 110.454 133.557C110.676 133.52 110.911 133.514 111.159 133.54C111.406 133.555 111.67 133.599 111.948 133.671C112.222 133.739 112.518 133.832 112.837 133.952L115.517 134.915C115.777 135.017 115.964 135.098 116.077 135.157C116.186 135.211 116.265 135.261 116.315 135.308ZM107.345 131.717C107.024 131.42 106.686 131.241 106.33 131.181C105.975 131.121 105.598 131.213 105.199 131.459C105.081 131.536 104.953 131.632 104.817 131.748C104.685 131.858 104.514 132.026 104.304 132.251L103.477 133.134L106.234 135.696L107.173 134.693C107.434 134.413 107.631 134.138 107.762 133.868C107.888 133.593 107.956 133.33 107.967 133.079C107.972 132.823 107.923 132.581 107.818 132.353C107.713 132.125 107.555 131.913 107.345 131.717Z" fill="#EADAF7"/>
<path d="M125.021 127.43C125.151 127.579 125.254 127.712 125.328 127.828C125.403 127.935 125.455 128.031 125.483 128.115C125.511 128.199 125.518 128.275 125.503 128.341C125.49 128.398 125.46 128.447 125.413 128.487L120.375 132.851C120.205 132.999 120.017 133.075 119.813 133.08C119.61 133.076 119.409 132.96 119.211 132.734L111.608 124.018C111.41 123.791 111.325 123.579 111.354 123.383C111.383 123.177 111.482 123 111.653 122.853L116.66 118.516C116.706 118.475 116.759 118.452 116.817 118.447C116.876 118.441 116.948 118.461 117.032 118.505C117.112 118.545 117.202 118.612 117.302 118.706C117.403 118.79 117.52 118.91 117.655 119.064C117.781 119.208 117.881 119.339 117.956 119.455C118.031 119.562 118.082 119.657 118.11 119.742C118.138 119.826 118.148 119.899 118.139 119.961C118.125 120.018 118.095 120.067 118.048 120.107L114.468 123.209L116.598 125.651L119.628 123.026C119.675 122.985 119.729 122.965 119.793 122.965C119.856 122.955 119.928 122.969 120.008 123.009C120.083 123.043 120.171 123.107 120.271 123.201C120.372 123.286 120.485 123.4 120.611 123.544C120.741 123.694 120.842 123.824 120.911 123.935C120.986 124.042 121.038 124.138 121.066 124.222C121.09 124.301 121.092 124.371 121.073 124.433C121.06 124.49 121.029 124.539 120.983 124.579L117.953 127.204L120.413 130.024L124.025 126.896C124.071 126.855 124.126 126.835 124.189 126.835C124.253 126.825 124.325 126.839 124.404 126.879C124.484 126.918 124.574 126.985 124.674 127.079C124.775 127.163 124.891 127.28 125.021 127.43Z" fill="#EADAF7"/>
<path d="M133.728 118.521C134.118 119.098 134.354 119.677 134.433 120.258C134.513 120.839 134.468 121.4 134.298 121.943C134.125 122.479 133.841 122.987 133.447 123.466C133.053 123.945 132.575 124.373 132.014 124.75C131.633 125.006 131.258 125.213 130.887 125.372C130.521 125.527 130.185 125.646 129.878 125.729C129.567 125.806 129.294 125.854 129.058 125.872C128.829 125.886 128.652 125.882 128.528 125.858C128.405 125.834 128.28 125.765 128.154 125.652C128.03 125.53 127.88 125.338 127.703 125.078C127.585 124.902 127.491 124.751 127.421 124.625C127.352 124.498 127.304 124.391 127.277 124.302C127.256 124.209 127.255 124.135 127.276 124.08C127.298 124.016 127.338 123.965 127.394 123.926C127.474 123.873 127.617 123.847 127.824 123.848C128.033 123.839 128.289 123.815 128.593 123.776C128.896 123.737 129.237 123.66 129.614 123.547C129.993 123.424 130.389 123.223 130.804 122.945C131.076 122.762 131.299 122.566 131.472 122.359C131.642 122.146 131.76 121.931 131.827 121.713C131.9 121.491 131.917 121.266 131.877 121.037C131.838 120.808 131.745 120.586 131.6 120.371C131.431 120.122 131.219 119.955 130.964 119.871C130.706 119.782 130.42 119.743 130.106 119.756C129.795 119.76 129.46 119.795 129.102 119.863C128.739 119.925 128.365 119.988 127.978 120.05C127.591 120.113 127.201 120.152 126.808 120.169C126.411 120.181 126.021 120.142 125.639 120.053C125.259 119.954 124.89 119.787 124.531 119.55C124.173 119.313 123.838 118.965 123.528 118.507C123.172 117.98 122.956 117.454 122.88 116.928C122.807 116.393 122.847 115.884 122.999 115.403C123.154 114.912 123.411 114.451 123.771 114.019C124.137 113.584 124.573 113.197 125.077 112.857C125.338 112.682 125.613 112.526 125.901 112.39C126.188 112.255 126.469 112.144 126.742 112.06C127.015 111.975 127.268 111.916 127.501 111.883C127.734 111.85 127.899 111.842 127.994 111.861C128.089 111.879 128.158 111.902 128.202 111.931C128.252 111.955 128.305 111.997 128.362 112.058C128.422 112.108 128.488 112.183 128.563 112.281C128.634 112.373 128.719 112.493 128.819 112.64C128.93 112.805 129.018 112.947 129.083 113.068C129.154 113.185 129.203 113.288 129.23 113.377C129.263 113.462 129.271 113.535 129.255 113.595C129.244 113.652 129.207 113.702 129.144 113.744C129.082 113.785 128.956 113.813 128.766 113.825C128.576 113.837 128.351 113.865 128.092 113.908C127.828 113.945 127.541 114.014 127.23 114.116C126.915 114.212 126.602 114.365 126.29 114.575C126.046 114.739 125.854 114.913 125.715 115.097C125.572 115.276 125.474 115.461 125.422 115.653C125.372 115.835 125.365 116.02 125.402 116.209C125.445 116.395 125.522 116.569 125.633 116.733C125.798 116.977 126.007 117.145 126.26 117.239C126.515 117.323 126.801 117.361 127.118 117.354C127.437 117.337 127.781 117.296 128.149 117.23C128.513 117.158 128.888 117.091 129.275 117.028C129.662 116.966 130.057 116.927 130.46 116.912C130.858 116.891 131.25 116.928 131.637 117.023C132.019 117.112 132.389 117.275 132.747 117.512C133.102 117.743 133.429 118.079 133.728 118.521Z" fill="#EADAF7"/>
<path d="M144.814 113.5C145.121 114.126 145.273 114.733 145.271 115.319C145.269 115.905 145.146 116.455 144.902 116.969C144.656 117.476 144.305 117.94 143.848 118.359C143.391 118.779 142.858 119.137 142.25 119.432C141.838 119.633 141.437 119.786 141.047 119.891C140.664 119.994 140.314 120.065 139.999 120.105C139.68 120.138 139.403 120.147 139.167 120.132C138.938 120.115 138.764 120.085 138.645 120.044C138.526 120.003 138.412 119.918 138.303 119.789C138.197 119.65 138.075 119.44 137.937 119.157C137.843 118.967 137.771 118.804 137.721 118.669C137.67 118.534 137.637 118.421 137.623 118.329C137.614 118.234 137.624 118.161 137.652 118.11C137.683 118.049 137.73 118.004 137.791 117.974C137.877 117.932 138.023 117.926 138.228 117.956C138.435 117.976 138.692 117.988 138.998 117.991C139.304 117.995 139.652 117.966 140.041 117.906C140.434 117.837 140.854 117.693 141.303 117.475C141.598 117.332 141.846 117.17 142.047 116.989C142.244 116.801 142.391 116.604 142.488 116.398C142.591 116.188 142.639 115.967 142.632 115.735C142.625 115.503 142.564 115.27 142.45 115.037C142.318 114.767 142.131 114.572 141.891 114.454C141.647 114.329 141.369 114.251 141.057 114.22C140.748 114.18 140.412 114.169 140.047 114.187C139.68 114.198 139.3 114.208 138.909 114.216C138.517 114.224 138.125 114.209 137.734 114.171C137.339 114.127 136.959 114.034 136.593 113.893C136.23 113.743 135.888 113.525 135.566 113.241C135.244 112.956 134.961 112.566 134.718 112.068C134.439 111.497 134.298 110.946 134.297 110.415C134.299 109.874 134.409 109.376 134.627 108.92C134.849 108.455 135.168 108.034 135.584 107.657C136.007 107.277 136.492 106.954 137.039 106.688C137.322 106.55 137.615 106.434 137.919 106.34C138.223 106.245 138.516 106.175 138.798 106.129C139.08 106.083 139.339 106.06 139.574 106.06C139.81 106.059 139.974 106.075 140.065 106.106C140.157 106.138 140.222 106.17 140.262 106.205C140.307 106.236 140.354 106.285 140.403 106.353C140.454 106.411 140.51 106.494 140.57 106.602C140.628 106.703 140.695 106.834 140.773 106.993C140.861 107.171 140.928 107.325 140.976 107.454C141.03 107.579 141.064 107.688 141.079 107.78C141.099 107.869 141.097 107.942 141.072 108C141.053 108.054 141.01 108.098 140.942 108.131C140.875 108.164 140.746 108.173 140.556 108.159C140.367 108.145 140.14 108.141 139.877 108.147C139.611 108.147 139.317 108.176 138.995 108.234C138.67 108.286 138.338 108.393 138 108.558C137.736 108.686 137.522 108.832 137.358 108.995C137.191 109.152 137.069 109.322 136.991 109.504C136.916 109.678 136.883 109.861 136.894 110.053C136.911 110.243 136.963 110.426 137.05 110.604C137.179 110.868 137.362 111.064 137.6 111.192C137.841 111.311 138.118 111.388 138.433 111.425C138.751 111.453 139.097 111.46 139.471 111.446C139.841 111.425 140.222 111.411 140.614 111.403C141.006 111.395 141.402 111.411 141.803 111.452C142.2 111.487 142.584 111.578 142.953 111.726C143.319 111.867 143.663 112.08 143.985 112.364C144.303 112.643 144.58 113.021 144.814 113.5Z" fill="#EADAF7"/>
<path d="M157.308 113.372C157.366 113.562 157.406 113.725 157.426 113.862C157.451 113.99 157.459 114.098 157.451 114.187C157.442 114.275 157.418 114.347 157.377 114.402C157.342 114.448 157.294 114.481 157.235 114.499L150.86 116.441C150.644 116.507 150.442 116.5 150.253 116.422C150.069 116.335 149.933 116.148 149.845 115.86L146.452 104.803C146.364 104.515 146.373 104.288 146.479 104.12C146.589 103.943 146.752 103.822 146.968 103.756L153.304 101.826C153.363 101.808 153.42 101.808 153.476 101.827C153.532 101.846 153.589 101.892 153.648 101.967C153.705 102.036 153.76 102.134 153.813 102.26C153.871 102.378 153.93 102.536 153.99 102.732C154.046 102.915 154.084 103.074 154.105 103.211C154.13 103.339 154.138 103.448 154.129 103.536C154.121 103.624 154.1 103.695 154.066 103.748C154.03 103.795 153.983 103.827 153.924 103.845L149.392 105.226L150.343 108.323L154.178 107.155C154.237 107.137 154.295 107.141 154.353 107.166C154.415 107.183 154.475 107.225 154.532 107.294C154.586 107.356 154.64 107.45 154.693 107.577C154.751 107.695 154.808 107.846 154.864 108.028C154.922 108.218 154.961 108.378 154.979 108.508C155.004 108.636 155.012 108.744 155.004 108.833C154.993 108.915 154.967 108.98 154.924 109.029C154.889 109.075 154.841 109.107 154.782 109.125L150.947 110.294L152.045 113.872L156.616 112.479C156.675 112.461 156.733 112.465 156.791 112.49C156.853 112.507 156.913 112.55 156.969 112.618C157.026 112.687 157.081 112.784 157.134 112.911C157.192 113.029 157.25 113.183 157.308 113.372Z" fill="#EADAF7"/>
<path d="M169.041 108.504C169.174 109.189 169.164 109.814 169.009 110.38C168.855 110.946 168.594 111.445 168.226 111.879C167.856 112.306 167.397 112.663 166.847 112.95C166.297 113.238 165.69 113.446 165.025 113.575C164.576 113.662 164.149 113.706 163.745 113.708C163.349 113.708 162.993 113.686 162.678 113.643C162.361 113.593 162.092 113.53 161.868 113.455C161.651 113.379 161.49 113.305 161.386 113.235C161.282 113.165 161.194 113.053 161.122 112.9C161.056 112.738 160.993 112.503 160.933 112.195C160.892 111.987 160.865 111.811 160.851 111.668C160.837 111.524 160.834 111.406 160.844 111.314C160.861 111.22 160.889 111.152 160.93 111.109C160.976 111.059 161.032 111.027 161.099 111.014C161.193 110.995 161.335 111.027 161.525 111.109C161.721 111.182 161.966 111.26 162.26 111.342C162.555 111.425 162.898 111.487 163.289 111.529C163.686 111.564 164.129 111.534 164.619 111.439C164.941 111.377 165.223 111.284 165.463 111.161C165.703 111.031 165.896 110.878 166.043 110.704C166.197 110.528 166.3 110.327 166.354 110.1C166.407 109.874 166.409 109.634 166.359 109.379C166.301 109.083 166.172 108.847 165.97 108.671C165.767 108.487 165.519 108.34 165.226 108.23C164.938 108.112 164.616 108.014 164.26 107.937C163.902 107.853 163.533 107.764 163.153 107.671C162.772 107.577 162.398 107.462 162.03 107.324C161.661 107.18 161.318 106.992 161.001 106.761C160.69 106.522 160.415 106.223 160.178 105.865C159.942 105.507 159.77 105.057 159.664 104.513C159.542 103.889 159.55 103.32 159.686 102.806C159.828 102.285 160.064 101.832 160.393 101.448C160.727 101.056 161.145 100.731 161.645 100.474C162.151 100.216 162.703 100.029 163.301 99.913C163.609 99.8532 163.923 99.8169 164.241 99.8041C164.558 99.7912 164.86 99.7991 165.144 99.8276C165.428 99.8561 165.684 99.9005 165.911 99.9609C166.139 100.021 166.293 100.078 166.373 100.133C166.453 100.187 166.508 100.235 166.537 100.278C166.573 100.32 166.606 100.38 166.635 100.458C166.67 100.528 166.702 100.622 166.732 100.742C166.761 100.855 166.793 100.998 166.827 101.173C166.865 101.367 166.89 101.533 166.903 101.67C166.922 101.805 166.927 101.919 166.917 102.012C166.914 102.103 166.893 102.173 166.854 102.222C166.822 102.27 166.768 102.302 166.695 102.316C166.621 102.33 166.494 102.306 166.315 102.243C166.135 102.18 165.918 102.118 165.662 102.056C165.405 101.988 165.113 101.94 164.788 101.912C164.461 101.878 164.113 101.897 163.743 101.968C163.455 102.024 163.21 102.11 163.01 102.225C162.808 102.334 162.646 102.466 162.523 102.622C162.406 102.771 162.327 102.939 162.288 103.128C162.255 103.315 162.257 103.506 162.295 103.701C162.351 103.989 162.477 104.226 162.674 104.411C162.875 104.588 163.123 104.734 163.418 104.851C163.718 104.96 164.05 105.056 164.414 105.139C164.777 105.215 165.149 105.299 165.529 105.393C165.91 105.486 166.288 105.605 166.664 105.748C167.039 105.884 167.385 106.071 167.703 106.309C168.02 106.54 168.297 106.834 168.534 107.192C168.77 107.544 168.938 107.981 169.041 108.504Z" fill="#EADAF7"/>
<path fill-rule="evenodd" clip-rule="evenodd" d="M224.761 123.803L225.897 125.1L227.278 126.886L228.334 128.912L229.719 131.183L232.398 136.781L235.08 143.266L237.517 150.645L240.038 158.92L241.988 167.837L244.018 177.247L245.807 186.814L246.946 196.871L247.84 206.927L248.327 217.062V221.93V226.878L247.84 231.821L247.433 236.445L246.946 241.148L246.052 245.611L245.158 250.152L244.018 254.366L241.826 261.261L239.144 267.99L236.22 274.479L232.805 280.968L229.066 287.212L225.003 293.05L220.778 298.889L216.228 304.242L211.352 309.189L206.395 313.809L201.031 318.11L195.668 321.918L190.06 325.245L184.453 327.922L181.528 329.298L178.602 330.354L175.677 331.245L172.832 331.975L157.799 335.542L148.372 337.978L142.115 340.005L137.401 341.787L135.613 342.275L133.338 342.437H130.9L128.219 342.275L123.505 341.546L119.929 340.896L119.036 340.49L118.142 340.005L116.354 338.869L114.322 337.572L112.047 336.193L111.64 335.302L110.503 333.272L109.203 329.948L107.577 325.49L105.789 320.136L104.002 313.648L101.97 306.43L100.02 298.644L97.9882 290.129L96.2005 281.208L94.5752 271.802L93.2747 262.235L92.1371 252.096L91.4871 242.039V231.987V227.118L91.7308 222.171L92.3809 215.927L93.0309 209.683L94.1688 203.844L95.3064 198.25L96.8506 192.897L98.3945 187.709L100.182 182.841L102.214 178.138L104.489 173.679L106.684 169.217L109.365 165.164L111.885 161.352L114.566 157.54L117.491 154.213L120.336 150.807L123.505 147.728L126.674 144.807L129.762 142.13L133.175 139.698L136.264 137.183L139.677 134.995L143.008 132.969L146.34 131.183L149.754 129.642L153.085 128.021L156.417 126.724L159.83 125.589L162.918 124.695L166.088 123.803L169.176 123.157L175.27 122.021L183.072 121.127L189.817 119.992L195.668 118.856L200.544 117.559L205.094 116.424L208.832 115.044L215.333 112.856H216.065L216.715 113.262L217.365 114.153L218.259 115.533L219.153 117.315L220.534 119.345L222.322 121.533L224.761 123.803Z" fill="#A46DDB" stroke="#D4B5EE" stroke-width="6.875" stroke-miterlimit="10" stroke-linejoin="round"/>
<path d="M114.118 198.96C114.774 199.197 115.304 199.528 115.71 199.951C116.116 200.375 116.41 200.856 116.591 201.394C116.767 201.931 116.836 202.508 116.799 203.128C116.762 203.747 116.627 204.374 116.395 205.01C116.238 205.44 116.056 205.829 115.849 206.175C115.645 206.516 115.443 206.81 115.243 207.057C115.037 207.303 114.844 207.502 114.665 207.655C114.488 207.801 114.342 207.901 114.228 207.954C114.114 208.008 113.973 208.025 113.804 208.008C113.632 207.982 113.398 207.915 113.102 207.808C112.903 207.736 112.738 207.669 112.608 207.607C112.478 207.545 112.376 207.486 112.302 207.43C112.23 207.368 112.186 207.308 112.17 207.252C112.15 207.186 112.152 207.122 112.176 207.057C112.209 206.967 112.309 206.862 112.477 206.741C112.641 206.612 112.834 206.442 113.056 206.231C113.278 206.021 113.509 205.759 113.747 205.446C113.981 205.123 114.184 204.728 114.355 204.259C114.468 203.951 114.533 203.662 114.551 203.392C114.563 203.12 114.533 202.877 114.459 202.661C114.387 202.438 114.268 202.246 114.102 202.084C113.935 201.922 113.73 201.796 113.486 201.708C113.203 201.605 112.934 201.595 112.678 201.677C112.416 201.756 112.163 201.893 111.917 202.088C111.667 202.274 111.417 202.499 111.167 202.765C110.911 203.028 110.645 203.299 110.369 203.577C110.092 203.855 109.8 204.116 109.493 204.361C109.179 204.603 108.841 204.801 108.479 204.953C108.114 205.097 107.717 205.178 107.288 205.197C106.859 205.216 106.384 205.131 105.863 204.942C105.266 204.726 104.782 204.427 104.412 204.045C104.038 203.655 103.771 203.22 103.611 202.74C103.448 202.252 103.384 201.727 103.422 201.166C103.462 200.599 103.586 200.03 103.795 199.458C103.903 199.163 104.033 198.876 104.186 198.597C104.339 198.318 104.501 198.064 104.672 197.835C104.842 197.606 105.013 197.409 105.182 197.245C105.351 197.081 105.479 196.979 105.567 196.938C105.655 196.897 105.724 196.875 105.776 196.872C105.831 196.863 105.899 196.866 105.981 196.881C106.058 196.887 106.156 196.908 106.274 196.944C106.386 196.977 106.525 197.024 106.692 197.084C106.879 197.152 107.034 197.215 107.158 197.275C107.284 197.328 107.384 197.382 107.458 197.438C107.535 197.488 107.584 197.542 107.606 197.601C107.631 197.654 107.63 197.715 107.604 197.786C107.578 197.857 107.492 197.953 107.346 198.074C107.2 198.196 107.034 198.35 106.849 198.537C106.658 198.723 106.467 198.948 106.275 199.213C106.077 199.475 105.914 199.783 105.785 200.137C105.684 200.413 105.631 200.666 105.627 200.897C105.616 201.126 105.646 201.333 105.717 201.519C105.783 201.696 105.887 201.85 106.028 201.981C106.172 202.106 106.337 202.202 106.523 202.269C106.8 202.37 107.068 202.383 107.327 202.31C107.583 202.228 107.836 202.091 108.089 201.899C108.337 201.698 108.59 201.463 108.849 201.193C109.101 200.921 109.365 200.646 109.641 200.368C109.917 200.09 110.214 199.827 110.53 199.578C110.84 199.327 111.179 199.126 111.547 198.976C111.908 198.823 112.304 198.738 112.733 198.719C113.155 198.698 113.617 198.778 114.118 198.96Z" fill="#EADAF7"/>
<path d="M121.279 191.056C121.459 191.14 121.607 191.22 121.722 191.296C121.834 191.363 121.92 191.429 121.98 191.495C122.04 191.56 122.077 191.627 122.091 191.693C122.101 191.751 122.094 191.808 122.068 191.864L119.243 197.9C119.147 198.105 119.007 198.251 118.823 198.338C118.635 198.417 118.405 198.393 118.132 198.266L107.642 193.392C107.37 193.265 107.206 193.107 107.152 192.916C107.095 192.716 107.114 192.513 107.21 192.309L110.017 186.31C110.043 186.254 110.082 186.211 110.133 186.183C110.185 186.154 110.258 186.142 110.353 186.149C110.442 186.152 110.551 186.177 110.681 186.222C110.807 186.258 110.963 186.32 111.149 186.406C111.323 186.487 111.467 186.565 111.583 186.641C111.695 186.708 111.781 186.775 111.841 186.84C111.901 186.906 111.939 186.969 111.956 187.029C111.967 187.087 111.959 187.144 111.933 187.2L109.925 191.49L112.863 192.856L114.563 189.224C114.589 189.169 114.631 189.128 114.688 189.102C114.742 189.067 114.814 189.051 114.903 189.054C114.985 189.055 115.092 189.078 115.221 189.123C115.348 189.16 115.498 189.218 115.671 189.299C115.851 189.382 115.996 189.461 116.105 189.534C116.217 189.601 116.303 189.667 116.363 189.733C116.416 189.796 116.447 189.859 116.455 189.923C116.466 189.98 116.458 190.037 116.432 190.093L114.733 193.724L118.127 195.301L120.152 190.974C120.178 190.918 120.22 190.877 120.277 190.851C120.331 190.816 120.403 190.8 120.492 190.804C120.581 190.807 120.69 190.832 120.82 190.877C120.946 190.913 121.099 190.973 121.279 191.056Z" fill="#EADAF7"/>
<path d="M128.895 179.336C129.03 179.417 129.136 179.512 129.213 179.623C129.29 179.733 129.34 179.85 129.36 179.974C129.385 180.092 129.381 180.217 129.349 180.35C129.315 180.472 129.265 180.59 129.197 180.701L128.604 181.684C128.481 181.889 128.353 182.055 128.22 182.183C128.091 182.305 127.934 182.398 127.751 182.464C127.566 182.52 127.347 182.552 127.094 182.561C126.836 182.565 126.516 182.553 126.134 182.524L119.107 182.165C118.691 182.139 118.251 182.102 117.785 182.054C117.313 182.003 116.863 181.941 116.436 181.868L116.426 181.886C116.862 182.115 117.295 182.35 117.724 182.591C118.148 182.829 118.582 183.081 119.028 183.348L124.984 186.914C125.043 186.949 125.085 186.999 125.11 187.062C125.14 187.119 125.147 187.199 125.133 187.302C125.116 187.396 125.076 187.515 125.013 187.661C124.949 187.806 124.854 187.984 124.727 188.195C124.603 188.399 124.492 188.564 124.393 188.688C124.294 188.812 124.207 188.903 124.132 188.962C124.051 189.017 123.978 189.045 123.914 189.046C123.849 189.047 123.788 189.031 123.729 188.995L113.497 182.869C113.222 182.704 113.064 182.502 113.025 182.264C112.983 182.015 113.032 181.774 113.174 181.54L113.92 180.302C114.054 180.079 114.188 179.904 114.321 179.777C114.448 179.646 114.59 179.548 114.749 179.483C114.911 179.413 115.103 179.373 115.325 179.362C115.541 179.348 115.797 179.354 116.093 179.38L121.588 179.658C121.918 179.681 122.243 179.704 122.564 179.729C122.882 179.744 123.199 179.767 123.516 179.797C123.827 179.824 124.134 179.852 124.435 179.881C124.737 179.91 125.037 179.943 125.335 179.978L125.34 179.969C124.919 179.741 124.482 179.499 124.029 179.244C123.58 178.983 123.153 178.731 122.748 178.489L117.408 175.291C117.35 175.256 117.307 175.207 117.282 175.144C117.256 175.081 117.25 174.997 117.264 174.894C117.279 174.791 117.321 174.669 117.39 174.527C117.454 174.382 117.549 174.204 117.676 173.994C117.796 173.795 117.905 173.633 118.004 173.509C118.097 173.381 118.182 173.293 118.26 173.244C118.341 173.189 118.414 173.16 118.478 173.159C118.543 173.158 118.605 173.175 118.663 173.21L128.895 179.336Z" fill="#EADAF7"/>
<path d="M127.268 163.64C127.427 163.759 127.557 163.87 127.66 163.973C127.761 164.066 127.837 164.153 127.887 164.233C127.932 164.31 127.954 164.382 127.954 164.45C127.958 164.513 127.942 164.569 127.905 164.618L125.901 167.268L134.453 173.69C134.507 173.731 134.542 173.787 134.557 173.858C134.576 173.923 134.568 174.007 134.534 174.11C134.499 174.212 134.437 174.34 134.346 174.494C134.259 174.643 134.137 174.821 133.981 175.028C133.824 175.235 133.684 175.404 133.56 175.533C133.441 175.657 133.337 175.75 133.247 175.811C133.158 175.872 133.077 175.905 133.005 175.911C132.936 175.911 132.875 175.89 132.82 175.849L124.268 169.427L122.264 172.077C122.223 172.132 122.171 172.166 122.11 172.179C122.048 172.193 121.974 172.188 121.888 172.166C121.796 172.14 121.689 172.094 121.568 172.029C121.445 171.953 121.304 171.856 121.145 171.737C120.981 171.614 120.846 171.504 120.74 171.407C120.637 171.304 120.563 171.215 120.518 171.138C120.468 171.058 120.444 170.988 120.445 170.929C120.441 170.866 120.46 170.808 120.501 170.753L126.142 163.294C126.179 163.245 126.228 163.214 126.29 163.2C126.35 163.177 126.426 163.179 126.518 163.205C126.604 163.227 126.709 163.276 126.832 163.351C126.959 163.421 127.104 163.517 127.268 163.64Z" fill="#EADAF7"/>
<path d="M139.151 168.486C139.202 168.531 139.233 168.589 139.243 168.661C139.257 168.728 139.244 168.811 139.202 168.91C139.161 169.01 139.091 169.131 138.994 169.273C138.898 169.415 138.762 169.587 138.586 169.788C138.416 169.984 138.264 170.142 138.132 170.262C138.004 170.378 137.893 170.463 137.8 170.518C137.707 170.573 137.624 170.6 137.551 170.6C137.483 170.595 137.423 170.571 137.371 170.526L127.9 162.322C127.848 162.277 127.815 162.221 127.801 162.155C127.791 162.083 127.807 161.997 127.848 161.897C127.895 161.793 127.966 161.669 128.063 161.527C128.16 161.385 128.293 161.216 128.464 161.02C128.639 160.819 128.791 160.661 128.919 160.546C129.047 160.43 129.157 160.345 129.251 160.29C129.344 160.235 129.425 160.21 129.493 160.215C129.566 160.215 129.628 160.237 129.68 160.282L139.151 168.486Z" fill="#EADAF7"/>
<path d="M151.776 156.525C151.824 156.574 151.852 156.632 151.86 156.7C151.874 156.763 151.855 156.842 151.805 156.938C151.76 157.029 151.685 157.139 151.581 157.267C151.478 157.396 151.334 157.547 151.152 157.723C150.975 157.893 150.82 158.028 150.687 158.127C150.555 158.226 150.442 158.297 150.35 158.339C150.257 158.38 150.177 158.396 150.109 158.385C150.041 158.374 149.984 158.344 149.936 158.295L142.422 150.541L142.407 150.556L147.144 160.968C147.186 161.051 147.206 161.136 147.205 161.223C147.198 161.305 147.168 161.396 147.113 161.496C147.063 161.592 146.981 161.699 146.867 161.818C146.759 161.941 146.621 162.084 146.453 162.245C146.286 162.406 146.136 162.536 146.003 162.635C145.875 162.739 145.76 162.817 145.658 162.868C145.555 162.91 145.463 162.932 145.38 162.935C145.298 162.939 145.223 162.921 145.156 162.881L134.974 157.708L134.96 157.722L142.474 165.476C142.521 165.525 142.549 165.584 142.558 165.651C142.571 165.714 142.553 165.794 142.503 165.889C142.453 165.985 142.376 166.097 142.272 166.226C142.173 166.349 142.032 166.499 141.85 166.674C141.673 166.845 141.518 166.98 141.385 167.079C141.253 167.178 141.138 167.251 141.04 167.297C140.947 167.339 140.867 167.354 140.799 167.344C140.737 167.328 140.682 167.296 140.634 167.247L132.406 158.757C132.164 158.506 132.045 158.251 132.049 157.99C132.054 157.73 132.167 157.493 132.389 157.279L133.659 156.057C133.886 155.839 134.1 155.671 134.3 155.554C134.496 155.432 134.696 155.358 134.9 155.333C135.099 155.302 135.307 155.32 135.523 155.387C135.735 155.449 135.971 155.554 136.23 155.703L143.8 159.39L143.83 159.361L140.485 151.637C140.349 151.369 140.249 151.128 140.185 150.915C140.126 150.697 140.103 150.496 140.116 150.313C140.134 150.125 140.195 149.948 140.3 149.781C140.4 149.609 140.541 149.435 140.723 149.259L142.031 148.001C142.164 147.873 142.294 147.781 142.42 147.725C142.552 147.665 142.681 147.641 142.807 147.653C142.933 147.655 143.058 147.691 143.183 147.76C143.307 147.821 143.429 147.912 143.548 148.035L151.776 156.525Z" fill="#EADAF7"/>
<path d="M159.301 150.762C159.421 150.92 159.514 151.06 159.58 151.181C159.647 151.293 159.692 151.392 159.714 151.478C159.736 151.564 159.738 151.64 159.719 151.705C159.701 151.761 159.668 151.808 159.619 151.845L154.289 155.847C154.109 155.982 153.916 156.045 153.712 156.036C153.51 156.017 153.317 155.888 153.136 155.648L146.16 146.423C145.978 146.183 145.908 145.966 145.95 145.772C145.994 145.568 146.105 145.399 146.286 145.263L151.583 141.286C151.632 141.249 151.686 141.23 151.745 141.228C151.804 141.227 151.874 141.251 151.955 141.302C152.031 141.347 152.116 141.42 152.21 141.52C152.305 141.612 152.414 141.739 152.538 141.903C152.653 142.055 152.744 142.192 152.81 142.314C152.877 142.425 152.922 142.524 152.944 142.61C152.966 142.696 152.971 142.77 152.957 142.831C152.939 142.887 152.906 142.934 152.857 142.971L149.069 145.815L151.023 148.4L154.229 145.992C154.278 145.955 154.334 145.939 154.397 145.943C154.462 145.937 154.532 145.957 154.609 146.002C154.682 146.041 154.765 146.112 154.858 146.212C154.953 146.304 155.058 146.426 155.173 146.578C155.293 146.736 155.384 146.873 155.446 146.989C155.513 147.101 155.558 147.2 155.58 147.286C155.598 147.367 155.596 147.437 155.572 147.497C155.555 147.553 155.521 147.599 155.472 147.636L152.266 150.044L154.524 153.029L158.345 150.16C158.394 150.123 158.45 150.106 158.513 150.11C158.577 150.105 158.648 150.124 158.725 150.169C158.801 150.214 158.887 150.287 158.98 150.388C159.075 150.479 159.182 150.604 159.301 150.762Z" fill="#EADAF7"/>
<path d="M170.366 145.103C170.445 145.239 170.492 145.374 170.506 145.508C170.52 145.642 170.506 145.768 170.464 145.887C170.429 146.002 170.365 146.11 170.273 146.21C170.183 146.301 170.082 146.379 169.969 146.443L168.974 147.016C168.767 147.135 168.574 147.219 168.396 147.266C168.224 147.31 168.042 147.316 167.85 147.284C167.66 147.244 167.453 147.166 167.228 147.05C167 146.929 166.726 146.764 166.407 146.553L160.435 142.832C160.084 142.608 159.716 142.362 159.332 142.094C158.944 141.82 158.581 141.548 158.243 141.278L158.225 141.288C158.495 141.7 158.76 142.116 159.018 142.535C159.273 142.948 159.531 143.379 159.792 143.829L163.272 149.835C163.306 149.894 163.319 149.958 163.311 150.026C163.309 150.09 163.277 150.164 163.214 150.247C163.154 150.321 163.061 150.406 162.935 150.502C162.809 150.598 162.64 150.708 162.426 150.83C162.219 150.95 162.042 151.04 161.895 151.1C161.749 151.161 161.629 151.199 161.534 151.213C161.437 151.222 161.359 151.212 161.302 151.181C161.245 151.151 161.2 151.106 161.165 151.047L155.187 140.729C155.026 140.451 154.986 140.198 155.067 139.97C155.151 139.732 155.311 139.545 155.548 139.409L156.801 138.688C157.027 138.558 157.228 138.47 157.406 138.423C157.581 138.37 157.753 138.353 157.923 138.374C158.099 138.391 158.286 138.449 158.485 138.547C158.681 138.639 158.902 138.769 159.148 138.935L163.82 141.843C164.097 142.022 164.37 142.2 164.639 142.377C164.91 142.544 165.176 142.718 165.439 142.898C165.698 143.073 165.952 143.246 166.202 143.418C166.451 143.59 166.698 143.763 166.942 143.938L166.951 143.933C166.693 143.529 166.428 143.106 166.156 142.663C165.889 142.217 165.638 141.79 165.402 141.382L162.281 135.997C162.247 135.937 162.234 135.874 162.242 135.806C162.25 135.738 162.285 135.663 162.348 135.58C162.41 135.496 162.506 135.41 162.636 135.32C162.762 135.223 162.931 135.114 163.145 134.991C163.346 134.875 163.52 134.787 163.667 134.726C163.81 134.66 163.927 134.624 164.019 134.618C164.116 134.61 164.194 134.62 164.251 134.651C164.308 134.681 164.353 134.726 164.388 134.785L170.366 145.103Z" fill="#EADAF7"/>
<path d="M177.1 130.779C177.175 130.963 177.229 131.125 177.264 131.266C177.303 131.397 177.323 131.511 177.325 131.606C177.324 131.695 177.306 131.768 177.271 131.827C177.242 131.883 177.198 131.922 177.141 131.945L174.06 133.186L178.078 143.097C178.104 143.16 178.105 143.226 178.081 143.295C178.063 143.361 178.013 143.429 177.931 143.499C177.849 143.569 177.729 143.647 177.572 143.732C177.421 143.815 177.225 143.905 176.984 144.002C176.743 144.099 176.537 144.171 176.364 144.218C176.198 144.263 176.061 144.289 175.953 144.295C175.845 144.302 175.758 144.289 175.693 144.256C175.635 144.221 175.593 144.171 175.567 144.108L171.548 134.197L168.467 135.438C168.403 135.463 168.342 135.466 168.282 135.446C168.222 135.426 168.161 135.384 168.098 135.321C168.033 135.251 167.965 135.157 167.895 135.038C167.828 134.91 167.758 134.754 167.683 134.57C167.606 134.38 167.547 134.216 167.506 134.078C167.471 133.937 167.454 133.823 167.455 133.734C167.453 133.639 167.468 133.566 167.5 133.517C167.529 133.461 167.575 133.42 167.638 133.395L176.313 129.902C176.37 129.879 176.429 129.878 176.488 129.898C176.552 129.909 176.616 129.95 176.681 130.019C176.744 130.082 176.808 130.178 176.875 130.306C176.948 130.431 177.023 130.589 177.1 130.779Z" fill="#EADAF7"/>
<path d="M192.572 133.321C192.82 134.394 192.909 135.383 192.839 136.29C192.768 137.197 192.538 138.008 192.149 138.721C191.759 139.429 191.21 140.028 190.503 140.521C189.801 141.005 188.941 141.364 187.922 141.599C186.916 141.83 186.006 141.902 185.193 141.816C184.385 141.721 183.669 141.462 183.044 141.037C182.42 140.613 181.885 140.013 181.439 139.239C180.999 138.463 180.648 137.506 180.384 136.367C180.142 135.322 180.057 134.352 180.131 133.458C180.203 132.558 180.434 131.754 180.825 131.047C181.215 130.34 181.761 129.741 182.461 129.25C183.168 128.758 184.034 128.394 185.06 128.158C186.039 127.932 186.932 127.864 187.739 127.952C188.552 128.038 189.27 128.294 189.895 128.718C190.526 129.141 191.064 129.737 191.509 130.504C191.958 131.263 192.313 132.203 192.572 133.321ZM189.846 134.096C189.689 133.416 189.493 132.813 189.258 132.284C189.022 131.75 188.728 131.316 188.378 130.982C188.032 130.641 187.621 130.413 187.145 130.298C186.668 130.176 186.11 130.189 185.47 130.336C184.824 130.485 184.313 130.732 183.937 131.078C183.559 131.417 183.285 131.821 183.112 132.288C182.94 132.756 182.86 133.276 182.874 133.848C182.892 134.412 182.971 134.997 183.112 135.603C183.275 136.309 183.476 136.933 183.714 137.474C183.95 138.009 184.241 138.447 184.587 138.788C184.932 139.13 185.343 139.358 185.819 139.473C186.293 139.581 186.853 139.561 187.499 139.412C188.146 139.264 188.657 139.02 189.035 138.68C189.412 138.341 189.686 137.934 189.857 137.46C190.028 136.986 190.104 136.463 190.084 135.893C190.069 135.314 189.99 134.715 189.846 134.096Z" fill="#EADAF7"/>
<path d="M201.697 135.015C201.722 135.712 201.613 136.328 201.372 136.863C201.131 137.398 200.795 137.851 200.363 138.222C199.931 138.586 199.421 138.867 198.833 139.065C198.245 139.263 197.613 139.374 196.936 139.398C196.479 139.414 196.05 139.391 195.651 139.33C195.259 139.268 194.911 139.191 194.607 139.099C194.303 139 194.046 138.896 193.837 138.787C193.635 138.678 193.488 138.581 193.396 138.495C193.304 138.409 193.234 138.285 193.188 138.123C193.148 137.953 193.122 137.711 193.111 137.397C193.104 137.185 193.104 137.007 193.113 136.863C193.121 136.719 193.138 136.602 193.162 136.513C193.193 136.423 193.232 136.36 193.279 136.324C193.332 136.281 193.393 136.258 193.461 136.256C193.556 136.253 193.692 136.306 193.867 136.416C194.048 136.519 194.278 136.635 194.556 136.762C194.834 136.889 195.163 137.004 195.543 137.107C195.929 137.203 196.372 137.242 196.87 137.225C197.198 137.213 197.491 137.166 197.748 137.081C198.005 136.99 198.219 136.87 198.392 136.72C198.571 136.571 198.705 136.388 198.793 136.173C198.881 135.958 198.921 135.721 198.912 135.461C198.901 135.16 198.81 134.907 198.639 134.701C198.467 134.488 198.246 134.304 197.973 134.15C197.708 133.988 197.405 133.841 197.065 133.709C196.725 133.57 196.375 133.425 196.014 133.274C195.653 133.122 195.301 132.95 194.959 132.756C194.617 132.556 194.308 132.317 194.031 132.04C193.761 131.755 193.538 131.417 193.36 131.027C193.182 130.636 193.083 130.164 193.064 129.611C193.042 128.976 193.138 128.415 193.354 127.928C193.576 127.435 193.879 127.024 194.265 126.696C194.657 126.361 195.12 126.106 195.654 125.93C196.195 125.754 196.769 125.655 197.377 125.634C197.692 125.623 198.007 125.636 198.323 125.673C198.639 125.71 198.935 125.764 199.211 125.837C199.487 125.909 199.733 125.993 199.948 126.088C200.163 126.183 200.307 126.264 200.377 126.33C200.448 126.396 200.494 126.452 200.517 126.499C200.546 126.546 200.568 126.61 200.585 126.692C200.608 126.766 200.625 126.865 200.636 126.988C200.647 127.104 200.656 127.25 200.662 127.428C200.669 127.626 200.668 127.794 200.659 127.931C200.657 128.068 200.644 128.181 200.62 128.271C200.602 128.36 200.57 128.426 200.524 128.469C200.484 128.511 200.427 128.534 200.352 128.537C200.277 128.539 200.156 128.495 199.988 128.406C199.821 128.316 199.616 128.22 199.373 128.119C199.13 128.011 198.849 127.918 198.532 127.841C198.214 127.756 197.868 127.72 197.492 127.733C197.198 127.743 196.943 127.79 196.727 127.873C196.511 127.949 196.33 128.054 196.184 128.189C196.045 128.317 195.941 128.471 195.872 128.651C195.81 128.831 195.783 129.02 195.79 129.219C195.8 129.512 195.887 129.766 196.052 129.979C196.224 130.185 196.445 130.369 196.718 130.53C196.997 130.685 197.31 130.831 197.657 130.97C198.003 131.101 198.357 131.243 198.718 131.394C199.079 131.546 199.434 131.722 199.783 131.922C200.132 132.115 200.445 132.353 200.721 132.638C200.998 132.916 201.225 133.25 201.403 133.64C201.581 134.024 201.679 134.482 201.697 135.015Z" fill="#EADAF7"/>
<path fill-rule="evenodd" clip-rule="evenodd" d="M115.497 345.545L114.765 342.462L112.977 333.301L112.082 326.977L111.188 319.598L110.294 311.571L109.642 302.654L109.4 293.007L109.155 282.955L109.642 272.658L110.049 267.304L110.536 262.199L111.188 256.846L111.92 251.658L112.977 246.308L114.112 241.199L115.497 236.011L117.04 230.902L118.828 225.958L120.862 221.011L122.892 216.391L125.088 211.688L127.363 207.391L129.804 203.175L132.241 198.878L134.923 195.149L140.126 187.527L145.736 180.555L151.343 174.312L156.953 168.718L162.563 163.854L167.928 159.8L173.293 156.233L178.251 153.314L180.688 152.179L183.129 151.287L185.159 150.638L187.438 149.99L189.388 149.503H191.177H193.044L194.591 149.746L196.134 150.152L197.274 150.638L198.409 151.773L199.466 152.827L200.605 154.692L201.499 156.476L202.393 158.665L203.125 161.34L204.427 167.178L205.563 173.907L206.215 181.447L206.702 189.554L206.864 197.986L206.702 206.742L206.215 215.417L205.563 224.417L204.427 232.928L203.125 240.955L201.337 248.579L199.303 255.47L198.168 258.631L197.028 261.47L193.452 268.846L189.388 276.71L184.917 284.331L180.039 292.116L174.591 299.737L169.226 307.113L163.457 314.004L157.847 320.492L151.995 326.571L146.14 332.165L143.216 334.598L140.371 336.868L137.444 338.816L134.761 340.68L132.079 342.218L129.396 343.515L126.876 344.65L124.439 345.301L121.998 345.786L119.723 346.03H117.447L115.497 345.545Z" fill="#EADAF7" stroke="#D4B5EE" stroke-width="6.875" stroke-miterlimit="10" stroke-linejoin="round"/>
<path d="M145.881 222.135C145.971 222.217 146.037 222.298 146.081 222.38C146.118 222.459 146.128 222.563 146.111 222.692C146.088 222.817 146.033 222.976 145.946 223.17C145.865 223.366 145.749 223.618 145.599 223.925C145.479 224.17 145.372 224.381 145.279 224.556C145.195 224.728 145.116 224.872 145.044 224.989C144.972 225.106 144.904 225.198 144.84 225.266C144.779 225.328 144.717 225.377 144.653 225.414C144.592 225.446 144.529 225.465 144.465 225.471C144.398 225.469 144.318 225.461 144.226 225.446L131.913 223.851C131.655 223.817 131.458 223.778 131.319 223.734C131.184 223.683 131.104 223.606 131.079 223.503C131.05 223.39 131.075 223.239 131.153 223.048C131.224 222.855 131.341 222.593 131.504 222.261C131.642 221.979 131.756 221.761 131.847 221.607C131.937 221.454 132.019 221.341 132.091 221.27C132.164 221.199 132.239 221.163 132.315 221.162C132.395 221.156 132.488 221.159 132.596 221.173L143.219 222.745L143.224 222.736L135.459 215.439C135.367 215.364 135.299 215.293 135.255 215.226C135.206 215.157 135.183 215.07 135.189 214.966C135.197 214.856 135.235 214.715 135.304 214.543C135.373 214.372 135.478 214.141 135.619 213.853C135.757 213.57 135.873 213.357 135.967 213.212C136.063 213.062 136.162 212.977 136.263 212.957C136.361 212.929 136.468 212.958 136.585 213.045C136.705 213.127 136.855 213.256 137.034 213.435L145.881 222.135Z" fill="#A46DDB"/>
<path d="M153.707 209.103C153.96 209.163 154.153 209.223 154.285 209.281C154.418 209.34 154.496 209.421 154.52 209.524C154.538 209.624 154.502 209.759 154.412 209.928C154.328 210.101 154.197 210.329 154.019 210.613C153.834 210.909 153.683 211.137 153.566 211.297C153.458 211.456 153.366 211.571 153.288 211.644C153.204 211.713 153.129 211.75 153.06 211.756C152.992 211.762 152.913 211.753 152.823 211.729L150.086 211.075L147.439 215.297L149.194 217.381C149.261 217.455 149.31 217.53 149.343 217.607C149.373 217.674 149.379 217.762 149.359 217.87C149.337 217.969 149.283 218.101 149.197 218.264C149.114 218.422 148.994 218.626 148.838 218.875C148.671 219.141 148.532 219.344 148.42 219.484C148.308 219.624 148.202 219.703 148.102 219.721C147.996 219.735 147.888 219.696 147.777 219.603C147.666 219.509 147.53 219.365 147.371 219.169L139.552 209.481C139.475 209.384 139.422 209.295 139.393 209.213C139.358 209.127 139.357 209.025 139.39 208.909C139.421 208.783 139.489 208.628 139.596 208.445C139.697 208.258 139.84 208.017 140.025 207.722C140.24 207.38 140.416 207.112 140.555 206.916C140.688 206.717 140.806 206.573 140.91 206.485C141.011 206.387 141.109 206.335 141.202 206.329C141.298 206.316 141.412 206.327 141.544 206.361L153.707 209.103ZM142.211 209.119L142.206 209.128L145.996 213.699L147.995 210.51L142.211 209.119Z" fill="#A46DDB"/>
<path d="M159.537 202.235C159.701 202.358 159.835 202.471 159.937 202.574C160.038 202.667 160.117 202.755 160.173 202.84C160.223 202.921 160.248 202.995 160.248 203.064C160.252 203.126 160.233 203.185 160.192 203.239L156.524 208.089C156.388 208.269 156.221 208.383 156.022 208.43C155.822 208.468 155.602 208.397 155.361 208.216L145.727 200.982C145.672 200.941 145.635 200.887 145.616 200.822C145.602 200.751 145.611 200.664 145.646 200.562C145.68 200.46 145.741 200.334 145.828 200.186C145.918 200.031 146.042 199.851 146.199 199.644C146.36 199.431 146.5 199.263 146.619 199.139C146.739 199.015 146.843 198.922 146.932 198.861C147.022 198.799 147.1 198.769 147.169 198.769C147.241 198.764 147.305 198.782 147.36 198.823L155.895 205.232L158.413 201.903C158.454 201.849 158.505 201.815 158.567 201.801C158.627 201.778 158.703 201.78 158.795 201.806C158.881 201.828 158.986 201.876 159.109 201.952C159.231 202.017 159.373 202.112 159.537 202.235Z" fill="#A46DDB"/>
<path d="M165.305 187.756C166.124 188.491 166.766 189.25 167.228 190.032C167.691 190.815 167.968 191.61 168.059 192.417C168.145 193.219 168.039 194.024 167.742 194.832C167.444 195.631 166.945 196.418 166.244 197.194C165.552 197.96 164.847 198.54 164.131 198.936C163.414 199.321 162.678 199.519 161.922 199.53C161.166 199.54 160.383 199.357 159.573 198.979C158.767 198.596 157.93 198.014 157.059 197.233C156.261 196.517 155.635 195.771 155.182 194.998C154.724 194.22 154.453 193.429 154.367 192.627C154.281 191.825 154.385 191.022 154.677 190.219C154.974 189.411 155.476 188.616 156.181 187.835C156.855 187.09 157.548 186.522 158.26 186.132C158.976 185.737 159.712 185.534 160.468 185.523C161.228 185.508 162.011 185.686 162.816 186.06C163.621 186.424 164.451 186.989 165.305 187.756ZM163.515 189.952C162.996 189.486 162.488 189.104 161.993 188.806C161.492 188.504 161.002 188.317 160.523 188.246C160.044 188.164 159.576 188.213 159.12 188.392C158.659 188.566 158.208 188.896 157.768 189.383C157.324 189.875 157.047 190.37 156.937 190.869C156.822 191.363 156.828 191.851 156.955 192.332C157.082 192.813 157.316 193.284 157.655 193.745C157.994 194.196 158.395 194.629 158.858 195.044C159.397 195.528 159.92 195.924 160.425 196.231C160.926 196.533 161.416 196.725 161.896 196.806C162.375 196.887 162.843 196.838 163.299 196.66C163.75 196.477 164.198 196.139 164.642 195.647C165.087 195.155 165.367 194.662 165.481 194.168C165.596 193.674 165.587 193.184 165.455 192.698C165.323 192.212 165.085 191.742 164.741 191.286C164.397 190.821 163.988 190.376 163.515 189.952Z" fill="#A46DDB"/>
<path d="M178.081 184.267C178.132 184.321 178.167 184.378 178.184 184.437C178.197 184.49 178.177 184.564 178.126 184.659C178.074 184.754 177.98 184.874 177.844 185.019C177.708 185.164 177.515 185.352 177.265 185.585C177.054 185.78 176.882 185.931 176.747 186.038C176.613 186.144 176.496 186.22 176.398 186.265C176.3 186.3 176.217 186.311 176.15 186.299C176.077 186.282 176.003 186.253 175.927 186.212L173.031 184.858C172.697 184.711 172.391 184.589 172.114 184.493C171.836 184.396 171.576 184.344 171.334 184.335C171.093 184.317 170.861 184.35 170.64 184.434C170.419 184.518 170.204 184.658 169.993 184.853L169.377 185.426L172.832 189.117C172.878 189.166 172.903 189.228 172.905 189.3C172.912 189.368 172.89 189.449 172.838 189.544C172.787 189.639 172.705 189.752 172.594 189.883C172.483 190.014 172.33 190.171 172.134 190.352C171.944 190.529 171.777 190.671 171.633 190.777C171.493 190.878 171.374 190.951 171.276 190.996C171.178 191.041 171.095 191.057 171.027 191.045C170.96 191.033 170.903 191.002 170.856 190.952L162.624 182.155C162.418 181.936 162.326 181.727 162.347 181.53C162.369 181.323 162.463 181.143 162.628 180.989L165.144 178.651C165.4 178.414 165.615 178.223 165.789 178.08C165.964 177.936 166.126 177.809 166.275 177.698C166.717 177.39 167.156 177.159 167.593 177.006C168.034 176.847 168.466 176.778 168.887 176.797C169.308 176.807 169.716 176.908 170.111 177.101C170.502 177.288 170.877 177.574 171.237 177.959C171.541 178.283 171.776 178.619 171.943 178.968C172.111 179.307 172.212 179.656 172.248 180.014C172.284 180.373 172.257 180.739 172.166 181.112C172.076 181.486 171.925 181.86 171.713 182.234C171.923 182.168 172.138 182.128 172.357 182.111C172.58 182.09 172.815 182.101 173.061 182.143C173.306 182.176 173.566 182.238 173.839 182.33C174.107 182.416 174.396 182.53 174.706 182.671L177.312 183.82C177.564 183.939 177.745 184.033 177.854 184.099C177.959 184.161 178.034 184.217 178.081 184.267ZM169.383 180.059C169.084 179.74 168.759 179.538 168.409 179.453C168.058 179.368 167.675 179.435 167.261 179.652C167.137 179.72 167.003 179.807 166.859 179.913C166.72 180.014 166.538 180.17 166.312 180.379L165.426 181.203L167.997 183.951L169.004 183.015C169.284 182.755 169.499 182.494 169.649 182.234C169.794 181.969 169.88 181.711 169.908 181.461C169.932 181.206 169.899 180.961 169.81 180.726C169.722 180.491 169.579 180.269 169.383 180.059Z" fill="#A46DDB"/>
<path d="M185.637 177.654C185.759 177.81 185.854 177.948 185.922 178.068C185.992 178.179 186.038 178.277 186.062 178.362C186.085 178.448 186.088 178.524 186.071 178.59C186.054 178.646 186.021 178.693 185.973 178.731L180.714 182.825C180.536 182.964 180.344 183.03 180.14 183.025C179.937 183.009 179.743 182.883 179.557 182.647L172.421 173.544C172.235 173.308 172.162 173.092 172.2 172.898C172.24 172.693 172.349 172.522 172.527 172.383L177.753 168.314C177.802 168.276 177.856 168.256 177.915 168.254C177.973 168.251 178.044 168.274 178.126 168.323C178.203 168.367 178.29 168.438 178.385 168.537C178.481 168.627 178.592 168.753 178.719 168.914C178.837 169.065 178.93 169.2 178.998 169.32C179.068 169.431 179.114 169.529 179.138 169.614C179.161 169.7 179.167 169.774 179.155 169.835C179.138 169.892 179.105 169.939 179.057 169.976L175.319 172.887L177.318 175.437L180.482 172.974C180.53 172.936 180.586 172.918 180.649 172.921C180.713 172.915 180.784 172.933 180.862 172.977C180.935 173.015 181.019 173.083 181.115 173.183C181.211 173.272 181.318 173.392 181.436 173.543C181.558 173.699 181.652 173.834 181.716 173.949C181.785 174.06 181.831 174.158 181.855 174.243C181.874 174.324 181.873 174.394 181.851 174.454C181.834 174.511 181.802 174.558 181.753 174.596L178.59 177.058L180.899 180.004L184.669 177.068C184.718 177.031 184.774 177.013 184.837 177.016C184.901 177.009 184.972 177.028 185.05 177.071C185.127 177.115 185.213 177.186 185.309 177.285C185.405 177.375 185.514 177.498 185.637 177.654Z" fill="#A46DDB"/>
<path d="M193.498 169.978C193.879 170.563 194.104 171.146 194.173 171.728C194.242 172.31 194.188 172.871 194.009 173.41C193.826 173.943 193.533 174.446 193.131 174.918C192.729 175.39 192.244 175.81 191.676 176.178C191.291 176.426 190.912 176.627 190.538 176.779C190.17 176.928 189.831 177.041 189.523 177.119C189.211 177.191 188.937 177.233 188.701 177.248C188.471 177.258 188.295 177.25 188.172 177.224C188.048 177.198 187.925 177.127 187.801 177.012C187.679 176.887 187.532 176.693 187.36 176.43C187.245 176.252 187.153 176.1 187.086 175.972C187.02 175.844 186.973 175.736 186.948 175.646C186.928 175.553 186.929 175.479 186.95 175.425C186.974 175.361 187.014 175.31 187.072 175.273C187.152 175.221 187.296 175.197 187.503 175.202C187.711 175.197 187.968 175.177 188.272 175.143C188.576 175.109 188.918 175.039 189.297 174.932C189.678 174.816 190.078 174.622 190.497 174.351C190.773 174.173 190.999 173.981 191.176 173.777C191.349 173.567 191.471 173.354 191.542 173.137C191.619 172.917 191.639 172.692 191.604 172.462C191.569 172.233 191.48 172.009 191.338 171.791C191.174 171.539 190.965 171.369 190.712 171.281C190.455 171.187 190.169 171.143 189.856 171.151C189.545 171.149 189.209 171.178 188.849 171.24C188.486 171.296 188.11 171.352 187.722 171.408C187.334 171.463 186.944 171.496 186.551 171.506C186.154 171.511 185.765 171.465 185.384 171.369C185.006 171.264 184.639 171.09 184.285 170.847C183.931 170.604 183.603 170.251 183.3 169.787C182.953 169.254 182.747 168.724 182.681 168.197C182.616 167.661 182.665 167.153 182.826 166.674C182.989 166.186 183.255 165.729 183.622 165.304C183.996 164.875 184.438 164.495 184.948 164.165C185.212 163.994 185.489 163.843 185.779 163.712C186.07 163.582 186.352 163.476 186.626 163.397C186.901 163.317 187.155 163.262 187.389 163.233C187.622 163.204 187.787 163.199 187.882 163.219C187.976 163.239 188.045 163.264 188.089 163.293C188.138 163.318 188.19 163.361 188.247 163.423C188.305 163.475 188.37 163.55 188.443 163.65C188.513 163.743 188.596 163.865 188.693 164.013C188.801 164.179 188.887 164.324 188.95 164.445C189.019 164.564 189.066 164.668 189.092 164.757C189.123 164.842 189.13 164.915 189.112 164.976C189.1 165.032 189.062 165.081 188.999 165.122C188.936 165.163 188.809 165.188 188.619 165.197C188.429 165.206 188.204 165.229 187.944 165.268C187.679 165.3 187.391 165.365 187.078 165.461C186.762 165.552 186.446 165.699 186.13 165.904C185.884 166.063 185.689 166.234 185.546 166.416C185.4 166.592 185.299 166.775 185.244 166.966C185.191 167.147 185.181 167.332 185.215 167.522C185.254 167.708 185.328 167.884 185.437 168.05C185.597 168.297 185.803 168.469 186.054 168.566C186.308 168.655 186.593 168.698 186.91 168.697C187.229 168.685 187.574 168.65 187.943 168.59C188.308 168.525 188.685 168.464 189.073 168.409C189.461 168.353 189.856 168.321 190.259 168.313C190.658 168.299 191.049 168.343 191.434 168.444C191.814 168.54 192.181 168.709 192.536 168.952C192.886 169.19 193.207 169.532 193.498 169.978Z" fill="#A46DDB"/>
</g>
<defs>
<filter id="filter0_d_386_2393" x="0.84375" y="0" width="375.156" height="390" filterUnits="userSpaceOnUse" color-interpolation-filters="sRGB">
<feFlood flood-opacity="0" result="BackgroundImageFix"/>
<feColorMatrix in="SourceAlpha" type="matrix" values="0 0 0 0 0 0 0 0 0 0 0 0 0 0 0 0 0 0 127 0" result="hardAlpha"/>
<feOffset dy="4"/>
<feGaussianBlur stdDeviation="7.5"/>
<feComposite in2="hardAlpha" operator="out"/>
<feColorMatrix type="matrix" values="0 0 0 0 0 0 0 0 0 0 0 0 0 0 0 0 0 0 0.2 0"/>
<feBlend mode="normal" in2="BackgroundImageFix" result="effect1_dropShadow_386_2393"/>
<feBlend mode="normal" in="SourceGraphic" in2="effect1_dropShadow_386_2393" result="shape"/>
</filter>
</defs>
</svg>
