<?xml version="1.0" encoding="UTF-8"?><svg id="Camada_2" xmlns="http://www.w3.org/2000/svg" viewBox="0 0 959.67 138.24"><defs><style>.cls-1{fill:#090f11;stroke-width:0px;}</style></defs><g id="Camada_1-2"><path class="cls-1" d="M924.8,113.77l-82.37-70c-3.49-2.97-8.86-.49-8.86,4.1v51.15c0,1.9,1,3.66,2.63,4.62l57.08,33.84c1.69,1,3.79,1,5.48,0l25.29-14.99c3.18-1.88,3.55-6.33.74-8.72ZM851.81,33.72l30.54,25.95c1.7,1.45,4.12,1.69,6.08.61l49.23-27.15c3.64-2.01,3.72-7.21.15-9.33L898.93.75c-1.69-1-3.79-1-5.48,0l-40.9,24.25c-3.18,1.88-3.55,6.33-.74,8.72ZM951.7,41.15l-48.44,26.71c-3.29,1.82-3.75,6.37-.88,8.8l37.73,32.05c1.74,1.48,4.24,1.7,6.21.53l10.72-6.31c1.64-.97,2.65-2.73,2.65-4.63v-52.45c0-4.09-4.39-6.68-7.97-4.71Z"/><path class="cls-1" d="M346.56,10.76h-23.57v89.4h.04l.15,5.11c.02.57.25,5.76,3.24,11.05,2.91,5.15,8.91,11.3,20.97,11.3h46.27v-21.21h-47.11V10.76Z"/><rect class="cls-1" x="651.25" y="10.77" width="23.57" height="116.84"/><path class="cls-1" d="M745.26,107.95c-20.61,0-35.21-17.73-35.21-38.75s14.6-38.75,35.21-38.75c11.31,0,21.84,5.43,28.7,13.55l15.9-13.98c-10.81-12.78-26.8-20.89-44.61-20.89-32.48,0-58.9,26.95-58.9,60.07s26.42,60.07,58.9,60.07c17.79,0,33.77-8.09,44.58-20.85l-15.9-13.98c-6.86,8.1-17.38,13.51-28.67,13.51Z"/><path class="cls-1" d="M23.44,127.61H0L15.18,32.34c.08-.52.92-5.46,4.05-10.5,4.49-7.22,11.33-11.04,19.77-11.04h54.46v21.03h-54.86l-4.25,26.86h39.81v21.03H31.01l-7.58,47.89Z"/><path class="cls-1" d="M151.11,129.24c-33.11,0-60.05-26.94-60.05-60.05s26.94-60.05,60.05-60.05,60.05,26.94,60.05,60.05-26.94,60.05-60.05,60.05ZM151.11,30.5c-21.01,0-36.38,17.68-36.38,38.69s15.36,38.74,36.38,38.74,36.38-17.7,36.38-38.72-15.36-38.72-36.38-38.72Z"/><path class="cls-1" d="M452.05,129.24c-33.1,0-60.03-26.93-60.03-60.04s26.93-60.03,60.03-60.03,60.04,26.93,60.04,60.03-26.93,60.04-60.04,60.04ZM452.05,30.52c-21.01,0-36.37,17.68-36.37,38.69s15.36,38.74,36.37,38.74,36.37-17.7,36.37-38.71-15.36-38.71-36.37-38.71Z"/><path class="cls-1" d="M639.75,69.41l-.05-10.79h-47.07v21.27h24.67c-1.38,6.19-3.96,11.35-7.89,16-6.86,8.09-17.27,12.08-28.56,12.08-20.61,0-35.21-17.73-35.21-38.76s14.6-38.71,35.21-38.71c11.31,0,21.94,5.3,28.8,13.42l16.05-13.84c-10.81-12.78-27.04-20.94-44.85-20.94-32.47,0-58.89,26.95-58.89,60.07s26.42,60.07,58.89,60.07c17.79,0,33.76-8.09,44.57-20.85,7.21-8.52,12.12-19.11,13.74-30.77h0s.58-4.32.58-8.24Z"/><path class="cls-1" d="M253.15,10.76c-8.47,0-15.32,3.89-19.83,11.14-3.14,5.06-3.98,10.01-4.06,10.53l-15.23,95.18h23.51l7.6-48.04,3.34-21.09,4.36-26.66h23.27c1.07.01,3.13.28,5.97,2.02,2.08,1.28,5.88,5.28,5.88,11.24s-3.7,10.3-5.94,11.55c-2.85,1.59-3.91,1.75-5.2,1.99l-1.73.05c-5.17,0-17.83.02-17.83.02l30.73,68.92h23.43l-21.45-48.09s-.03,0,0,0l-.7-1.61c1.74-.6,3.67-1.39,5.53-2.42,10.67-5.89,16.55-16.77,16.55-30.63s-5.21-20.67-9.59-24.95c-9.1-8.89-21.03-9.18-23.06-9.16h-25.55Z"/></g></svg>