<svg width="206" height="30" viewBox="0 0 206 30" fill="none" xmlns="http://www.w3.org/2000/svg">
<path d="M36.3049 13.2597C36.5929 12.8544 36.9876 12.5184 37.4889 12.2517C38.0009 11.9744 38.5823 11.8357 39.2329 11.8357C39.9903 11.8357 40.6729 12.0224 41.2809 12.3958C41.8996 12.7691 42.3849 13.3024 42.7369 13.9957C43.0996 14.6784 43.2809 15.4731 43.2809 16.3797C43.2809 17.2864 43.0996 18.0917 42.7369 18.7957C42.3849 19.4891 41.8996 20.0277 41.2809 20.4117C40.6729 20.7958 39.9903 20.9878 39.2329 20.9878C38.5823 20.9878 38.0063 20.8544 37.5049 20.5877C37.0143 20.3211 36.6143 19.9851 36.3049 19.5797V25.0677H34.0649V11.9797H36.3049V13.2597ZM40.9929 16.3797C40.9929 15.8464 40.8809 15.3877 40.6569 15.0037C40.4436 14.6091 40.1556 14.3104 39.7929 14.1077C39.4409 13.9051 39.0569 13.8037 38.6409 13.8037C38.2356 13.8037 37.8516 13.9104 37.4889 14.1237C37.1369 14.3264 36.8489 14.6251 36.6249 15.0197C36.4116 15.4144 36.3049 15.8784 36.3049 16.4117C36.3049 16.9451 36.4116 17.4091 36.6249 17.8037C36.8489 18.1984 37.1369 18.5024 37.4889 18.7157C37.8516 18.9184 38.2356 19.0197 38.6409 19.0197C39.0569 19.0197 39.4409 18.9131 39.7929 18.6997C40.1556 18.4864 40.4436 18.1824 40.6569 17.7877C40.8809 17.3931 40.9929 16.9237 40.9929 16.3797ZM53.1487 16.2197C53.1487 16.5397 53.1274 16.8277 53.0847 17.0837H46.6047C46.658 17.7237 46.882 18.2251 47.2767 18.5877C47.6714 18.9504 48.1567 19.1317 48.7327 19.1317C49.5647 19.1317 50.1567 18.7744 50.5087 18.0597H52.9247C52.6687 18.9131 52.178 19.6171 51.4527 20.1717C50.7274 20.7157 49.8367 20.9878 48.7807 20.9878C47.9274 20.9878 47.1594 20.8011 46.4767 20.4277C45.8047 20.0437 45.2767 19.5051 44.8927 18.8117C44.5194 18.1184 44.3327 17.3184 44.3327 16.4117C44.3327 15.4944 44.5194 14.6891 44.8927 13.9957C45.266 13.3024 45.7887 12.7691 46.4607 12.3958C47.1327 12.0224 47.906 11.8357 48.7807 11.8357C49.6234 11.8357 50.3754 12.0171 51.0367 12.3797C51.7087 12.7424 52.226 13.2597 52.5887 13.9317C52.962 14.5931 53.1487 15.3557 53.1487 16.2197ZM50.8287 15.5797C50.818 15.0037 50.61 14.5451 50.2047 14.2037C49.7994 13.8517 49.3034 13.6757 48.7167 13.6757C48.162 13.6757 47.6927 13.8464 47.3087 14.1877C46.9354 14.5184 46.706 14.9824 46.6207 15.5797H50.8287ZM57.0237 13.3557C57.3117 12.8864 57.685 12.5184 58.1437 12.2517C58.613 11.9851 59.1464 11.8517 59.7437 11.8517V14.2037H59.1517C58.4477 14.2037 57.9144 14.3691 57.5517 14.6997C57.1997 15.0304 57.0237 15.6064 57.0237 16.4277V20.8438H54.7837V11.9797H57.0237V13.3557ZM60.6764 16.3797C60.6764 15.4837 60.8524 14.6891 61.2044 13.9957C61.5671 13.3024 62.0524 12.7691 62.6604 12.3958C63.2791 12.0224 63.9671 11.8357 64.7244 11.8357C65.3858 11.8357 65.9618 11.9691 66.4524 12.2357C66.9538 12.5024 67.3538 12.8384 67.6524 13.2437V11.9797H69.9084V20.8438H67.6524V19.5477C67.3644 19.9637 66.9644 20.3104 66.4524 20.5877C65.9511 20.8544 65.3698 20.9878 64.7084 20.9878C63.9618 20.9878 63.2791 20.7958 62.6604 20.4117C62.0524 20.0277 61.5671 19.4891 61.2044 18.7957C60.8524 18.0917 60.6764 17.2864 60.6764 16.3797ZM67.6524 16.4117C67.6524 15.8677 67.5458 15.4037 67.3324 15.0197C67.1191 14.6251 66.8311 14.3264 66.4684 14.1237C66.1058 13.9104 65.7164 13.8037 65.3004 13.8037C64.8844 13.8037 64.5004 13.9051 64.1484 14.1077C63.7964 14.3104 63.5084 14.6091 63.2844 15.0037C63.0711 15.3877 62.9644 15.8464 62.9644 16.3797C62.9644 16.9131 63.0711 17.3824 63.2844 17.7877C63.5084 18.1824 63.7964 18.4864 64.1484 18.6997C64.5111 18.9131 64.8951 19.0197 65.3004 19.0197C65.7164 19.0197 66.1058 18.9184 66.4684 18.7157C66.8311 18.5024 67.1191 18.2037 67.3324 17.8197C67.5458 17.4251 67.6524 16.9557 67.6524 16.4117ZM75.8882 19.0677C76.7949 19.0677 77.3869 18.6624 77.6642 17.8517H80.0802C79.8562 18.7157 79.4402 19.4197 78.8322 19.9637C78.2349 20.5077 77.4829 20.8331 76.5762 20.9398V21.5638C77.1629 21.5638 77.6535 21.7131 78.0482 22.0118C78.4535 22.3104 78.6562 22.7424 78.6562 23.3078C78.6562 23.8838 78.4482 24.3264 78.0322 24.6358C77.6269 24.9451 77.1255 25.0998 76.5282 25.0998H74.2562V23.7878H76.1602C76.4162 23.7878 76.6082 23.7504 76.7362 23.6758C76.8749 23.6011 76.9442 23.4678 76.9442 23.2758C76.9442 23.0838 76.8749 22.9504 76.7362 22.8758C76.6082 22.8118 76.4162 22.7798 76.1602 22.7798H75.1682V20.9398C74.4429 20.8331 73.8029 20.5824 73.2482 20.1877C72.7042 19.7824 72.2775 19.2597 71.9682 18.6197C71.6695 17.9691 71.5202 17.2331 71.5202 16.4117C71.5202 15.4944 71.7069 14.6944 72.0802 14.0117C72.4535 13.3184 72.9709 12.7851 73.6322 12.4117C74.2935 12.0277 75.0509 11.8357 75.9042 11.8357C77.0029 11.8357 77.9095 12.1131 78.6242 12.6677C79.3495 13.2117 79.8349 13.9797 80.0802 14.9717H77.6642C77.5362 14.5877 77.3175 14.2891 77.0082 14.0757C76.7095 13.8517 76.3362 13.7397 75.8882 13.7397C75.2482 13.7397 74.7415 13.9744 74.3682 14.4437C73.9949 14.9024 73.8082 15.5584 73.8082 16.4117C73.8082 17.2544 73.9949 17.9104 74.3682 18.3797C74.7415 18.8384 75.2482 19.0677 75.8882 19.0677ZM81.1452 16.3797C81.1452 15.4837 81.3212 14.6891 81.6732 13.9957C82.0359 13.3024 82.5212 12.7691 83.1292 12.3958C83.7479 12.0224 84.4359 11.8357 85.1932 11.8357C85.8545 11.8357 86.4305 11.9691 86.9212 12.2357C87.4225 12.5024 87.8225 12.8384 88.1212 13.2437V11.9797H90.3772V20.8438H88.1212V19.5477C87.8332 19.9637 87.4332 20.3104 86.9212 20.5877C86.4199 20.8544 85.8385 20.9878 85.1772 20.9878C84.4305 20.9878 83.7479 20.7958 83.1292 20.4117C82.5212 20.0277 82.0359 19.4891 81.6732 18.7957C81.3212 18.0917 81.1452 17.2864 81.1452 16.3797ZM88.1212 16.4117C88.1212 15.8677 88.0145 15.4037 87.8012 15.0197C87.5879 14.6251 87.2999 14.3264 86.9372 14.1237C86.5745 13.9104 86.1852 13.8037 85.7692 13.8037C85.3532 13.8037 84.9692 13.9051 84.6172 14.1077C84.2652 14.3104 83.9772 14.6091 83.7532 15.0037C83.5399 15.3877 83.4332 15.8464 83.4332 16.3797C83.4332 16.9131 83.5399 17.3824 83.7532 17.7877C83.9772 18.1824 84.2652 18.4864 84.6172 18.6997C84.9799 18.9131 85.3639 19.0197 85.7692 19.0197C86.1852 19.0197 86.5745 18.9184 86.9372 18.7157C87.2999 18.5024 87.5879 18.2037 87.8012 17.8197C88.0145 17.4251 88.1212 16.9557 88.1212 16.4117ZM83.1932 11.1317C83.2892 10.4277 83.5079 9.90508 83.8492 9.56375C84.2012 9.21175 84.6439 9.03575 85.1772 9.03575C85.4012 9.03575 85.5985 9.07308 85.7692 9.14775C85.9399 9.21175 86.1319 9.30775 86.3452 9.43575C86.6652 9.63842 86.9319 9.73975 87.1452 9.73975C87.5399 9.73975 87.7692 9.51042 87.8332 9.05175H89.0332C88.9372 9.75575 88.7132 10.2837 88.3612 10.6357C88.0199 10.9771 87.5825 11.1477 87.0492 11.1477C86.8252 11.1477 86.6279 11.1157 86.4572 11.0517C86.2865 10.9771 86.0945 10.8757 85.8812 10.7477C85.5719 10.5344 85.3052 10.4277 85.0812 10.4277C84.6865 10.4277 84.4519 10.6624 84.3772 11.1317H83.1932ZM96.5009 20.9878C95.6476 20.9878 94.8796 20.8011 94.1969 20.4277C93.5143 20.0437 92.9756 19.5051 92.5809 18.8117C92.1969 18.1184 92.0049 17.3184 92.0049 16.4117C92.0049 15.5051 92.2023 14.7051 92.5969 14.0117C93.0023 13.3184 93.5516 12.7851 94.2449 12.4117C94.9383 12.0277 95.7116 11.8357 96.5649 11.8357C97.4183 11.8357 98.1916 12.0277 98.8849 12.4117C99.5783 12.7851 100.122 13.3184 100.517 14.0117C100.922 14.7051 101.125 15.5051 101.125 16.4117C101.125 17.3184 100.917 18.1184 100.501 18.8117C100.096 19.5051 99.5409 20.0437 98.8369 20.4277C98.1436 20.8011 97.3649 20.9878 96.5009 20.9878ZM96.5009 19.0357C96.9063 19.0357 97.2849 18.9397 97.6369 18.7477C97.9996 18.5451 98.2876 18.2464 98.5009 17.8517C98.7143 17.4571 98.8209 16.9771 98.8209 16.4117C98.8209 15.5691 98.5969 14.9237 98.1489 14.4757C97.7116 14.0171 97.1729 13.7877 96.5329 13.7877C95.8929 13.7877 95.3543 14.0171 94.9169 14.4757C94.4903 14.9237 94.2769 15.5691 94.2769 16.4117C94.2769 17.2544 94.4849 17.9051 94.9009 18.3637C95.3276 18.8117 95.8609 19.0357 96.5009 19.0357ZM106.037 15.2437C106.037 14.1451 106.282 13.1637 106.773 12.2997C107.274 11.4251 107.951 10.7477 108.805 10.2677C109.669 9.77708 110.634 9.53175 111.701 9.53175C112.949 9.53175 114.042 9.85175 114.981 10.4917C115.919 11.1317 116.575 12.0171 116.949 13.1477H114.373C114.117 12.6144 113.754 12.2144 113.285 11.9477C112.826 11.6811 112.293 11.5477 111.685 11.5477C111.034 11.5477 110.453 11.7024 109.941 12.0117C109.439 12.3104 109.045 12.7371 108.757 13.2917C108.479 13.8464 108.341 14.4971 108.341 15.2437C108.341 15.9797 108.479 16.6304 108.757 17.1957C109.045 17.7504 109.439 18.1824 109.941 18.4918C110.453 18.7904 111.034 18.9397 111.685 18.9397C112.293 18.9397 112.826 18.8064 113.285 18.5397C113.754 18.2624 114.117 17.8571 114.373 17.3237H116.949C116.575 18.4651 115.919 19.3557 114.981 19.9957C114.053 20.6251 112.959 20.9398 111.701 20.9398C110.634 20.9398 109.669 20.6997 108.805 20.2197C107.951 19.7291 107.274 19.0517 106.773 18.1877C106.282 17.3237 106.037 16.3424 106.037 15.2437ZM127.23 11.9797V20.8438H124.974V19.7237C124.686 20.1077 124.307 20.4117 123.838 20.6357C123.379 20.8491 122.878 20.9558 122.334 20.9558C121.64 20.9558 121.027 20.8117 120.494 20.5237C119.96 20.2251 119.539 19.7931 119.23 19.2277C118.931 18.6517 118.782 17.9691 118.782 17.1797V11.9797H121.022V16.8597C121.022 17.5637 121.198 18.1077 121.55 18.4918C121.902 18.8651 122.382 19.0517 122.99 19.0517C123.608 19.0517 124.094 18.8651 124.446 18.4918C124.798 18.1077 124.974 17.5637 124.974 16.8597V11.9797H127.23ZM131.68 13.3557C131.968 12.8864 132.341 12.5184 132.8 12.2517C133.269 11.9851 133.803 11.8517 134.4 11.8517V14.2037H133.808C133.104 14.2037 132.571 14.3691 132.208 14.6997C131.856 15.0304 131.68 15.6064 131.68 16.4277V20.8438H129.44V11.9797H131.68V13.3557ZM137.045 10.9237C136.65 10.9237 136.319 10.8011 136.053 10.5557C135.797 10.2997 135.669 9.98508 135.669 9.61175C135.669 9.23842 135.797 8.92908 136.053 8.68375C136.319 8.42775 136.65 8.29975 137.045 8.29975C137.439 8.29975 137.765 8.42775 138.021 8.68375C138.287 8.92908 138.421 9.23842 138.421 9.61175C138.421 9.98508 138.287 10.2997 138.021 10.5557C137.765 10.8011 137.439 10.9237 137.045 10.9237ZM138.149 11.9797V20.8438H135.909V11.9797H138.149ZM144.298 20.9878C143.444 20.9878 142.676 20.8011 141.994 20.4277C141.311 20.0437 140.772 19.5051 140.378 18.8117C139.994 18.1184 139.802 17.3184 139.802 16.4117C139.802 15.5051 139.999 14.7051 140.394 14.0117C140.799 13.3184 141.348 12.7851 142.042 12.4117C142.735 12.0277 143.508 11.8357 144.362 11.8357C145.215 11.8357 145.988 12.0277 146.682 12.4117C147.375 12.7851 147.919 13.3184 148.314 14.0117C148.719 14.7051 148.922 15.5051 148.922 16.4117C148.922 17.3184 148.714 18.1184 148.298 18.8117C147.892 19.5051 147.338 20.0437 146.634 20.4277C145.94 20.8011 145.162 20.9878 144.298 20.9878ZM144.298 19.0357C144.703 19.0357 145.082 18.9397 145.434 18.7477C145.796 18.5451 146.084 18.2464 146.298 17.8517C146.511 17.4571 146.618 16.9771 146.618 16.4117C146.618 15.5691 146.394 14.9237 145.946 14.4757C145.508 14.0171 144.97 13.7877 144.33 13.7877C143.69 13.7877 143.151 14.0171 142.714 14.4757C142.287 14.9237 142.074 15.5691 142.074 16.4117C142.074 17.2544 142.282 17.9051 142.698 18.3637C143.124 18.8117 143.658 19.0357 144.298 19.0357ZM153.957 20.9878C153.232 20.9878 152.581 20.8598 152.005 20.6037C151.429 20.3371 150.97 19.9797 150.629 19.5317C150.298 19.0837 150.117 18.5877 150.085 18.0437H152.341C152.384 18.3851 152.549 18.6677 152.837 18.8917C153.136 19.1157 153.504 19.2277 153.941 19.2277C154.368 19.2277 154.698 19.1424 154.933 18.9717C155.178 18.8011 155.301 18.5824 155.301 18.3157C155.301 18.0277 155.152 17.8144 154.853 17.6757C154.565 17.5264 154.101 17.3664 153.461 17.1957C152.8 17.0357 152.256 16.8704 151.829 16.6997C151.413 16.5291 151.05 16.2677 150.741 15.9157C150.442 15.5637 150.293 15.0891 150.293 14.4917C150.293 14.0011 150.432 13.5531 150.709 13.1477C150.997 12.7424 151.402 12.4224 151.925 12.1877C152.458 11.9531 153.082 11.8357 153.797 11.8357C154.853 11.8357 155.696 12.1024 156.325 12.6357C156.954 13.1584 157.301 13.8677 157.365 14.7637H155.221C155.189 14.4117 155.04 14.1344 154.773 13.9317C154.517 13.7184 154.17 13.6117 153.733 13.6117C153.328 13.6117 153.013 13.6864 152.789 13.8357C152.576 13.9851 152.469 14.1931 152.469 14.4597C152.469 14.7584 152.618 14.9877 152.917 15.1477C153.216 15.2971 153.68 15.4517 154.309 15.6117C154.949 15.7717 155.477 15.9371 155.893 16.1077C156.309 16.2784 156.666 16.5451 156.965 16.9077C157.274 17.2597 157.434 17.7291 157.445 18.3157C157.445 18.8277 157.301 19.2864 157.013 19.6917C156.736 20.0971 156.33 20.4171 155.797 20.6517C155.274 20.8758 154.661 20.9878 153.957 20.9878ZM160.42 10.9237C160.025 10.9237 159.694 10.8011 159.428 10.5557C159.172 10.2997 159.044 9.98508 159.044 9.61175C159.044 9.23842 159.172 8.92908 159.428 8.68375C159.694 8.42775 160.025 8.29975 160.42 8.29975C160.814 8.29975 161.14 8.42775 161.396 8.68375C161.662 8.92908 161.796 9.23842 161.796 9.61175C161.796 9.98508 161.662 10.2997 161.396 10.5557C161.14 10.8011 160.814 10.9237 160.42 10.9237ZM161.524 11.9797V20.8438H159.284V11.9797H161.524ZM163.161 16.3797C163.161 15.4837 163.337 14.6891 163.689 13.9957C164.051 13.3024 164.542 12.7691 165.161 12.3958C165.779 12.0224 166.467 11.8357 167.225 11.8357C167.801 11.8357 168.35 11.9637 168.873 12.2197C169.395 12.4651 169.811 12.7957 170.121 13.2117V9.00375H172.393V20.8438H170.121V19.5317C169.843 19.9691 169.454 20.3211 168.953 20.5877C168.451 20.8544 167.87 20.9878 167.209 20.9878C166.462 20.9878 165.779 20.7958 165.161 20.4117C164.542 20.0277 164.051 19.4891 163.689 18.7957C163.337 18.0917 163.161 17.2864 163.161 16.3797ZM170.137 16.4117C170.137 15.8677 170.03 15.4037 169.817 15.0197C169.603 14.6251 169.315 14.3264 168.953 14.1237C168.59 13.9104 168.201 13.8037 167.785 13.8037C167.369 13.8037 166.985 13.9051 166.633 14.1077C166.281 14.3104 165.993 14.6091 165.769 15.0037C165.555 15.3877 165.449 15.8464 165.449 16.3797C165.449 16.9131 165.555 17.3824 165.769 17.7877C165.993 18.1824 166.281 18.4864 166.633 18.6997C166.995 18.9131 167.379 19.0197 167.785 19.0197C168.201 19.0197 168.59 18.9184 168.953 18.7157C169.315 18.5024 169.603 18.2037 169.817 17.8197C170.03 17.4251 170.137 16.9557 170.137 16.4117ZM174.005 16.3797C174.005 15.4837 174.181 14.6891 174.533 13.9957C174.895 13.3024 175.381 12.7691 175.989 12.3958C176.607 12.0224 177.295 11.8357 178.053 11.8357C178.714 11.8357 179.29 11.9691 179.781 12.2357C180.282 12.5024 180.682 12.8384 180.981 13.2437V11.9797H183.237V20.8438H180.981V19.5477C180.693 19.9637 180.293 20.3104 179.781 20.5877C179.279 20.8544 178.698 20.9878 178.037 20.9878C177.29 20.9878 176.607 20.7958 175.989 20.4117C175.381 20.0277 174.895 19.4891 174.533 18.7957C174.181 18.0917 174.005 17.2864 174.005 16.3797ZM180.981 16.4117C180.981 15.8677 180.874 15.4037 180.661 15.0197C180.447 14.6251 180.159 14.3264 179.797 14.1237C179.434 13.9104 179.045 13.8037 178.629 13.8037C178.213 13.8037 177.829 13.9051 177.477 14.1077C177.125 14.3104 176.837 14.6091 176.613 15.0037C176.399 15.3877 176.293 15.8464 176.293 16.3797C176.293 16.9131 176.399 17.3824 176.613 17.7877C176.837 18.1824 177.125 18.4864 177.477 18.6997C177.839 18.9131 178.223 19.0197 178.629 19.0197C179.045 19.0197 179.434 18.9184 179.797 18.7157C180.159 18.5024 180.447 18.2037 180.661 17.8197C180.874 17.4251 180.981 16.9557 180.981 16.4117ZM184.848 16.3797C184.848 15.4837 185.024 14.6891 185.376 13.9957C185.739 13.3024 186.23 12.7691 186.848 12.3958C187.467 12.0224 188.155 11.8357 188.912 11.8357C189.488 11.8357 190.038 11.9637 190.56 12.2197C191.083 12.4651 191.499 12.7957 191.808 13.2117V9.00375H194.08V20.8438H191.808V19.5317C191.531 19.9691 191.142 20.3211 190.64 20.5877C190.139 20.8544 189.558 20.9878 188.896 20.9878C188.15 20.9878 187.467 20.7958 186.848 20.4117C186.23 20.0277 185.739 19.4891 185.376 18.7957C185.024 18.0917 184.848 17.2864 184.848 16.3797ZM191.824 16.4117C191.824 15.8677 191.718 15.4037 191.504 15.0197C191.291 14.6251 191.003 14.3264 190.64 14.1237C190.278 13.9104 189.888 13.8037 189.472 13.8037C189.056 13.8037 188.672 13.9051 188.32 14.1077C187.968 14.3104 187.68 14.6091 187.456 15.0037C187.243 15.3877 187.136 15.8464 187.136 16.3797C187.136 16.9131 187.243 17.3824 187.456 17.7877C187.68 18.1824 187.968 18.4864 188.32 18.6997C188.683 18.9131 189.067 19.0197 189.472 19.0197C189.888 19.0197 190.278 18.9184 190.64 18.7157C191.003 18.5024 191.291 18.2037 191.504 17.8197C191.718 17.4251 191.824 16.9557 191.824 16.4117ZM204.508 16.2197C204.508 16.5397 204.487 16.8277 204.444 17.0837H197.964C198.017 17.7237 198.241 18.2251 198.636 18.5877C199.031 18.9504 199.516 19.1317 200.092 19.1317C200.924 19.1317 201.516 18.7744 201.868 18.0597H204.284C204.028 18.9131 203.537 19.6171 202.812 20.1717C202.087 20.7157 201.196 20.9878 200.14 20.9878C199.287 20.9878 198.519 20.8011 197.836 20.4277C197.164 20.0437 196.636 19.5051 196.252 18.8117C195.879 18.1184 195.692 17.3184 195.692 16.4117C195.692 15.4944 195.879 14.6891 196.252 13.9957C196.625 13.3024 197.148 12.7691 197.82 12.3958C198.492 12.0224 199.265 11.8357 200.14 11.8357C200.983 11.8357 201.735 12.0171 202.396 12.3797C203.068 12.7424 203.585 13.2597 203.948 13.9317C204.321 14.5931 204.508 15.3557 204.508 16.2197ZM202.188 15.5797C202.177 15.0037 201.969 14.5451 201.564 14.2037C201.159 13.8517 200.663 13.6757 200.076 13.6757C199.521 13.6757 199.052 13.8464 198.668 14.1877C198.295 14.5184 198.065 14.9824 197.98 15.5797H202.188Z" fill="#6b1bc6"/>
<mask id="path-2-inside-1_150_320" fill="white">
<path fill-rule="evenodd" clip-rule="evenodd" d="M22.9576 5.46832L22.8136 5.28451L22.6825 5.12039L22.5777 4.94315L22.4861 4.75934L22.4139 4.5821L22.3419 4.37861L22.2894 4.20135L22.2501 3.99786L22.1977 3.61711L22.1781 3.24291L22.2174 2.8753L22.2501 2.53395L22.3025 2.19259L22.3943 1.90374L22.4663 1.62803L22.5581 1.3917L22.6825 1.05034L22.7414 0.925614L19.7214 0L19.6493 0.183812L19.5772 0.341358L19.4724 0.52517L19.361 0.689287L19.2366 0.853404L19.1055 1.01095L18.9615 1.17507L18.8042 1.31949L18.4571 1.60833L18.077 1.86435L17.6643 2.12038L17.2319 2.33701L16.7799 2.53395L16.2886 2.69806L15.8038 2.84248L15.2994 2.96721L14.795 3.03942L14.2839 3.09194L13.7795 3.13133L13.2947 3.11163L16.5768 3.5449L17.2648 3.53176L17.8609 3.49238L18.3849 3.43987L18.8371 3.36766L19.217 3.25605L19.4004 3.18384L19.5446 3.11163L19.6886 3.03942L19.8132 2.94752L19.9376 2.86218L20.049 2.77027L20.0292 2.80309L20.0096 2.94752L19.9965 3.1707V3.29544L20.0096 3.45955L20.0292 3.61711L20.0817 3.8206L20.1538 4.01755L20.2454 4.25386L20.3569 4.49019L20.5009 4.73966L20.6778 4.99567L20.894 5.28451L21.1691 5.61274L21.4902 6.0657L21.8899 6.604L22.3223 7.24077L22.7743 7.96286L23.2262 8.74401L23.698 9.61054L23.9337 10.0635L24.1499 10.5363L24.3661 11.0022L24.5823 11.4947L24.779 12.0002L24.9623 12.5253L25.1196 13.0308L25.2834 13.5756L25.4274 14.1008L25.5585 14.6588L25.6436 15.2036L25.7354 15.7616L25.7878 16.3065L25.8074 16.8711L25.8271 17.429L25.7878 17.9936L25.7354 18.5517L25.6436 19.1162L25.5389 19.6742L25.4143 20.219L25.2505 20.7442L25.0672 21.2496L24.8903 21.7354L24.6741 22.2277L24.4383 22.6807L24.1828 23.1336L23.9337 23.5472L23.6586 23.9608L23.3507 24.3612L23.0429 24.7223L22.7414 25.0833L22.3943 25.4314L22.0537 25.753L21.6933 26.0616L21.3331 26.3372L20.9531 26.6064L20.5534 26.8624L20.1538 27.0922L19.7608 27.2957L19.3415 27.4926L18.9287 27.6764L18.4963 27.8208L18.077 27.9456L17.625 28.0703L17.1926 28.1622L16.7602 28.2344L16.3082 28.2869L15.8562 28.3263L15.4041 28.346L14.9521 28.3263L13.3865 28.2541L12.2268 28.1819L11.3949 28.09L10.838 28.0178L10.4908 27.9652L10.2746 27.9259L10.1501 27.9127L10.0256 27.9259H9.91426L9.77014 27.9127L10.6742 28.1819L12.1941 28.6545L12.3906 28.6873L12.6788 28.7399L13.0392 28.7792L13.4912 28.8121L14.5197 28.8711L15.6794 28.8843L16.2886 28.8711L16.9044 28.8514L17.5005 28.8318L18.064 28.7792L18.6011 28.7267L19.1055 28.6545L19.5446 28.5626L19.9179 28.451L20.7892 28.1622L21.3462 27.9652L21.9619 27.6896L22.6105 27.3876L22.9576 27.2038L23.2983 27.0068L23.6391 26.7902L24.0059 26.5539L24.3466 26.2979L24.7068 26.0287L25.0474 25.7399L25.3947 25.4117L25.7158 25.0833L26.0433 24.7223L26.3513 24.3285L26.6591 23.9279L26.9277 23.475L27.2028 23.0221L27.4518 22.5363L27.668 22.0111L27.8711 21.4466L28.048 20.8689L28.2118 20.2519L28.3165 19.6216L28.4082 18.9324L28.4804 18.2233L28.5 17.521V16.8316L28.4607 16.162L28.4082 15.5121L28.3165 14.8754L28.2118 14.278L28.0873 13.6807L27.9236 13.1227L27.7596 12.5778L27.5763 12.0527L27.3601 11.5472L27.1635 11.0614L26.9277 10.6085L26.6919 10.1555L26.456 9.72226L26.2071 9.3217L25.9515 8.94096L25.7027 8.56023L25.4471 8.21885L25.1916 7.89067L24.7068 7.29328L24.2352 6.78781L23.8224 6.33485L23.4424 5.9738L23.1542 5.68495L22.9576 5.46832Z"/>
</mask>
<path fill-rule="evenodd" clip-rule="evenodd" d="M22.9576 5.46832L22.8136 5.28451L22.6825 5.12039L22.5777 4.94315L22.4861 4.75934L22.4139 4.5821L22.3419 4.37861L22.2894 4.20135L22.2501 3.99786L22.1977 3.61711L22.1781 3.24291L22.2174 2.8753L22.2501 2.53395L22.3025 2.19259L22.3943 1.90374L22.4663 1.62803L22.5581 1.3917L22.6825 1.05034L22.7414 0.925614L19.7214 0L19.6493 0.183812L19.5772 0.341358L19.4724 0.52517L19.361 0.689287L19.2366 0.853404L19.1055 1.01095L18.9615 1.17507L18.8042 1.31949L18.4571 1.60833L18.077 1.86435L17.6643 2.12038L17.2319 2.33701L16.7799 2.53395L16.2886 2.69806L15.8038 2.84248L15.2994 2.96721L14.795 3.03942L14.2839 3.09194L13.7795 3.13133L13.2947 3.11163L16.5768 3.5449L17.2648 3.53176L17.8609 3.49238L18.3849 3.43987L18.8371 3.36766L19.217 3.25605L19.4004 3.18384L19.5446 3.11163L19.6886 3.03942L19.8132 2.94752L19.9376 2.86218L20.049 2.77027L20.0292 2.80309L20.0096 2.94752L19.9965 3.1707V3.29544L20.0096 3.45955L20.0292 3.61711L20.0817 3.8206L20.1538 4.01755L20.2454 4.25386L20.3569 4.49019L20.5009 4.73966L20.6778 4.99567L20.894 5.28451L21.1691 5.61274L21.4902 6.0657L21.8899 6.604L22.3223 7.24077L22.7743 7.96286L23.2262 8.74401L23.698 9.61054L23.9337 10.0635L24.1499 10.5363L24.3661 11.0022L24.5823 11.4947L24.779 12.0002L24.9623 12.5253L25.1196 13.0308L25.2834 13.5756L25.4274 14.1008L25.5585 14.6588L25.6436 15.2036L25.7354 15.7616L25.7878 16.3065L25.8074 16.8711L25.8271 17.429L25.7878 17.9936L25.7354 18.5517L25.6436 19.1162L25.5389 19.6742L25.4143 20.219L25.2505 20.7442L25.0672 21.2496L24.8903 21.7354L24.6741 22.2277L24.4383 22.6807L24.1828 23.1336L23.9337 23.5472L23.6586 23.9608L23.3507 24.3612L23.0429 24.7223L22.7414 25.0833L22.3943 25.4314L22.0537 25.753L21.6933 26.0616L21.3331 26.3372L20.9531 26.6064L20.5534 26.8624L20.1538 27.0922L19.7608 27.2957L19.3415 27.4926L18.9287 27.6764L18.4963 27.8208L18.077 27.9456L17.625 28.0703L17.1926 28.1622L16.7602 28.2344L16.3082 28.2869L15.8562 28.3263L15.4041 28.346L14.9521 28.3263L13.3865 28.2541L12.2268 28.1819L11.3949 28.09L10.838 28.0178L10.4908 27.9652L10.2746 27.9259L10.1501 27.9127L10.0256 27.9259H9.91426L9.77014 27.9127L10.6742 28.1819L12.1941 28.6545L12.3906 28.6873L12.6788 28.7399L13.0392 28.7792L13.4912 28.8121L14.5197 28.8711L15.6794 28.8843L16.2886 28.8711L16.9044 28.8514L17.5005 28.8318L18.064 28.7792L18.6011 28.7267L19.1055 28.6545L19.5446 28.5626L19.9179 28.451L20.7892 28.1622L21.3462 27.9652L21.9619 27.6896L22.6105 27.3876L22.9576 27.2038L23.2983 27.0068L23.6391 26.7902L24.0059 26.5539L24.3466 26.2979L24.7068 26.0287L25.0474 25.7399L25.3947 25.4117L25.7158 25.0833L26.0433 24.7223L26.3513 24.3285L26.6591 23.9279L26.9277 23.475L27.2028 23.0221L27.4518 22.5363L27.668 22.0111L27.8711 21.4466L28.048 20.8689L28.2118 20.2519L28.3165 19.6216L28.4082 18.9324L28.4804 18.2233L28.5 17.521V16.8316L28.4607 16.162L28.4082 15.5121L28.3165 14.8754L28.2118 14.278L28.0873 13.6807L27.9236 13.1227L27.7596 12.5778L27.5763 12.0527L27.3601 11.5472L27.1635 11.0614L26.9277 10.6085L26.6919 10.1555L26.456 9.72226L26.2071 9.3217L25.9515 8.94096L25.7027 8.56023L25.4471 8.21885L25.1916 7.89067L24.7068 7.29328L24.2352 6.78781L23.8224 6.33485L23.4424 5.9738L23.1542 5.68495L22.9576 5.46832Z" fill="#D4B5EE" stroke="#D4B5EE" mask="url(#path-2-inside-1_150_320)"/>
<path fill-rule="evenodd" clip-rule="evenodd" d="M10.3151 28.2763L10.968 28.3174L12.4895 28.3928L13.7483 28.4681L15.4381 28.5434H15.8082H16.2392L16.6632 28.5024L17.0941 28.4475L17.5183 28.3928L17.9423 28.2969L18.353 28.1804L18.7636 28.0504L19.1675 27.8996L19.5782 27.7284L19.9686 27.5435L20.359 27.331L20.7495 27.1051L21.1197 26.879L21.4901 26.6189L21.84 26.3311L22.1969 26.0297L22.5267 25.7283L22.8431 25.3858L23.1595 25.0504L23.4557 24.6873L23.7384 24.331L24.0145 23.9339L24.2703 23.5366L24.4991 23.1393L24.7348 22.6872L24.957 22.2558L25.1454 21.7832L25.3339 21.3106L25.4821 20.838L25.6302 20.3447L25.7379 19.8516L25.8522 19.3448L25.9263 18.8175L25.9802 18.2695L26.0206 17.701V17.1324L25.9802 16.5709L25.9465 15.9817L25.8522 15.3791L25.7379 14.7969L25.6302 14.2626L25.4955 13.7557L25.3474 13.2284L25.1858 12.7009L24.9974 12.1668L24.7954 11.6393L24.5732 11.0914L24.331 10.5434L24.0683 10.016L23.8261 9.50924L23.5702 9.01601L23.3076 8.54338L22.7893 7.67355L22.3046 6.89958L21.8602 6.25574L21.4901 5.72834L21.0256 5.1256L20.763 4.78314L20.561 4.46121L20.3928 4.15985L20.2649 3.87903L20.1706 3.5982L20.0965 3.35163L20.0629 3.12559L20.0225 2.91327L19.7666 3.06395L19.4503 3.20095L19.1136 3.31054L18.7434 3.38588L18.353 3.46122L17.9289 3.50231L17.4644 3.53656H16.9595L16.2593 3.52286L15.4785 3.48177L14.6437 3.40643L13.7146 3.27629L13.3983 3.25574L13.0616 3.21465L12.3615 3.20095L11.7085 3.21465L11.0623 3.25574L10.3891 3.35163L9.74287 3.46122L9.07642 3.5982L8.42343 3.78313L7.79063 3.97492L7.16457 4.22149L6.80779 4.37217L6.45771 4.52286L6.10766 4.68725L5.77106 4.87903L5.43447 5.07081L5.11807 5.25573L4.80842 5.46807L4.49201 5.67355L4.20927 5.89957L3.93326 6.12561L3.65726 6.37218L3.39471 6.5982L3.13217 6.86534L2.89655 7.1256L2.6744 7.39272L2.46572 7.65301L2.13584 8.12561L1.81944 8.61869L1.55691 9.11193L1.31456 9.63925L1.09241 10.1872L0.924106 10.7353L0.776004 11.3175L0.6683 11.9065L0.574051 12.605L0.520198 13.3037L0.5 14.0365L0.533654 14.7969L0.607705 15.5708L0.722152 16.3586L0.870254 17.153L1.05875 17.9886L1.16646 18.3995L1.29436 18.8175L1.44919 19.2146L1.61076 19.6119L1.79926 20.0092L1.98102 20.3859L2.1897 20.7627L2.39167 21.1187L2.83597 21.8379L3.32066 22.5024L3.78516 23.1393L4.26986 23.7078L4.74782 24.2557L5.21232 24.7284L5.62297 25.1461L6.01341 25.5228L6.34328 25.8038L6.62602 26.0297L6.80779 26.1805L6.92222 26.2762L7.07032 26.3517L7.17804 26.4476L7.29247 26.5572L7.40692 26.6942L7.56848 26.9339L7.71658 27.1668L7.79063 27.3174L7.88488 27.427L7.97913 27.5023L8.20128 27.6188L8.47728 27.7694L8.85427 27.9406L9.25819 28.1051L9.59477 28.2216L9.83712 28.2763L9.9987 28.2969L10.1535 28.2763H10.3151Z" fill="#6B1BC6" stroke="#D4B5EE" stroke-miterlimit="10" stroke-linejoin="round"/>
<mask id="path-4-inside-2_150_320" fill="white">
<path fill-rule="evenodd" clip-rule="evenodd" d="M11.0183 29.926L10.9644 29.9461L10.776 29.9799L10.5741 30L10.3857 29.9799L10.2242 29.9596L10.0559 29.9058L9.88765 29.8316L9.73959 29.7239L9.61171 29.6094L9.47711 29.4612L9.3896 29.3131L9.29538 29.1447L9.22135 28.9629L9.16079 28.754L9.12713 28.5519L9.10693 28.3297V28.1075L9.12713 28.0468L9.16079 28.0132L9.20117 27.9727L9.255 27.9592L9.31558 27.9391L9.34922 27.9592L9.3896 27.993V28.0333V28.2354L9.40307 28.4374L9.44346 28.6463L9.49729 28.8146L9.55114 28.9965L9.62518 29.1447L9.7194 29.2928L9.83381 29.4276L9.96168 29.5152L10.0761 29.6094L10.2242 29.6835L10.352 29.7239L10.5001 29.7575H10.6684H10.8165L10.9847 29.7239H11.0385H11.0721L11.1126 29.7575V29.798L11.0924 29.872L11.0183 29.926Z"/>
</mask>
<path fill-rule="evenodd" clip-rule="evenodd" d="M11.0183 29.926L10.9644 29.9461L10.776 29.9799L10.5741 30L10.3857 29.9799L10.2242 29.9596L10.0559 29.9058L9.88765 29.8316L9.73959 29.7239L9.61171 29.6094L9.47711 29.4612L9.3896 29.3131L9.29538 29.1447L9.22135 28.9629L9.16079 28.754L9.12713 28.5519L9.10693 28.3297V28.1075L9.12713 28.0468L9.16079 28.0132L9.20117 27.9727L9.255 27.9592L9.31558 27.9391L9.34922 27.9592L9.3896 27.993V28.0333V28.2354L9.40307 28.4374L9.44346 28.6463L9.49729 28.8146L9.55114 28.9965L9.62518 29.1447L9.7194 29.2928L9.83381 29.4276L9.96168 29.5152L10.0761 29.6094L10.2242 29.6835L10.352 29.7239L10.5001 29.7575H10.6684H10.8165L10.9847 29.7239H11.0385H11.0721L11.1126 29.7575V29.798L11.0924 29.872L11.0183 29.926Z" fill="#EADAF7"/>
<path d="M11.0183 29.926L11.3687 30.8626L11.4965 30.8147L11.6069 30.7344L11.0183 29.926ZM10.9644 29.9461L11.1409 30.9304L11.23 30.9144L11.3148 30.8827L10.9644 29.9461ZM10.776 29.9799L10.8753 30.975L10.9141 30.9711L10.9525 30.9642L10.776 29.9799ZM10.5741 30L10.4679 30.9944L10.5706 31.0054L10.6734 30.9951L10.5741 30ZM10.3857 29.9799L10.261 30.9721L10.2702 30.9732L10.2794 30.9742L10.3857 29.9799ZM10.2242 29.9596L9.91976 30.9121L10.0078 30.9403L10.0995 30.9518L10.2242 29.9596ZM10.0559 29.9058L9.65232 30.8208L9.70092 30.8422L9.7515 30.8584L10.0559 29.9058ZM9.88765 29.8316L9.29941 30.6403L9.38604 30.7033L9.48406 30.7465L9.88765 29.8316ZM9.73959 29.7239L9.07251 30.4689L9.11032 30.5027L9.15135 30.5326L9.73959 29.7239ZM9.61171 29.6094L8.87158 30.2819L8.90624 30.32L8.94463 30.3544L9.61171 29.6094ZM9.47711 29.4612L8.6161 29.9698L8.66816 30.058L8.73698 30.1337L9.47711 29.4612ZM9.3896 29.3131L8.51686 29.8013L8.52261 29.8116L8.52859 29.8217L9.3896 29.3131ZM9.29538 29.1447L8.36926 29.5219L8.39253 29.579L8.42264 29.6328L9.29538 29.1447ZM9.22135 28.9629L8.26091 29.2414L8.27548 29.2916L8.29523 29.3401L9.22135 28.9629ZM9.16079 28.754L8.17437 28.9183L8.18401 28.9762L8.20034 29.0325L9.16079 28.754ZM9.12713 28.5519L8.13124 28.6425L8.13461 28.6795L8.14072 28.7162L9.12713 28.5519ZM9.10693 28.3297H8.10693V28.3751L8.11104 28.4203L9.10693 28.3297ZM9.10693 28.1075L8.15801 27.792L8.10693 27.9456V28.1075H9.10693ZM9.12713 28.0468L8.42033 27.3394L8.25289 27.5067L8.17821 27.7313L9.12713 28.0468ZM9.16079 28.0132L9.86759 28.7206L9.86846 28.7197L9.16079 28.0132ZM9.20117 27.9727L8.95829 27.0027L8.68937 27.07L8.4935 27.2662L9.20117 27.9727ZM9.255 27.9592L9.49788 28.9293L9.53462 28.9201L9.57056 28.9081L9.255 27.9592ZM9.31558 27.9391L9.82938 27.0812L9.43559 26.8453L9.00003 26.9902L9.31558 27.9391ZM9.34922 27.9592L9.99085 27.1922L9.93051 27.1417L9.86302 27.1013L9.34922 27.9592ZM9.3896 27.993H10.3896V27.5258L10.0312 27.226L9.3896 27.993ZM9.3896 28.2354H8.3896V28.2687L8.39182 28.3019L9.3896 28.2354ZM9.40307 28.4374L8.40529 28.504L8.40943 28.5661L8.42125 28.6272L9.40307 28.4374ZM9.44346 28.6463L8.46163 28.8361L8.47291 28.8944L8.49101 28.951L9.44346 28.6463ZM9.49729 28.8146L10.4562 28.5308L10.4531 28.5203L10.4497 28.5099L9.49729 28.8146ZM9.55114 28.9965L8.59227 29.2804L8.61727 29.3648L8.65663 29.4436L9.55114 28.9965ZM9.62518 29.1447L8.73066 29.5917L8.75371 29.6378L8.78138 29.6813L9.62518 29.1447ZM9.7194 29.2928L8.87559 29.8295L8.91249 29.8875L8.95697 29.9399L9.7194 29.2928ZM9.83381 29.4276L9.07138 30.0747L9.15818 30.177L9.26887 30.2528L9.83381 29.4276ZM9.96168 29.5152L10.5974 28.7432L10.5632 28.7151L10.5266 28.69L9.96168 29.5152ZM10.0761 29.6094L9.44043 30.3813L9.52766 30.4532L9.62871 30.5037L10.0761 29.6094ZM10.2242 29.6835L9.77678 30.5778L9.84737 30.6131L9.92262 30.6369L10.2242 29.6835ZM10.352 29.7239L10.0505 30.6774L10.0901 30.6899L10.1306 30.6991L10.352 29.7239ZM10.5001 29.7575L10.2786 30.7327L10.388 30.7575H10.5001V29.7575ZM10.8165 29.7575V30.7575H10.9155L11.0125 30.7381L10.8165 29.7575ZM10.9847 29.7239V28.7239H10.8857L10.7886 28.7433L10.9847 29.7239ZM11.0721 29.7239L11.7116 28.9551L11.4337 28.7239H11.0721V29.7239ZM11.1126 29.7575H12.1126V29.2886L11.7521 28.9887L11.1126 29.7575ZM11.1126 29.798L12.0773 30.0613L12.1126 29.932V29.798H11.1126ZM11.0924 29.872L11.681 30.6805L11.9647 30.4739L12.0571 30.1353L11.0924 29.872ZM10.6679 28.9894L10.6141 29.0095L11.3148 30.8827L11.3687 30.8626L10.6679 28.9894ZM10.788 28.9618L10.5996 28.9956L10.9525 30.9642L11.1409 30.9304L10.788 28.9618ZM10.6767 28.9848L10.4749 29.005L10.6734 30.9951L10.8753 30.975L10.6767 28.9848ZM10.6804 29.0057L10.492 28.9856L10.2794 30.9742L10.4679 30.9944L10.6804 29.0057ZM10.5104 28.9877L10.3489 28.9674L10.0995 30.9518L10.261 30.9721L10.5104 28.9877ZM10.5286 29.0071L10.3603 28.9533L9.7515 30.8584L9.91976 30.9121L10.5286 29.0071ZM10.4595 28.9909L10.2912 28.9167L9.48406 30.7465L9.65232 30.8208L10.4595 28.9909ZM10.4759 29.0229L10.3278 28.9152L9.15135 30.5326L9.29941 30.6403L10.4759 29.0229ZM10.4067 28.9789L10.2788 28.8644L8.94463 30.3544L9.07251 30.4689L10.4067 28.9789ZM10.3518 28.9369L10.2172 28.7888L8.73698 30.1337L8.87158 30.2819L10.3518 28.9369ZM10.3381 28.9527L10.2506 28.8045L8.52859 29.8217L8.6161 29.9698L10.3381 28.9527ZM10.2623 28.8249L10.1681 28.6565L8.42264 29.6328L8.51686 29.8013L10.2623 28.8249ZM10.2215 28.7674L10.1475 28.5857L8.29523 29.3401L8.36926 29.5219L10.2215 28.7674ZM10.1818 28.6844L10.1212 28.4755L8.20034 29.0325L8.26091 29.2414L10.1818 28.6844ZM10.1472 28.5897L10.1135 28.3877L8.14072 28.7162L8.17437 28.9183L10.1472 28.5897ZM10.123 28.4614L10.1028 28.2392L8.11104 28.4203L8.13124 28.6425L10.123 28.4614ZM10.1069 28.3297V28.1075H8.10693V28.3297H10.1069ZM10.0559 28.423L10.0761 28.3623L8.17821 27.7313L8.15801 27.792L10.0559 28.423ZM9.83394 28.7542L9.86759 28.7206L8.45398 27.3058L8.42033 27.3394L9.83394 28.7542ZM9.86846 28.7197L9.90884 28.6793L8.4935 27.2662L8.45311 27.3066L9.86846 28.7197ZM9.44405 28.9428L9.49788 28.9293L9.01212 26.9892L8.95829 27.0027L9.44405 28.9428ZM9.57056 28.9081L9.63114 28.888L9.00003 26.9902L8.93945 27.0103L9.57056 28.9081ZM8.80179 28.797L8.83543 28.8171L9.86302 27.1013L9.82938 27.0812L8.80179 28.797ZM8.70759 28.7262L8.74798 28.76L10.0312 27.226L9.99085 27.1922L8.70759 28.7262ZM8.3896 27.993V28.0333H10.3896V27.993H8.3896ZM8.3896 28.0333V28.2354H10.3896V28.0333H8.3896ZM8.39182 28.3019L8.40529 28.504L10.4009 28.3709L10.3874 28.1688L8.39182 28.3019ZM8.42125 28.6272L8.46163 28.8361L10.4253 28.4565L10.3849 28.2476L8.42125 28.6272ZM8.49101 28.951L8.54484 29.1193L10.4497 28.5099L10.3959 28.3416L8.49101 28.951ZM8.53842 29.0984L8.59227 29.2804L10.51 28.7127L10.4562 28.5308L8.53842 29.0984ZM8.65663 29.4436L8.73066 29.5917L10.5197 28.6976L10.4457 28.5495L8.65663 29.4436ZM8.78138 29.6813L8.87559 29.8295L10.5632 28.7562L10.469 28.608L8.78138 29.6813ZM8.95697 29.9399L9.07138 30.0747L10.5962 28.7805L10.4818 28.6457L8.95697 29.9399ZM9.26887 30.2528L9.39674 30.3403L10.5266 28.69L10.3988 28.6025L9.26887 30.2528ZM9.32601 30.2871L9.44043 30.3813L10.7118 28.8374L10.5974 28.7432L9.32601 30.2871ZM9.62871 30.5037L9.77678 30.5778L10.6716 28.7891L10.5235 28.715L9.62871 30.5037ZM9.92262 30.6369L10.0505 30.6774L10.6536 28.7704L10.5257 28.73L9.92262 30.6369ZM10.1306 30.6991L10.2786 30.7327L10.7216 28.7824L10.5735 28.7487L10.1306 30.6991ZM10.5001 30.7575H10.6684V28.7575H10.5001V30.7575ZM10.6684 30.7575H10.8165V28.7575H10.6684V30.7575ZM11.0125 30.7381L11.1807 30.7045L10.7886 28.7433L10.6204 28.7769L11.0125 30.7381ZM10.9847 30.7239H11.0385V28.7239H10.9847V30.7239ZM11.0385 30.7239H11.0721V28.7239H11.0385V30.7239ZM10.4327 30.4927L10.4731 30.5263L11.7521 28.9887L11.7116 28.9551L10.4327 30.4927ZM10.1126 29.7575V29.798H12.1126V29.7575H10.1126ZM10.1479 29.5347L10.1276 29.6088L12.0571 30.1353L12.0773 30.0613L10.1479 29.5347ZM10.5038 29.0636L10.4297 29.1175L11.6069 30.7344L11.681 30.6805L10.5038 29.0636Z" fill="#D4B5EE" mask="url(#path-4-inside-2_150_320)"/>
<mask id="path-6-inside-3_150_320" fill="white">
<path fill-rule="evenodd" clip-rule="evenodd" d="M9.0752 29.5074V29.4468V29.4131L9.05505 29.3929L9.00134 29.3726L8.90733 29.339L8.81332 29.2985L8.73946 29.2648L8.68575 29.204L8.63202 29.13L8.57158 29.0557L8.55145 28.968L8.51787 28.8736V28.7793V28.6646L8.55145 28.4422L8.64544 28.2062L8.77974 27.9433L8.79318 27.9028V27.869L8.77974 27.8286L8.71932 27.8151H8.6656L8.61187 27.8286L8.57158 27.869L8.53801 27.9028L8.44401 28.0511L8.37013 28.1859L8.31642 28.3342L8.27614 28.4624L8.24256 28.6107V28.7457L8.22241 28.8535L8.24256 28.9815L8.27614 29.0962L8.31642 29.204L8.37013 29.2985L8.44401 29.3929L8.53801 29.4468L8.63202 29.5074L8.73946 29.5614L8.86704 29.5817H8.92748H8.98119L9.03492 29.5412L9.0752 29.5074Z"/>
</mask>
<path fill-rule="evenodd" clip-rule="evenodd" d="M9.0752 29.5074V29.4468V29.4131L9.05505 29.3929L9.00134 29.3726L8.90733 29.339L8.81332 29.2985L8.73946 29.2648L8.68575 29.204L8.63202 29.13L8.57158 29.0557L8.55145 28.968L8.51787 28.8736V28.7793V28.6646L8.55145 28.4422L8.64544 28.2062L8.77974 27.9433L8.79318 27.9028V27.869L8.77974 27.8286L8.71932 27.8151H8.6656L8.61187 27.8286L8.57158 27.869L8.53801 27.9028L8.44401 28.0511L8.37013 28.1859L8.31642 28.3342L8.27614 28.4624L8.24256 28.6107V28.7457L8.22241 28.8535L8.24256 28.9815L8.27614 29.0962L8.31642 29.204L8.37013 29.2985L8.44401 29.3929L8.53801 29.4468L8.63202 29.5074L8.73946 29.5614L8.86704 29.5817H8.92748H8.98119L9.03492 29.5412L9.0752 29.5074Z" fill="#EADAF7"/>
<path d="M9.0752 29.5074L9.71771 30.2737L10.0752 29.974V29.5074H9.0752ZM9.0752 29.4131H10.0752V28.9988L9.78221 28.7059L9.0752 29.4131ZM9.05505 29.3929L9.76206 28.6857L9.60988 28.5336L9.40861 28.4575L9.05505 29.3929ZM9.00134 29.3726L9.3549 28.4372L9.34653 28.434L9.33811 28.431L9.00134 29.3726ZM8.90733 29.339L8.51213 30.2576L8.54099 30.27L8.57056 30.2806L8.90733 29.339ZM8.81332 29.2985L8.39741 30.2079L8.40771 30.2127L8.41812 30.2171L8.81332 29.2985ZM8.73946 29.2648L7.99029 29.9272L8.13073 30.086L8.32355 30.1742L8.73946 29.2648ZM8.68575 29.204L7.87628 29.7912L7.90461 29.8302L7.93658 29.8664L8.68575 29.204ZM8.63202 29.13L9.44149 28.5428L9.4251 28.5202L9.40747 28.4985L8.63202 29.13ZM8.57158 29.0557L7.59693 29.2795L7.64905 29.5065L7.79613 29.6871L8.57158 29.0557ZM8.55145 28.968L9.5261 28.7443L9.51308 28.6876L9.49359 28.6328L8.55145 28.968ZM8.51787 28.8736H7.51787V29.0462L7.57573 29.2089L8.51787 28.8736ZM8.51787 28.6646L7.52908 28.5153L7.51787 28.5895V28.6646H8.51787ZM8.55145 28.4422L7.62242 28.0722L7.57984 28.1791L7.56266 28.2929L8.55145 28.4422ZM8.64544 28.2062L7.75487 27.7514L7.73367 27.7929L7.71642 27.8362L8.64544 28.2062ZM8.77974 27.9433L9.67032 28.3981L9.70481 28.3306L9.72872 28.2586L8.77974 27.9433ZM8.79318 27.9028L9.74216 28.2182L9.79318 28.0646V27.9028H8.79318ZM8.79318 27.869H9.79318V27.7072L9.74216 27.5537L8.79318 27.869ZM8.77974 27.8286L9.72872 27.5132L9.55016 26.9759L8.99754 26.8526L8.77974 27.8286ZM8.71932 27.8151L8.93712 26.8391L8.82954 26.8151H8.71932V27.8151ZM8.6656 27.8151V26.8151H8.54203L8.42218 26.8452L8.6656 27.8151ZM8.61187 27.8286L8.36845 26.8587L8.09927 26.9262L7.90341 27.1229L8.61187 27.8286ZM8.57158 27.869L7.86312 27.1633L7.86232 27.1641L8.57158 27.869ZM8.53801 27.9028L7.82875 27.1979L7.75181 27.2753L7.69338 27.3675L8.53801 27.9028ZM8.44401 28.0511L7.59939 27.5158L7.58235 27.5426L7.56705 27.5706L8.44401 28.0511ZM8.37013 28.1859L7.49318 27.7054L7.45614 27.773L7.4299 27.8454L8.37013 28.1859ZM8.31642 28.3342L7.37619 27.9937L7.36889 28.0139L7.36245 28.0343L8.31642 28.3342ZM8.27614 28.4624L7.32217 28.1625L7.30987 28.2016L7.30082 28.2416L8.27614 28.4624ZM8.24256 28.6107L7.26725 28.3899L7.24256 28.4989V28.6107H8.24256ZM8.24256 28.7457L9.22555 28.9293L9.24256 28.8383V28.7457H8.24256ZM8.22241 28.8535L7.23942 28.6698L7.20781 28.839L7.23458 29.009L8.22241 28.8535ZM8.24256 28.9815L7.25473 29.137L7.26475 29.2007L7.28286 29.2625L8.24256 28.9815ZM8.27614 29.0962L7.31643 29.3772L7.32664 29.412L7.33936 29.4461L8.27614 29.0962ZM8.31642 29.204L7.37965 29.5539L7.40756 29.6287L7.44698 29.698L8.31642 29.204ZM8.37013 29.2985L7.50069 29.7926L7.53718 29.8568L7.58271 29.915L8.37013 29.2985ZM8.44401 29.3929L7.65659 30.0093L7.77698 30.1631L7.94639 30.2603L8.44401 29.3929ZM8.53801 29.4468L9.07972 28.6063L9.05802 28.5923L9.03563 28.5794L8.53801 29.4468ZM8.63202 29.5074L8.09031 30.348L8.13544 30.3771L8.18343 30.4012L8.63202 29.5074ZM8.73946 29.5614L8.29086 30.4551L8.42932 30.5246L8.58232 30.5489L8.73946 29.5614ZM8.86704 29.5817L8.70991 30.5692L8.78798 30.5817H8.86704V29.5817ZM8.98119 29.5817V30.5817H9.31553L9.58263 30.3806L8.98119 29.5817ZM9.03492 29.5412L9.63636 30.3401L9.65732 30.3243L9.67743 30.3075L9.03492 29.5412ZM10.0752 29.5074V29.4468H8.0752V29.5074H10.0752ZM10.0752 29.4468V29.4131H8.0752V29.4468H10.0752ZM9.78221 28.7059L9.76206 28.6857L8.34805 30.1001L8.3682 30.1203L9.78221 28.7059ZM9.40861 28.4575L9.3549 28.4372L8.64779 30.308L8.7015 30.3283L9.40861 28.4575ZM9.33811 28.431L9.2441 28.3974L8.57056 30.2806L8.66457 30.3142L9.33811 28.431ZM9.30253 28.4204L9.20851 28.3799L8.41812 30.2171L8.51213 30.2576L9.30253 28.4204ZM9.22923 28.3891L9.15537 28.3554L8.32355 30.1742L8.39741 30.2079L9.22923 28.3891ZM9.48862 28.6024L9.43491 28.5416L7.93658 29.8664L7.99029 29.9272L9.48862 28.6024ZM9.49522 28.6169L9.44149 28.5428L7.82255 29.7171L7.87628 29.7912L9.49522 28.6169ZM9.40747 28.4985L9.34703 28.4243L7.79613 29.6871L7.85657 29.7614L9.40747 28.4985ZM9.54623 28.832L9.5261 28.7443L7.5768 29.1918L7.59693 29.2795L9.54623 28.832ZM9.49359 28.6328L9.46002 28.5384L7.57573 29.2089L7.6093 29.3032L9.49359 28.6328ZM9.51787 28.8736V28.7793H7.51787V28.8736H9.51787ZM9.51787 28.7793V28.6646H7.51787V28.7793H9.51787ZM9.50666 28.8139L9.54024 28.5915L7.56266 28.2929L7.52908 28.5153L9.50666 28.8139ZM9.48047 28.8123L9.57447 28.5763L7.71642 27.8362L7.62242 28.0722L9.48047 28.8123ZM9.53602 28.6611L9.67032 28.3981L7.88917 27.4884L7.75487 27.7514L9.53602 28.6611ZM9.72872 28.2586L9.74216 28.2182L7.8442 27.5875L7.83076 27.6279L9.72872 28.2586ZM9.79318 27.9028V27.869H7.79318V27.9028H9.79318ZM9.74216 27.5537L9.72872 27.5132L7.83077 28.144L7.84421 28.1844L9.74216 27.5537ZM8.99754 26.8526L8.93712 26.8391L8.50153 28.7911L8.56195 28.8046L8.99754 26.8526ZM8.71932 26.8151H8.6656V28.8151H8.71932V26.8151ZM8.42218 26.8452L8.36845 26.8587L8.85529 28.7985L8.90901 28.785L8.42218 26.8452ZM7.90341 27.1229L7.86312 27.1633L9.28005 28.5748L9.32033 28.5344L7.90341 27.1229ZM7.86232 27.1641L7.82875 27.1979L9.24727 28.6078L9.28084 28.574L7.86232 27.1641ZM7.69338 27.3675L7.59939 27.5158L9.28863 28.5865L9.38263 28.4382L7.69338 27.3675ZM7.56705 27.5706L7.49318 27.7054L9.24709 28.6665L9.32097 28.5317L7.56705 27.5706ZM7.4299 27.8454L7.37619 27.9937L9.25666 28.6748L9.31037 28.5265L7.4299 27.8454ZM7.36245 28.0343L7.32217 28.1625L9.23011 28.7623L9.2704 28.6341L7.36245 28.0343ZM7.30082 28.2416L7.26725 28.3899L9.21788 28.8315L9.25145 28.6832L7.30082 28.2416ZM7.24256 28.6107V28.7457H9.24256V28.6107H7.24256ZM7.25957 28.562L7.23942 28.6698L9.2054 29.0372L9.22555 28.9293L7.25957 28.562ZM7.23458 29.009L7.25473 29.137L9.2304 28.826L9.21024 28.698L7.23458 29.009ZM7.28286 29.2625L7.31643 29.3772L9.23585 28.8152L9.20227 28.7005L7.28286 29.2625ZM7.33936 29.4461L7.37965 29.5539L9.2532 28.8541L9.21291 28.7462L7.33936 29.4461ZM7.44698 29.698L7.50069 29.7926L9.23958 28.8045L9.18587 28.71L7.44698 29.698ZM7.58271 29.915L7.65659 30.0093L9.23143 28.7765L9.15755 28.6821L7.58271 29.915ZM7.94639 30.2603L8.04039 30.3142L9.03563 28.5794L8.94163 28.5255L7.94639 30.2603ZM7.9963 30.2874L8.09031 30.348L9.17373 28.6669L9.07972 28.6063L7.9963 30.2874ZM8.18343 30.4012L8.29086 30.4551L9.18805 28.6676L9.08061 28.6137L8.18343 30.4012ZM8.58232 30.5489L8.70991 30.5692L9.02418 28.5941L8.89659 28.5738L8.58232 30.5489ZM8.86704 30.5817H8.92748V28.5817H8.86704V30.5817ZM8.92748 30.5817H8.98119V28.5817H8.92748V30.5817ZM9.58263 30.3806L9.63636 30.3401L8.43347 28.7423L8.37975 28.7827L9.58263 30.3806ZM9.67743 30.3075L9.71771 30.2737L8.43269 28.7412L8.39241 28.7749L9.67743 30.3075Z" fill="#D4B5EE" mask="url(#path-6-inside-3_150_320)"/>
<mask id="path-8-inside-4_150_320" fill="white">
<path fill-rule="evenodd" clip-rule="evenodd" d="M7.45334 28.4163L7.62076 28.3427L7.78146 28.2693L7.93549 28.1957L8.04262 28.1021L8.15646 28.0085L8.23013 27.9149L8.2837 27.8078L8.31718 27.6942V27.6607L8.2837 27.6206L8.24352 27.5871L8.18995 27.5671H8.13637L8.0828 27.5871L8.04262 27.6206L8.02254 27.6607L7.98906 27.7343L7.94888 27.8213L7.87522 27.8947L7.80155 27.9883L7.70781 28.0419L7.58058 28.122L7.45334 28.1757L7.30603 28.2291L7.13863 28.2693L6.95113 28.3027L6.58283 28.3427H6.18106L5.7525 28.3027H5.67883L5.64535 28.3227L5.60517 28.3562L5.58508 28.3963V28.4296L5.60517 28.4698L5.65874 28.4899L5.719 28.5032L5.89981 28.5234L6.32837 28.5434H6.73015L7.09844 28.4899L7.45334 28.4163Z"/>
</mask>
<path fill-rule="evenodd" clip-rule="evenodd" d="M7.45334 28.4163L7.62076 28.3427L7.78146 28.2693L7.93549 28.1957L8.04262 28.1021L8.15646 28.0085L8.23013 27.9149L8.2837 27.8078L8.31718 27.6942V27.6607L8.2837 27.6206L8.24352 27.5871L8.18995 27.5671H8.13637L8.0828 27.5871L8.04262 27.6206L8.02254 27.6607L7.98906 27.7343L7.94888 27.8213L7.87522 27.8947L7.80155 27.9883L7.70781 28.0419L7.58058 28.122L7.45334 28.1757L7.30603 28.2291L7.13863 28.2693L6.95113 28.3027L6.58283 28.3427H6.18106L5.7525 28.3027H5.67883L5.64535 28.3227L5.60517 28.3562L5.58508 28.3963V28.4296L5.60517 28.4698L5.65874 28.4899L5.719 28.5032L5.89981 28.5234L6.32837 28.5434H6.73015L7.09844 28.4899L7.45334 28.4163Z" fill="#EADAF7"/>
<path d="M7.45334 28.4163L7.65642 29.3955L7.75947 29.3741L7.85582 29.3317L7.45334 28.4163ZM7.62076 28.3427L8.02324 29.2581L8.02987 29.2552L8.03645 29.2522L7.62076 28.3427ZM7.78146 28.2693L8.19716 29.1788L8.20493 29.1752L8.21264 29.1715L7.78146 28.2693ZM7.93549 28.1957L8.36667 29.0979L8.49025 29.0389L8.5934 28.9487L7.93549 28.1957ZM8.04262 28.1021L7.40752 27.3296L7.39597 27.3391L7.38471 27.349L8.04262 28.1021ZM8.15646 28.0085L8.79156 28.7809L8.87524 28.7121L8.94224 28.627L8.15646 28.0085ZM8.23013 27.9149L9.01591 28.5334L9.07889 28.4534L9.12445 28.3623L8.23013 27.9149ZM8.2837 27.8078L9.17802 28.2552L9.21777 28.1757L9.2429 28.0905L8.2837 27.8078ZM8.31718 27.6942L9.27638 27.9769L9.31718 27.8385V27.6942H8.31718ZM8.31718 27.6607H9.31718V27.2984L9.08508 27.0202L8.31718 27.6607ZM8.2837 27.6206L9.0516 26.98L8.99348 26.9104L8.92376 26.8523L8.2837 27.6206ZM8.24352 27.5871L8.88359 26.8188L8.75272 26.7098L8.59314 26.6502L8.24352 27.5871ZM8.18995 27.5671L8.53957 26.6302L8.37046 26.5671H8.18995V27.5671ZM8.13637 27.5671V26.5671H7.95586L7.78675 26.6302L8.13637 27.5671ZM8.0828 27.5871L7.73318 26.6502L7.5736 26.7098L7.44273 26.8188L8.0828 27.5871ZM8.04262 27.6206L7.40256 26.8523L7.24194 26.9861L7.14837 27.173L8.04262 27.6206ZM8.02254 27.6607L7.12828 27.2132L7.11997 27.2298L7.11228 27.2467L8.02254 27.6607ZM7.98906 27.7343L8.89681 28.1539L8.89932 28.1484L7.98906 27.7343ZM7.94888 27.8213L8.655 28.5294L8.78161 28.4031L8.85662 28.2408L7.94888 27.8213ZM7.87522 27.8947L7.16911 27.1866L7.12659 27.229L7.08945 27.2762L7.87522 27.8947ZM7.80155 27.9883L8.29802 28.8564L8.46696 28.7597L8.58733 28.6068L7.80155 27.9883ZM7.70781 28.0419L7.21134 27.1739L7.19291 27.1844L7.17494 27.1957L7.70781 28.0419ZM7.58058 28.122L7.96889 29.0436L8.04425 29.0118L8.11345 28.9682L7.58058 28.122ZM7.45334 28.1757L7.79448 29.1157L7.8183 29.107L7.84165 29.0972L7.45334 28.1757ZM7.30603 28.2291L7.53918 29.2016L7.59409 29.1884L7.64717 29.1691L7.30603 28.2291ZM7.13863 28.2693L7.31436 29.2537L7.34325 29.2485L7.37178 29.2417L7.13863 28.2693ZM6.95113 28.3027L7.05905 29.2969L7.09312 29.2932L7.12685 29.2872L6.95113 28.3027ZM6.58283 28.3427V29.3427H6.63695L6.69076 29.3369L6.58283 28.3427ZM6.18106 28.3427L6.08817 29.3384L6.13451 29.3427H6.18106V28.3427ZM5.7525 28.3027L5.84539 27.3071L5.79904 27.3027H5.7525V28.3027ZM5.67883 28.3027V27.3027H5.403L5.16617 27.4441L5.67883 28.3027ZM5.64535 28.3227L5.13269 27.4641L5.06545 27.5043L5.00528 27.5544L5.64535 28.3227ZM5.60517 28.3562L4.9651 27.5879L4.80448 27.7217L4.71092 27.9086L5.60517 28.3562ZM5.58508 28.3963L4.69083 27.9488L4.58508 28.16V28.3963H5.58508ZM5.58508 28.4296H4.58508V28.6659L4.69083 28.8772L5.58508 28.4296ZM5.60517 28.4698L4.71092 28.9173L4.88633 29.2678L5.25317 29.4058L5.60517 28.4698ZM5.65874 28.4899L5.30674 29.4259L5.37336 29.451L5.44285 29.4663L5.65874 28.4899ZM5.719 28.5032L5.50312 29.4797L5.55523 29.4912L5.60827 29.4971L5.719 28.5032ZM5.89981 28.5234L5.78908 29.5172L5.82107 29.5208L5.85322 29.5223L5.89981 28.5234ZM6.32837 28.5434L6.28177 29.5423L6.30506 29.5434H6.32837V28.5434ZM6.73015 28.5434V29.5434H6.80235L6.8738 29.533L6.73015 28.5434ZM7.09844 28.4899L7.24209 29.4795L7.27196 29.4752L7.30151 29.4691L7.09844 28.4899ZM7.85582 29.3317L8.02324 29.2581L7.21828 27.4273L7.05087 27.5009L7.85582 29.3317ZM8.03645 29.2522L8.19716 29.1788L7.36577 27.3598L7.20507 27.4332L8.03645 29.2522ZM8.21264 29.1715L8.36667 29.0979L7.50431 27.2934L7.35029 27.367L8.21264 29.1715ZM8.5934 28.9487L8.70054 28.8551L7.38471 27.349L7.27757 27.4426L8.5934 28.9487ZM8.67773 28.8745L8.79156 28.7809L7.52135 27.236L7.40752 27.3296L8.67773 28.8745ZM8.94224 28.627L9.01591 28.5334L7.44435 27.2964L7.37068 27.39L8.94224 28.627ZM9.12445 28.3623L9.17802 28.2552L7.38937 27.3604L7.3358 27.4674L9.12445 28.3623ZM9.2429 28.0905L9.27638 27.9769L7.35798 27.4115L7.3245 27.5251L9.2429 28.0905ZM9.31718 27.6942V27.6607H7.31718V27.6942H9.31718ZM9.08508 27.0202L9.0516 26.98L7.51579 28.2612L7.54927 28.3013L9.08508 27.0202ZM8.92376 26.8523L8.88359 26.8188L7.60345 28.3554L7.64363 28.3889L8.92376 26.8523ZM8.59314 26.6502L8.53957 26.6302L7.84033 28.504L7.8939 28.524L8.59314 26.6502ZM8.18995 26.5671H8.13637V28.5671H8.18995V26.5671ZM7.78675 26.6302L7.73318 26.6502L8.43242 28.524L8.48599 28.504L7.78675 26.6302ZM7.44273 26.8188L7.40256 26.8523L8.68269 28.3889L8.72287 28.3554L7.44273 26.8188ZM7.14837 27.173L7.12828 27.2132L8.91679 28.1083L8.93687 28.0682L7.14837 27.173ZM7.11228 27.2467L7.0788 27.3203L8.89932 28.1484L8.9328 28.0748L7.11228 27.2467ZM7.08131 27.3148L7.04114 27.4017L8.85662 28.2408L8.8968 28.1539L7.08131 27.3148ZM7.24276 27.1132L7.16911 27.1866L8.58134 28.6028L8.655 28.5294L7.24276 27.1132ZM7.08945 27.2762L7.01578 27.3698L8.58733 28.6068L8.661 28.5132L7.08945 27.2762ZM7.30508 27.1203L7.21134 27.1739L8.20428 28.91L8.29802 28.8564L7.30508 27.1203ZM7.17494 27.1957L7.04771 27.2758L8.11345 28.9682L8.24068 28.8881L7.17494 27.1957ZM7.19228 27.2005L7.06504 27.2541L7.84165 29.0972L7.96889 29.0436L7.19228 27.2005ZM7.11221 27.2356L6.9649 27.2891L7.64717 29.1691L7.79448 29.1157L7.11221 27.2356ZM7.07288 27.2567L6.90548 27.2968L7.37178 29.2417L7.53918 29.2016L7.07288 27.2567ZM6.96291 27.2848L6.7754 27.3183L7.12685 29.2872L7.31436 29.2537L6.96291 27.2848ZM6.84321 27.3086L6.47491 27.3485L6.69076 29.3369L7.05905 29.2969L6.84321 27.3086ZM6.58283 27.3427H6.18106V29.3427H6.58283V27.3427ZM6.27395 27.347L5.84539 27.3071L5.65961 29.2984L6.08817 29.3384L6.27395 27.347ZM5.7525 27.3027H5.67883V29.3027H5.7525V27.3027ZM5.16617 27.4441L5.13269 27.4641L6.158 29.1813L6.19148 29.1613L5.16617 27.4441ZM5.00528 27.5544L4.9651 27.5879L6.24524 29.1245L6.28541 29.091L5.00528 27.5544ZM4.71092 27.9086L4.69083 27.9488L6.47933 28.8439L6.49942 28.8038L4.71092 27.9086ZM4.58508 28.3963V28.4296H6.58508V28.3963H4.58508ZM4.69083 28.8772L4.71092 28.9173L6.49942 28.0222L6.47933 27.9821L4.69083 28.8772ZM5.25317 29.4058L5.30674 29.4259L6.01074 27.5539L5.95717 27.5338L5.25317 29.4058ZM5.44285 29.4663L5.50312 29.4797L5.93489 27.5268L5.87463 27.5135L5.44285 29.4663ZM5.60827 29.4971L5.78908 29.5172L6.01054 27.5295L5.82974 27.5094L5.60827 29.4971ZM5.85322 29.5223L6.28177 29.5423L6.37496 27.5445L5.94641 27.5245L5.85322 29.5223ZM6.32837 29.5434H6.73015V27.5434H6.32837V29.5434ZM6.8738 29.533L7.24209 29.4795L6.95479 27.5003L6.5865 27.5537L6.8738 29.533ZM7.30151 29.4691L7.65642 29.3955L7.25027 27.4371L6.89537 27.5108L7.30151 29.4691Z" fill="#D4B5EE" mask="url(#path-8-inside-4_150_320)"/>
<mask id="path-10-inside-5_150_320" fill="white">
<path fill-rule="evenodd" clip-rule="evenodd" d="M8.01512 27.605L8.02857 27.5711L8.04877 27.5303V27.4965L8.01512 27.4558L7.97472 27.4218L7.92087 27.4015L7.86027 27.3812L7.80641 27.4015L7.6381 27.4558L7.45633 27.5168L7.26784 27.5508L7.08606 27.5914H6.87737H6.6754L6.4869 27.5711L6.28493 27.5303L6.10316 27.4761L5.89446 27.4218L5.71269 27.3473L5.54438 27.2525L5.37607 27.1575L5.20777 27.049L5.05966 26.9337L4.93174 26.7846L4.87789 26.744L4.81729 26.7304H4.76344H4.72978L4.68939 26.7643L4.66919 26.8049L4.68939 26.8389L4.70959 26.8795L4.89136 27.049L5.07986 27.1982L5.28183 27.3473L5.49052 27.4558L5.80021 27.5914L6.11661 27.6998L6.43303 27.7744L6.76965 27.8151H7.08606L7.41594 27.7744L7.71216 27.7201L8.01512 27.605Z"/>
</mask>
<path fill-rule="evenodd" clip-rule="evenodd" d="M8.01512 27.605L8.02857 27.5711L8.04877 27.5303V27.4965L8.01512 27.4558L7.97472 27.4218L7.92087 27.4015L7.86027 27.3812L7.80641 27.4015L7.6381 27.4558L7.45633 27.5168L7.26784 27.5508L7.08606 27.5914H6.87737H6.6754L6.4869 27.5711L6.28493 27.5303L6.10316 27.4761L5.89446 27.4218L5.71269 27.3473L5.54438 27.2525L5.37607 27.1575L5.20777 27.049L5.05966 26.9337L4.93174 26.7846L4.87789 26.744L4.81729 26.7304H4.76344H4.72978L4.68939 26.7643L4.66919 26.8049L4.68939 26.8389L4.70959 26.8795L4.89136 27.049L5.07986 27.1982L5.28183 27.3473L5.49052 27.4558L5.80021 27.5914L6.11661 27.6998L6.43303 27.7744L6.76965 27.8151H7.08606L7.41594 27.7744L7.71216 27.7201L8.01512 27.605Z" fill="#EADAF7"/>
<path d="M8.01512 27.605L8.37037 28.5398L8.78229 28.3832L8.94472 27.9736L8.01512 27.605ZM8.02857 27.5711L7.13259 27.127L7.11422 27.164L7.09898 27.2025L8.02857 27.5711ZM8.04877 27.5303L8.94476 27.9744L9.04877 27.7645V27.5303H8.04877ZM8.04877 27.4965H9.04877V27.137L8.81984 26.8598L8.04877 27.4965ZM8.01512 27.4558L8.78619 26.819L8.72813 26.7487L8.65832 26.6901L8.01512 27.4558ZM7.97472 27.4218L8.61792 26.6561L8.4872 26.5463L8.32746 26.4861L7.97472 27.4218ZM7.92087 27.4015L8.27361 26.4658L8.25619 26.4592L8.23853 26.4533L7.92087 27.4015ZM7.86027 27.3812L8.17794 26.433L7.84057 26.32L7.50763 26.4455L7.86027 27.3812ZM7.80641 27.4015L8.11313 28.3533L8.13628 28.3459L8.15905 28.3373L7.80641 27.4015ZM7.6381 27.4558L7.33136 26.5039L7.31971 26.5078L7.6381 27.4558ZM7.45633 27.5168L7.63351 28.501L7.70545 28.4881L7.77473 28.4648L7.45633 27.5168ZM7.26784 27.5508L7.09066 26.5666L7.07016 26.5703L7.04984 26.5748L7.26784 27.5508ZM7.08606 27.5914V28.5914H7.19639L7.30406 28.5673L7.08606 27.5914ZM6.6754 27.5914L6.56832 28.5856L6.62171 28.5914H6.6754V27.5914ZM6.4869 27.5711L6.28911 28.5513L6.33415 28.5604L6.37982 28.5653L6.4869 27.5711ZM6.28493 27.5303L5.99901 28.4886L6.04258 28.5016L6.08714 28.5106L6.28493 27.5303ZM6.10316 27.4761L6.38908 26.5178L6.37197 26.5127L6.35468 26.5082L6.10316 27.4761ZM5.89446 27.4218L5.51507 28.3471L5.57756 28.3727L5.64294 28.3897L5.89446 27.4218ZM5.71269 27.3473L5.2218 28.2185L5.27587 28.249L5.33329 28.2725L5.71269 27.3473ZM5.54438 27.2525L5.05286 28.1233L5.05349 28.1237L5.54438 27.2525ZM5.37607 27.1575L4.83433 27.998L4.859 28.0139L4.88456 28.0283L5.37607 27.1575ZM5.20777 27.049L4.59355 27.8381L4.62865 27.8655L4.66603 27.8895L5.20777 27.049ZM5.05966 26.9337L4.30076 27.5849L4.36617 27.6612L4.44543 27.7228L5.05966 26.9337ZM4.93174 26.7846L5.69064 26.1334L5.62016 26.0513L5.53375 25.9862L4.93174 26.7846ZM4.87789 26.744L5.4799 25.9456L5.30775 25.8158L5.09741 25.7684L4.87789 26.744ZM4.81729 26.7304L5.03681 25.7548L4.92841 25.7304H4.81729V26.7304ZM4.72978 26.7304V25.7304H4.3655L4.08657 25.9647L4.72978 26.7304ZM4.68939 26.7643L4.04618 25.9987L3.88678 26.1326L3.79406 26.3189L4.68939 26.7643ZM4.66919 26.8049L3.77386 26.3595L3.53096 26.8478L3.80989 27.3164L4.66919 26.8049ZM4.68939 26.8389L5.58471 26.3935L5.56795 26.3598L5.54869 26.3274L4.68939 26.8389ZM4.70959 26.8795L3.81426 27.3249L3.89499 27.4872L4.02755 27.6108L4.70959 26.8795ZM4.89136 27.049L4.20932 27.7803L4.23892 27.8079L4.27067 27.8331L4.89136 27.049ZM5.07986 27.1982L4.45917 27.9823L4.47241 27.9928L4.48601 28.0028L5.07986 27.1982ZM5.28183 27.3473L4.68798 28.1519L4.75107 28.1984L4.82064 28.2346L5.28183 27.3473ZM5.49052 27.4558L5.02934 28.3431L5.05892 28.3584L5.08946 28.3718L5.49052 27.4558ZM5.80021 27.5914L5.39915 28.5074L5.43691 28.5239L5.47591 28.5373L5.80021 27.5914ZM6.11661 27.6998L5.79232 28.6458L5.83914 28.6618L5.88733 28.6732L6.11661 27.6998ZM6.43303 27.7744L6.20375 28.7477L6.25776 28.7604L6.31284 28.7671L6.43303 27.7744ZM6.76965 27.8151L6.64946 28.8079L6.70934 28.8151H6.76965V27.8151ZM7.08606 27.8151V28.8151H7.1476L7.20867 28.8076L7.08606 27.8151ZM7.41594 27.7744L7.53854 28.7668L7.56742 28.7633L7.59604 28.758L7.41594 27.7744ZM7.71216 27.7201L7.89226 28.7038L7.98206 28.6873L8.0674 28.6549L7.71216 27.7201ZM8.94472 27.9736L8.95817 27.9396L7.09898 27.2025L7.08552 27.2364L8.94472 27.9736ZM8.92456 28.0151L8.94476 27.9744L7.15279 27.0862L7.13259 27.127L8.92456 28.0151ZM9.04877 27.5303V27.4965H7.04877V27.5303H9.04877ZM8.81984 26.8598L8.78619 26.819L7.24405 28.0925L7.2777 28.1333L8.81984 26.8598ZM8.65832 26.6901L8.61792 26.6561L7.33152 28.1875L7.37192 28.2215L8.65832 26.6901ZM8.32746 26.4861L8.27361 26.4658L7.56813 28.3373L7.62198 28.3576L8.32746 26.4861ZM8.23853 26.4533L8.17794 26.433L7.54261 28.3294L7.6032 28.3497L8.23853 26.4533ZM7.50763 26.4455L7.45376 26.4658L8.15905 28.3373L8.21292 28.317L7.50763 26.4455ZM7.49968 26.4497L7.33138 26.504L7.94483 28.4076L8.11313 28.3533L7.49968 26.4497ZM7.31971 26.5078L7.13794 26.5689L7.77473 28.4648L7.9565 28.4037L7.31971 26.5078ZM7.27916 26.5326L7.09066 26.5666L7.44501 28.5349L7.63351 28.501L7.27916 26.5326ZM7.04984 26.5748L6.86807 26.6154L7.30406 28.5673L7.48583 28.5267L7.04984 26.5748ZM7.08606 26.5914H6.87737V28.5914H7.08606V26.5914ZM6.87737 26.5914H6.6754V28.5914H6.87737V26.5914ZM6.78247 26.5971L6.59398 26.5768L6.37982 28.5653L6.56832 28.5856L6.78247 26.5971ZM6.68469 26.5908L6.48272 26.5501L6.08714 28.5106L6.28911 28.5513L6.68469 26.5908ZM6.57085 26.5721L6.38908 26.5178L5.81724 28.4343L5.99901 28.4886L6.57085 26.5721ZM6.35468 26.5082L6.14598 26.454L5.64294 28.3897L5.85164 28.4439L6.35468 26.5082ZM6.27386 26.4966L6.09209 26.4221L5.33329 28.2725L5.51507 28.3471L6.27386 26.4966ZM6.20358 26.4761L6.03526 26.3812L5.05349 28.1237L5.2218 28.2185L6.20358 26.4761ZM6.03589 26.3816L5.86759 26.2866L4.88456 28.0283L5.05286 28.1233L6.03589 26.3816ZM5.91782 26.3169L5.74952 26.2085L4.66603 27.8895L4.83433 27.998L5.91782 26.3169ZM5.822 26.2599L5.67388 26.1446L4.44543 27.7228L4.59355 27.8381L5.822 26.2599ZM5.81856 26.2825L5.69064 26.1334L4.17284 27.4359L4.30076 27.5849L5.81856 26.2825ZM5.53375 25.9862L5.4799 25.9456L4.27588 27.5425L4.32973 27.5831L5.53375 25.9862ZM5.09741 25.7684L5.03681 25.7548L4.59777 27.706L4.65837 27.7197L5.09741 25.7684ZM4.81729 25.7304H4.76344V27.7304H4.81729V25.7304ZM4.76344 25.7304H4.72978V27.7304H4.76344V25.7304ZM4.08657 25.9647L4.04618 25.9987L5.3326 27.53L5.373 27.4961L4.08657 25.9647ZM3.79406 26.3189L3.77386 26.3595L5.56452 27.2504L5.58471 27.2098L3.79406 26.3189ZM3.80989 27.3164L3.83008 27.3503L5.54869 26.3274L5.52849 26.2935L3.80989 27.3164ZM3.79406 27.2843L3.81426 27.3249L5.60491 26.4341L5.58471 26.3935L3.79406 27.2843ZM4.02755 27.6108L4.20932 27.7803L5.5734 26.3177L5.39163 26.1482L4.02755 27.6108ZM4.27067 27.8331L4.45917 27.9823L5.70055 26.4142L5.51205 26.2649L4.27067 27.8331ZM4.48601 28.0028L4.68798 28.1519L5.87568 26.5427L5.67371 26.3937L4.48601 28.0028ZM4.82064 28.2346L5.02934 28.3431L5.9517 26.5685L5.74301 26.46L4.82064 28.2346ZM5.08946 28.3718L5.39915 28.5074L6.20128 26.6753L5.89159 26.5397L5.08946 28.3718ZM5.47591 28.5373L5.79232 28.6458L6.44091 26.7539L6.12451 26.6454L5.47591 28.5373ZM5.88733 28.6732L6.20375 28.7477L6.66232 26.801L6.3459 26.7265L5.88733 28.6732ZM6.31284 28.7671L6.64946 28.8079L6.88984 26.8224L6.55322 26.7816L6.31284 28.7671ZM6.76965 28.8151H7.08606V26.8151H6.76965V28.8151ZM7.20867 28.8076L7.53854 28.7668L7.29333 26.7819L6.96346 26.8227L7.20867 28.8076ZM7.59604 28.758L7.89226 28.7038L7.53206 26.7365L7.23584 26.7907L7.59604 28.758ZM8.0674 28.6549L8.37037 28.5398L7.65987 26.6702L7.35691 26.7854L8.0674 28.6549Z" fill="#D4B5EE" mask="url(#path-10-inside-5_150_320)"/>
<path fill-rule="evenodd" clip-rule="evenodd" d="M19.2104 7.19717L19.4528 7.49419L19.7087 7.89922L20.0251 8.40556L20.3618 8.99952L20.6917 9.68816L21.0284 10.4307L21.3651 11.234L21.6614 12.1116L21.9577 13.0026L22.0856 13.4684L22.2001 13.9342L22.3078 14.4135L22.4021 14.8996L22.4963 15.3855L22.5704 15.8716L22.604 16.3509L22.6445 16.8369L22.6647 17.3365V17.8226L22.6445 18.2884L22.604 18.7743L22.53 19.2401L22.4425 19.7059L22.3482 20.111L22.2337 20.5227L22.1058 20.9143L21.9577 21.3057L21.8095 21.677L21.6412 22.0483L21.4526 22.3994L21.2506 22.7572L21.0486 23.1082L20.8467 23.4457L20.6177 23.7631L20.382 24.0734L20.1396 24.3773L19.877 24.6541L19.601 24.9308L19.3383 25.2144L19.0623 25.4506L18.766 25.6937L18.4697 25.9164L18.1735 26.1459L17.857 26.3484L17.5405 26.5308L17.224 26.6995L16.8873 26.8683L16.5574 26.9964L16.2207 27.1315L15.884 27.2396L15.5541 27.3341L15.1972 27.4083L14.8471 27.4825L14.5104 27.523L14.1603 27.5568L10.9484 27.7054L10.6118 27.7255L10.3761 27.7593L10.1876 27.7796L10.0192 27.8335L9.94517 27.8538H9.83743L9.59502 27.8335L9.31895 27.7593L9.00248 27.6851L8.71967 27.5973L8.4436 27.4825L8.24159 27.388L8.10693 27.3138L8.03286 27.2597L7.95879 27.1653L7.77699 26.9829L7.58844 26.7737L7.48071 26.6792L7.34605 26.5915L7.25851 26.5171L7.12385 26.3484L6.92183 26.0851L6.69963 25.7544L6.41682 25.3425L6.14075 24.8566L5.82429 24.3166L5.50781 23.7225L5.17787 23.0879L4.86139 22.3994L4.56512 21.677L4.28231 20.9143L4.02644 20.1311L3.80424 19.3278L3.70996 18.9229L3.6359 18.5313L3.56183 18.1195L3.50796 17.7146L3.43389 16.8706L3.4137 16.0742L3.43389 15.3113L3.48776 14.5822L3.58203 13.8937L3.70996 13.2457L3.89851 12.6111L4.10051 12.017L4.32271 11.477L4.58532 10.9573L4.88159 10.4509L5.19133 9.98521L5.528 9.55985L5.89835 9.16827L6.26869 8.77685L6.65923 8.43919L7.06998 8.12881L7.49418 7.82497L7.92512 7.56845L8.34932 7.32543L8.79374 7.12291L9.23815 6.91364L9.6893 6.75163L10.1337 6.59638L10.5781 6.48835L11.0225 6.37361L11.4535 6.29935L11.8777 6.24535L12.2884 6.19133L12.6924 6.17109H13.0627H13.4398L14.4768 6.21158H15.3656L15.7763 6.19133L16.1265 6.17109L16.4632 6.13733L16.7796 6.07658L17.0557 6.04283L17.2981 5.96858L17.5405 5.90782L17.7425 5.83356L17.9311 5.74581L18.0994 5.6513L18.2475 5.55679L18.3755 5.46228H18.3957L18.4091 5.48253V5.57704L18.4293 5.72555L18.4697 5.92807L18.5572 6.19133L18.6179 6.33984L18.6919 6.48835L18.7862 6.65712L18.8939 6.82589L19.0421 7.00815L19.2104 7.19717Z" fill="#8948D0" stroke="#D4B5EE" stroke-miterlimit="10" stroke-linejoin="round"/>
<path fill-rule="evenodd" clip-rule="evenodd" d="M17.2059 9.41067L17.3002 9.51868L17.4147 9.66713L17.5022 9.83588L17.6167 10.0248L17.8389 10.4904L18.0611 11.0305L18.2632 11.6446L18.4718 12.3329L18.6335 13.0753L18.8019 13.8581L18.95 14.6546L19.0443 15.4914L19.1184 16.3283L19.1588 17.1719V17.5768V17.9886L19.1184 18.4003L19.0847 18.7851L19.0443 19.1765L18.9702 19.5476L18.8962 19.9255L18.8019 20.2765L18.6201 20.8502L18.3978 21.4104L18.1553 21.9502L17.8725 22.4901L17.5628 23.0098L17.2261 23.4958L16.8758 23.9817L16.4987 24.4271L16.0948 24.8388L15.6838 25.2236L15.2394 25.5812L14.795 25.8984L14.3303 26.1752L13.8656 26.3979L13.6232 26.5125L13.3808 26.6002L13.1384 26.6746L12.9026 26.7354L11.6568 27.0323L10.8757 27.2348L10.3571 27.4034L9.96649 27.552L9.81835 27.5924L9.62978 27.6059H9.42775L9.20552 27.5924L8.81492 27.5317L8.51863 27.4776L8.44454 27.444L8.37046 27.4034L8.22231 27.309L8.05395 27.201L7.86539 27.0862L7.83172 27.012L7.73744 26.8432L7.6297 26.5666L7.49501 26.1953L7.34686 25.75L7.1987 25.2099L7.03035 24.6093L6.86873 23.9614L6.70036 23.2528L6.55222 22.5104L6.41752 21.7276L6.30977 20.9312L6.21549 20.0875L6.16162 19.2507V18.4138V18.0089L6.18182 17.5971L6.2357 17.0776L6.28957 16.5578L6.38385 16.0719L6.47813 15.6062L6.60608 15.1607L6.73403 14.7289L6.88218 14.3239L7.05055 13.9325L7.23911 13.5612L7.42093 13.1901L7.64316 12.8526L7.85193 12.5354L8.07416 12.2182L8.31659 11.9415L8.5523 11.658L8.81492 11.4016L9.07757 11.1586L9.33347 10.9359L9.61631 10.7334L9.87221 10.5242L10.1551 10.342L10.4312 10.1732L10.7073 10.0248L10.9902 9.89662L11.2662 9.76149L11.5423 9.65364L11.8251 9.55912L12.0811 9.48489L12.3437 9.41067L12.5996 9.35659L13.1046 9.26222L13.7512 9.18784L14.31 9.09347L14.795 8.99894L15.199 8.89094L15.5761 8.79641L15.886 8.68174L16.4247 8.49951H16.4853L16.5392 8.53329L16.593 8.60752L16.6671 8.72219L16.7411 8.87064L16.8556 9.03939L17.0038 9.22162L17.2059 9.41067Z" fill="#A46DDB" stroke="#D4B5EE" stroke-miterlimit="10" stroke-linejoin="round"/>
<path fill-rule="evenodd" clip-rule="evenodd" d="M8.31394 27.8444L8.25328 27.5881L8.10499 26.826L8.03086 26.2999L7.95671 25.6861L7.88257 25.0186L7.82865 24.2766L7.80844 23.4741L7.78821 22.6378L7.82865 21.7813L7.86235 21.3361L7.9028 20.9112L7.95671 20.4662L8.01737 20.0345L8.10499 19.5894L8.19935 19.1645L8.31394 18.7328L8.442 18.3079L8.59027 17.8965L8.75878 17.4851L8.92727 17.1008L9.10926 16.7095L9.29798 16.352L9.50017 16.0014L9.70238 15.644L9.9248 15.3338L10.3562 14.6997L10.8211 14.1197L11.2862 13.6004L11.7513 13.1351L12.2164 12.7305L12.6613 12.3931L13.1062 12.0964L13.5172 11.8537L13.7194 11.7592L13.9217 11.685L14.0902 11.6311L14.2789 11.5771L14.4406 11.5367H14.5889H14.744L14.8719 11.557L15 11.5906L15.0944 11.6311L15.1887 11.7256L15.2764 11.8131L15.3708 11.9682L15.4449 12.1167L15.5191 12.2988L15.5797 12.5213L15.6876 13.0069L15.7819 13.5666L15.8359 14.1939L15.8763 14.8683L15.8897 15.5698L15.8763 16.2981L15.8359 17.0197L15.7819 17.7683L15.6876 18.4765L15.5797 19.1442L15.4314 19.7782L15.2629 20.3515L15.1685 20.6145L15.0742 20.8505L14.7776 21.4643L14.4406 22.1185L14.07 22.7524L13.6655 23.3999L13.2139 24.0338L12.7691 24.6476L12.2905 25.2208L11.8255 25.7603L11.3402 26.2661L10.8549 26.7316L10.6123 26.9338L10.3764 27.1227L10.1337 27.2845L9.91133 27.4396L9.68889 27.5678L9.46649 27.6758L9.25754 27.7702L9.05533 27.8241L8.85314 27.8645L8.66442 27.8848H8.4757L8.31394 27.8444Z" fill="#BD91E4" stroke="#D4B5EE" stroke-miterlimit="10" stroke-linejoin="round"/>
</svg>
